<svg width="44" height="44" viewBox="0 0 44 44" fill="none" xmlns="http://www.w3.org/2000/svg">
<g clip-path="url(#clip0_1_1690)">
<path d="M4.11152 12.5656L21.0643 2.40165C21.3493 2.23069 21.6753 2.14038 22.0076 2.14038C22.3399 2.14038 22.6659 2.23069 22.9508 2.40165L39.8872 12.5675C40.0231 12.6489 40.1355 12.7642 40.2136 12.902C40.2917 13.0398 40.3327 13.1956 40.3327 13.354V36.6666C40.3327 37.1529 40.1395 37.6192 39.7957 37.963C39.4519 38.3068 38.9856 38.5 38.4994 38.5H5.49935C5.01312 38.5 4.5468 38.3068 4.20299 37.963C3.85917 37.6192 3.66602 37.1529 3.66602 36.6666V13.3521C3.66598 13.1937 3.707 13.038 3.78508 12.9002C3.86316 12.7623 3.97563 12.6471 4.11152 12.5656ZM7.33268 14.9105V34.8333H36.666V14.9086L22.0067 6.10865L7.33268 14.9086V14.9105ZM22.1094 25.113L31.8187 16.9308L34.18 19.7358L22.135 29.887L9.83335 19.7486L12.1653 16.918L22.1094 25.113Z" fill="#C0D8D6"/>
</g>
<defs>
<clipPath id="clip0_1_1690">
<rect width="44" height="44" fill="white" transform="translate(0 -0.000244141)"/>
</clipPath>
</defs>
</svg>
