<svg width="34" height="34" viewBox="0 0 34 34" fill="none" xmlns="http://www.w3.org/2000/svg">
<path d="M29.7497 4.25C30.1254 4.25 30.4857 4.39926 30.7514 4.66493C31.0171 4.93061 31.1663 5.29094 31.1663 5.66667V15.5833H28.333V7.08333H5.66634V26.9167H14.1663V29.75H4.24967C3.87395 29.75 3.51362 29.6007 3.24794 29.3351C2.98226 29.0694 2.83301 28.7091 2.83301 28.3333V5.66667C2.83301 5.29094 2.98226 4.93061 3.24794 4.66493C3.51362 4.39926 3.87395 4.25 4.24967 4.25H29.7497ZM29.7497 18.4167C30.1254 18.4167 30.4857 18.5659 30.7514 18.8316C31.0171 19.0973 31.1663 19.4576 31.1663 19.8333V28.3333C31.1663 28.7091 31.0171 29.0694 30.7514 29.3351C30.4857 29.6007 30.1254 29.75 29.7497 29.75H18.4163C18.0406 29.75 17.6803 29.6007 17.4146 29.3351C17.1489 29.0694 16.9997 28.7091 16.9997 28.3333V19.8333C16.9997 19.4576 17.1489 19.0973 17.4146 18.8316C17.6803 18.5659 18.0406 18.4167 18.4163 18.4167H29.7497ZM28.333 21.25H19.833V26.9167H28.333V21.25Z" fill="#1C3533"/>
</svg>
