<svg width="603" height="384" viewBox="0 0 603 384" fill="none" xmlns="http://www.w3.org/2000/svg">
<path opacity="0.1" d="M599.321 -40.874C599.321 -40.874 569.553 78.9063 471.744 78.9063C373.935 78.9063 409.373 110.092 301.642 110.092C193.911 110.092 176.9 170.336 108.859 170.336C40.8186 170.336 74.839 272.398 -20.8434 272.398C-116.526 272.398 -82.972 362.41 -131.41 362.41C-206.538 362.41 -180.314 346.108 -229.927 346.108C-278.365 346.108 -348.999 380.838 -348.999 380.838" stroke="white" stroke-width="5.67007"/>
<path opacity="0.1" d="M599.321 -112.874C599.321 -112.874 569.553 6.90627 471.744 6.90627C373.935 6.90627 409.373 38.0917 301.642 38.0917C193.911 38.0917 176.9 98.3362 108.859 98.3362C40.8186 98.3362 74.839 200.398 -20.8434 200.398C-116.526 200.398 -82.972 290.41 -131.41 290.41C-206.538 290.41 -180.314 274.108 -229.927 274.108C-278.365 274.108 -348.999 308.838 -348.999 308.838" stroke="white" stroke-width="5.67007"/>
</svg>
