<svg width="682" height="324" viewBox="0 0 682 324" fill="none" xmlns="http://www.w3.org/2000/svg">
<g clip-path="url(#clip0_120_1794)">
<path opacity="0.1" d="M48.125 -117C48.125 -117 64.6131 5.31758 161.835 16.0156C259.057 26.7137 220.421 53.8359 327.506 65.6192C434.591 77.4026 444.909 139.146 512.542 146.588C580.175 154.03 535.195 251.758 630.304 262.224C725.412 272.689 682.214 358.492 730.361 363.79C805.039 372.007 780.755 352.935 830.071 358.362C878.218 363.66 944.629 405.906 944.629 405.906" stroke="#75FB92" stroke-width="5.67007"/>
<path opacity="0.1" d="M77.5469 -225C77.5469 -225 84.7811 -101.788 180.922 -83.8026C277.063 -65.8169 236.495 -41.6799 342.389 -21.8695C448.283 -2.05912 453.925 60.286 520.806 72.7978C587.686 85.3097 535.478 179.375 629.529 196.969C723.58 214.564 674.046 296.871 721.658 305.779C795.506 319.594 772.726 298.748 821.493 307.871C869.105 316.778 932.148 363.904 932.148 363.904" stroke="#75FB92" stroke-width="5.67007"/>
</g>
<defs>
<clipPath id="clip0_120_1794">
<rect width="682" height="324" fill="white"/>
</clipPath>
</defs>
</svg>
