<svg width="25" height="24" viewBox="0 0 25 24" fill="none" xmlns="http://www.w3.org/2000/svg">
<path fill-rule="evenodd" clip-rule="evenodd" d="M19.3864 7.20102C19.4585 7.26813 19.5166 7.34877 19.5576 7.43836C19.5985 7.52795 19.6214 7.62472 19.6249 7.72315C19.6284 7.82158 19.6125 7.91974 19.5781 8.01203C19.5437 8.10432 19.4915 8.18893 19.4244 8.26102L11.7444 16.511C11.6742 16.5864 11.5892 16.6466 11.4947 16.6877C11.4003 16.7288 11.2984 16.75 11.1954 16.75C11.0923 16.75 10.9904 16.7288 10.896 16.6877C10.8015 16.6466 10.7165 16.5864 10.6464 16.511L6.32636 11.871C6.25918 11.7989 6.20687 11.7143 6.1724 11.622C6.13794 11.5297 6.12199 11.4315 6.12547 11.333C6.12895 11.2345 6.1518 11.1377 6.1927 11.0481C6.2336 10.9584 6.29176 10.8777 6.36386 10.8105C6.43595 10.7434 6.52057 10.691 6.61288 10.6566C6.7052 10.6221 6.8034 10.6062 6.90187 10.6096C7.00035 10.6131 7.09718 10.636 7.18682 10.6769C7.27647 10.7178 7.35718 10.7759 7.42436 10.848L11.1954 14.899L18.3264 7.23902C18.3935 7.16692 18.4741 7.10875 18.5637 7.06782C18.6533 7.02689 18.7501 7.00401 18.8485 7.00048C18.9469 6.99695 19.0451 7.01285 19.1374 7.04726C19.2297 7.08166 19.3143 7.13391 19.3864 7.20102Z" fill="white"/>
</svg>
