<svg width="270" height="152" viewBox="0 0 270 152" fill="none" xmlns="http://www.w3.org/2000/svg">
<g clip-path="url(#clip0_163_1571)">
<rect x="0.856137" y="0.887265" width="268.644" height="149.924" rx="7.82921" fill="white" stroke="#EEEEEE" stroke-width="0.626337"/>
<path d="M44.1115 75.6002C42.735 75.6002 41.4687 75.3433 40.3124 74.8294C39.1745 74.3155 38.1835 73.5906 37.3393 72.6546C36.5134 71.7003 35.871 70.5808 35.4122 69.2961C34.9534 67.993 34.724 66.5615 34.724 65.0015C34.724 63.4232 34.9442 61.9916 35.3847 60.7069C35.8435 59.4222 36.4859 58.3119 37.3117 57.3759C38.156 56.4216 39.147 55.6966 40.2849 55.2011C41.4411 54.6872 42.7166 54.4303 44.1115 54.4303C46.0201 54.4303 47.6903 54.9258 49.1218 55.9169C50.5716 56.8896 51.5719 58.2201 52.1225 59.9086L48.2684 61.3676C47.9197 60.3949 47.3783 59.6425 46.6441 59.1103C45.9284 58.5597 45.0842 58.2844 44.1115 58.2844C43.1204 58.2844 42.2303 58.578 41.4411 59.1653C40.6703 59.7342 40.0647 60.5234 39.6242 61.5328C39.1837 62.5422 38.9635 63.6985 38.9635 65.0015C38.9635 66.3229 39.1837 67.4975 39.6242 68.5252C40.0647 69.5346 40.6703 70.3238 41.4411 70.8928C42.2119 71.4617 43.102 71.7462 44.1115 71.7462C45.0842 71.7462 45.9284 71.4709 46.6441 70.9203C47.3783 70.3697 47.9197 69.6172 48.2684 68.6629L52.1225 70.1219C51.7554 71.2415 51.1865 72.2142 50.4156 73.04C49.6448 73.8476 48.718 74.4807 47.6352 74.9395C46.5707 75.38 45.3962 75.6002 44.1115 75.6002ZM32.5217 68.1674V65.6897H44.7446V68.1674H32.5217ZM32.5217 64.3133V61.8356H44.7446V64.3133H32.5217ZM54.947 75.2699L63.2333 58.3394H53.7632V54.7606H67.7205V58.3394L59.682 75.2699H54.947ZM69.6515 79.8122V77.7475C70.2938 77.6007 70.8169 77.3162 71.2206 76.8941C71.6427 76.4904 71.918 75.9489 72.0465 75.2699H70.202V71.1405H74.3314V73.5356C74.3314 75.2791 73.9368 76.6831 73.1477 77.7475C72.3585 78.812 71.1931 79.5002 69.6515 79.8122ZM78.3986 75.2699V71.9664L83.9045 66.2954C84.9873 65.1759 85.804 64.2949 86.3546 63.6526C86.9235 62.9919 87.3089 62.4413 87.5108 62.0008C87.731 61.5604 87.8412 61.1291 87.8412 60.7069C87.8412 59.9545 87.5934 59.3672 87.0979 58.9451C86.6207 58.5046 86.0151 58.2844 85.281 58.2844C84.5285 58.2844 83.8586 58.5046 83.2713 58.9451C82.684 59.3672 82.2527 60.0187 81.9774 60.8996L78.261 59.6884C78.4812 58.6239 78.9401 57.6971 79.6375 56.9079C80.3349 56.1187 81.1791 55.5131 82.1701 55.091C83.1612 54.6505 84.1981 54.4303 85.281 54.4303C86.6391 54.4303 87.832 54.6689 88.8597 55.146C89.8875 55.6232 90.6859 56.2931 91.2548 57.1557C91.8237 58.0183 92.1082 59.0277 92.1082 60.1839C92.1082 60.918 91.9797 61.6429 91.7228 62.3587C91.4658 63.0561 91.0713 63.7719 90.539 64.506C90.0251 65.2217 89.3553 66.0017 88.5294 66.846L83.8219 71.6911H92.3009V75.2699H78.3986ZM103.277 75.6002C101.643 75.6002 100.203 75.1598 98.9548 74.2788C97.7252 73.3979 96.7616 72.1591 96.0642 70.5624C95.3668 68.9657 95.0181 67.1121 95.0181 65.0015C95.0181 62.8726 95.3576 61.0189 96.0367 59.4406C96.7341 57.8623 97.6976 56.6326 98.9273 55.7517C100.175 54.8708 101.616 54.4303 103.249 54.4303C104.919 54.4303 106.369 54.8708 107.599 55.7517C108.847 56.6326 109.81 57.8714 110.49 59.4681C111.187 61.0465 111.536 62.8909 111.536 65.0015C111.536 67.1121 111.187 68.9657 110.49 70.5624C109.81 72.1407 108.847 73.3796 107.599 74.2788C106.369 75.1598 104.929 75.6002 103.277 75.6002ZM103.304 71.7462C104.149 71.7462 104.864 71.48 105.452 70.9478C106.039 70.4156 106.489 69.6448 106.801 68.6354C107.113 67.626 107.269 66.4147 107.269 65.0015C107.269 63.5883 107.113 62.3862 106.801 61.3952C106.489 60.3858 106.03 59.615 105.424 59.0827C104.837 58.5505 104.112 58.2844 103.249 58.2844C102.405 58.2844 101.689 58.5505 101.102 59.0827C100.515 59.615 100.065 60.3858 99.7531 61.3952C99.4411 62.3862 99.2851 63.5883 99.2851 65.0015C99.2851 66.3963 99.4411 67.5984 99.7531 68.6078C100.065 69.6172 100.515 70.3972 101.102 70.9478C101.708 71.48 102.442 71.7462 103.304 71.7462ZM122.553 75.6002C120.919 75.6002 119.479 75.1598 118.231 74.2788C117.001 73.3979 116.037 72.1591 115.34 70.5624C114.643 68.9657 114.294 67.1121 114.294 65.0015C114.294 62.8726 114.633 61.0189 115.313 59.4406C116.01 57.8623 116.973 56.6326 118.203 55.7517C119.451 54.8708 120.892 54.4303 122.525 54.4303C124.195 54.4303 125.645 54.8708 126.875 55.7517C128.123 56.6326 129.086 57.8714 129.765 59.4681C130.463 61.0465 130.811 62.8909 130.811 65.0015C130.811 67.1121 130.463 68.9657 129.765 70.5624C129.086 72.1407 128.123 73.3796 126.875 74.2788C125.645 75.1598 124.204 75.6002 122.553 75.6002ZM122.58 71.7462C123.424 71.7462 124.14 71.48 124.728 70.9478C125.315 70.4156 125.764 69.6448 126.076 68.6354C126.388 67.626 126.544 66.4147 126.544 65.0015C126.544 63.5883 126.388 62.3862 126.076 61.3952C125.764 60.3858 125.306 59.615 124.7 59.0827C124.113 58.5505 123.388 58.2844 122.525 58.2844C121.681 58.2844 120.965 58.5505 120.378 59.0827C119.791 59.615 119.341 60.3858 119.029 61.3952C118.717 62.3862 118.561 63.5883 118.561 65.0015C118.561 66.3963 118.717 67.5984 119.029 68.6078C119.341 69.6172 119.791 70.3972 120.378 70.9478C120.984 71.48 121.718 71.7462 122.58 71.7462ZM135.745 75.2699V71.1405H139.874V75.2699H135.745ZM153.066 75.6002C151.433 75.6002 149.992 75.1598 148.744 74.2788C147.514 73.3979 146.551 72.1591 145.853 70.5624C145.156 68.9657 144.807 67.1121 144.807 65.0015C144.807 62.8726 145.147 61.0189 145.826 59.4406C146.523 57.8623 147.487 56.6326 148.716 55.7517C149.964 54.8708 151.405 54.4303 153.039 54.4303C154.709 54.4303 156.158 54.8708 157.388 55.7517C158.636 56.6326 159.6 57.8714 160.279 59.4681C160.976 61.0465 161.325 62.8909 161.325 65.0015C161.325 67.1121 160.976 68.9657 160.279 70.5624C159.6 72.1407 158.636 73.3796 157.388 74.2788C156.158 75.1598 154.718 75.6002 153.066 75.6002ZM153.094 71.7462C153.938 71.7462 154.654 71.48 155.241 70.9478C155.828 70.4156 156.278 69.6448 156.59 68.6354C156.902 67.626 157.058 66.4147 157.058 65.0015C157.058 63.5883 156.902 62.3862 156.59 61.3952C156.278 60.3858 155.819 59.615 155.213 59.0827C154.626 58.5505 153.901 58.2844 153.039 58.2844C152.194 58.2844 151.479 58.5505 150.891 59.0827C150.304 59.615 149.854 60.3858 149.542 61.3952C149.23 62.3862 149.074 63.5883 149.074 65.0015C149.074 66.3963 149.23 67.5984 149.542 68.6078C149.854 69.6172 150.304 70.3972 150.891 70.9478C151.497 71.48 152.231 71.7462 153.094 71.7462ZM172.342 75.6002C170.708 75.6002 169.268 75.1598 168.02 74.2788C166.79 73.3979 165.827 72.1591 165.129 70.5624C164.432 68.9657 164.083 67.1121 164.083 65.0015C164.083 62.8726 164.423 61.0189 165.102 59.4406C165.799 57.8623 166.763 56.6326 167.992 55.7517C169.24 54.8708 170.681 54.4303 172.314 54.4303C173.984 54.4303 175.434 54.8708 176.664 55.7517C177.912 56.6326 178.875 57.8714 179.555 59.4681C180.252 61.0465 180.601 62.8909 180.601 65.0015C180.601 67.1121 180.252 68.9657 179.555 70.5624C178.875 72.1407 177.912 73.3796 176.664 74.2788C175.434 75.1598 173.994 75.6002 172.342 75.6002ZM172.369 71.7462C173.214 71.7462 173.929 71.48 174.517 70.9478C175.104 70.4156 175.554 69.6448 175.866 68.6354C176.178 67.626 176.334 66.4147 176.334 65.0015C176.334 63.5883 176.178 62.3862 175.866 61.3952C175.554 60.3858 175.095 59.615 174.489 59.0827C173.902 58.5505 173.177 58.2844 172.314 58.2844C171.47 58.2844 170.754 58.5505 170.167 59.0827C169.58 59.615 169.13 60.3858 168.818 61.3952C168.506 62.3862 168.35 63.5883 168.35 65.0015C168.35 66.3963 168.506 67.5984 168.818 68.6078C169.13 69.6172 169.58 70.3972 170.167 70.9478C170.773 71.48 171.507 71.7462 172.369 71.7462Z" fill="black"/>
<path d="M35.7601 34.6343V25.8468H33.0374V23.902H40.6724V25.8468H37.9929V34.6343H35.7601ZM40.7616 34.6343V26.7687H42.7784V28.6559L42.6343 28.3822C42.8072 27.7195 43.0905 27.2729 43.4842 27.0424C43.8876 26.8024 44.363 26.6823 44.9104 26.6823H45.3714V28.555H44.6943C44.1661 28.555 43.7387 28.7183 43.4122 29.0448C43.0857 29.3618 42.9224 29.8132 42.9224 30.399V34.6343H40.7616ZM48.753 34.8071C48.1864 34.8071 47.6966 34.7159 47.2836 34.5334C46.8707 34.351 46.5537 34.0917 46.3329 33.7555C46.112 33.4098 46.0015 33.0016 46.0015 32.531C46.0015 32.0893 46.1024 31.7003 46.304 31.3642C46.5057 31.0184 46.8131 30.7303 47.226 30.4998C47.6486 30.2693 48.172 30.1061 48.7962 30.01L51.202 29.6211V31.2057L49.1852 31.5659C48.8779 31.6235 48.6426 31.7243 48.4793 31.8684C48.3161 32.0028 48.2344 32.1997 48.2344 32.459C48.2344 32.6991 48.3257 32.8864 48.5081 33.0208C48.6906 33.1553 48.9163 33.2225 49.1852 33.2225C49.5405 33.2225 49.8527 33.1457 50.1216 32.992C50.3905 32.8384 50.597 32.6319 50.741 32.3726C50.8947 32.1037 50.9715 31.8107 50.9715 31.4938V29.4482C50.9715 29.1505 50.8515 28.9008 50.6114 28.6991C50.3809 28.4974 50.064 28.3966 49.6606 28.3966C49.2764 28.3966 48.9355 28.5022 48.6378 28.7135C48.3497 28.9248 48.1384 29.2033 48.0039 29.549L46.2752 28.7279C46.4289 28.2861 46.6738 27.9068 47.0099 27.5899C47.3461 27.2729 47.7494 27.028 48.22 26.8552C48.6906 26.6823 49.2044 26.5959 49.7614 26.5959C50.4241 26.5959 51.0099 26.7159 51.5189 26.956C52.0279 27.1961 52.4217 27.5322 52.7002 27.9644C52.9883 28.387 53.1324 28.8816 53.1324 29.4482V34.6343H51.1156V33.3666L51.6054 33.2801C51.3749 33.6259 51.1204 33.914 50.8419 34.1445C50.5633 34.3654 50.2512 34.5286 49.9055 34.6343C49.5597 34.7495 49.1756 34.8071 48.753 34.8071ZM54.7171 34.6343V26.7687H56.7339V28.3246L56.6187 27.9788C56.8012 27.5082 57.0941 27.1625 57.4974 26.9416C57.9104 26.7111 58.3906 26.5959 58.938 26.5959C59.5334 26.5959 60.052 26.7207 60.4938 26.9704C60.9452 27.2201 61.2957 27.5707 61.5454 28.022C61.7951 28.4638 61.92 28.9824 61.92 29.5779V34.6343H59.7591V30.0388C59.7591 29.7315 59.6967 29.4674 59.5719 29.2465C59.4566 29.0256 59.2885 28.8528 59.0677 28.7279C58.8564 28.6031 58.6067 28.5406 58.3186 28.5406C58.04 28.5406 57.7903 28.6031 57.5695 28.7279C57.3486 28.8528 57.1757 29.0256 57.0509 29.2465C56.9356 29.4674 56.878 29.7315 56.878 30.0388V34.6343H54.7171ZM66.4237 34.8071C65.5594 34.8071 64.8055 34.6055 64.162 34.2021C63.5281 33.7891 63.096 33.2369 62.8655 32.5454L64.4501 31.7963C64.6518 32.2189 64.9255 32.5502 65.2712 32.7903C65.617 33.0304 66.0011 33.1505 66.4237 33.1505C66.731 33.1505 66.9663 33.0881 67.1296 32.9632C67.2928 32.8384 67.3745 32.6655 67.3745 32.4446C67.3745 32.3294 67.3457 32.2333 67.288 32.1565C67.2304 32.0701 67.144 31.9932 67.0287 31.926C66.9135 31.8588 66.7694 31.8011 66.5966 31.7531L65.2568 31.3786C64.6134 31.1961 64.1188 30.9032 63.773 30.4998C63.4273 30.0869 63.2544 29.6019 63.2544 29.0448C63.2544 28.555 63.3793 28.1277 63.629 27.7627C63.8787 27.3978 64.2292 27.1145 64.6806 26.9128C65.132 26.7015 65.6506 26.5959 66.2364 26.5959C67.0047 26.5959 67.677 26.7783 68.2532 27.1433C68.8391 27.4986 69.252 28.0028 69.4921 28.6559L67.8931 29.405C67.7778 29.0785 67.5666 28.8192 67.2592 28.6271C66.9615 28.4254 66.6206 28.3246 66.2364 28.3246C65.9579 28.3246 65.737 28.3822 65.5738 28.4974C65.4201 28.6127 65.3433 28.7711 65.3433 28.9728C65.3433 29.0785 65.3721 29.1745 65.4297 29.2609C65.4873 29.3474 65.5786 29.4242 65.7034 29.4914C65.8379 29.5587 66.0011 29.6211 66.1932 29.6787L67.4465 30.0532C68.0996 30.2453 68.599 30.5382 68.9447 30.932C69.2904 31.3162 69.4633 31.7915 69.4633 32.3582C69.4633 32.848 69.3337 33.2753 69.0744 33.6403C68.8247 34.0052 68.4741 34.2933 68.0227 34.5046C67.5714 34.7063 67.0383 34.8071 66.4237 34.8071ZM71.7055 34.6343V28.6415H70.3802V26.7687H71.7055V26.6535C71.7055 26.0292 71.8256 25.501 72.0657 25.0689C72.3154 24.6367 72.6707 24.3054 73.1317 24.0749C73.5927 23.8444 74.1497 23.7291 74.8028 23.7291C74.9276 23.7291 75.0621 23.7387 75.2061 23.7579C75.3502 23.7675 75.4702 23.7819 75.5663 23.8012V25.6451C75.4702 25.6259 75.3838 25.6163 75.307 25.6163C75.2398 25.6067 75.1677 25.6019 75.0909 25.6019C74.6875 25.6019 74.3802 25.6931 74.1689 25.8756C73.9672 26.0484 73.8664 26.3078 73.8664 26.6535V26.7687H75.5519V28.6415H73.8664V34.6343H71.7055ZM80.2973 34.8071C79.4618 34.8071 78.7367 34.6247 78.1221 34.2597C77.5074 33.8852 77.032 33.3858 76.6959 32.7615C76.3598 32.1373 76.1917 31.4458 76.1917 30.6871C76.1917 29.8996 76.3646 29.1985 76.7103 28.5839C77.0656 27.9692 77.541 27.4842 78.1365 27.1289C78.7319 26.7735 79.4042 26.5959 80.1533 26.5959C80.7775 26.5959 81.3297 26.6967 81.8099 26.8984C82.2901 27.0905 82.6935 27.3642 83.02 27.7195C83.3562 28.0749 83.6107 28.4878 83.7835 28.9584C83.9564 29.4194 84.0428 29.9236 84.0428 30.471C84.0428 30.6247 84.0332 30.7783 84.014 30.932C84.0044 31.0761 83.9804 31.2009 83.942 31.3065H78.05V29.7219H82.7175L81.6947 30.471C81.7907 30.058 81.7859 29.6931 81.6803 29.3762C81.5746 29.0496 81.3874 28.7951 81.1185 28.6127C80.8592 28.4206 80.5374 28.3246 80.1533 28.3246C79.7787 28.3246 79.457 28.4158 79.1881 28.5983C78.9192 28.7807 78.7175 29.0496 78.5831 29.405C78.4486 29.7603 78.3958 30.1925 78.4246 30.7015C78.3862 31.1433 78.439 31.5322 78.5831 31.8684C78.7271 32.2045 78.948 32.4686 79.2457 32.6607C79.5434 32.8432 79.9036 32.9344 80.3261 32.9344C80.7103 32.9344 81.0368 32.8576 81.3057 32.7039C81.5843 32.5502 81.8003 32.339 81.954 32.0701L83.6827 32.8912C83.529 33.2753 83.2841 33.6115 82.948 33.8996C82.6215 34.1877 82.2325 34.4134 81.7811 34.5767C81.3297 34.7303 80.8352 34.8071 80.2973 34.8071ZM85.3153 34.6343V26.7687H87.3321V28.6559L87.188 28.3822C87.3609 27.7195 87.6442 27.2729 88.0379 27.0424C88.4413 26.8024 88.9167 26.6823 89.4641 26.6823H89.9251V28.555H89.248C88.7198 28.555 88.2925 28.7183 87.9659 29.0448C87.6394 29.3618 87.4761 29.8132 87.4761 30.399V34.6343H85.3153ZM97.163 34.8071C96.3947 34.8071 95.708 34.6247 95.103 34.2597C94.4979 33.8948 94.0177 33.4002 93.6624 32.7759C93.3166 32.1517 93.1438 31.4602 93.1438 30.7015C93.1438 29.9332 93.3214 29.2417 93.6768 28.6271C94.0321 28.0028 94.5123 27.5082 95.1174 27.1433C95.7224 26.7783 96.3995 26.5959 97.1486 26.5959C97.7248 26.5959 98.2338 26.7063 98.6756 26.9272C99.127 27.1385 99.4823 27.441 99.7416 27.8348L99.4103 28.2669V23.7291H101.571V34.6343H99.5543V33.1937L99.756 33.6403C99.4871 34.0244 99.1222 34.3173 98.6612 34.519C98.2002 34.7111 97.7008 34.8071 97.163 34.8071ZM97.4223 32.8624C97.816 32.8624 98.1618 32.7711 98.4595 32.5887C98.7572 32.4062 98.9877 32.1517 99.151 31.8252C99.3238 31.4986 99.4103 31.1241 99.4103 30.7015C99.4103 30.2789 99.3238 29.9044 99.151 29.5779C98.9877 29.2513 98.7572 28.9968 98.4595 28.8144C98.1618 28.6319 97.816 28.5406 97.4223 28.5406C97.0285 28.5406 96.6732 28.6367 96.3563 28.8288C96.0489 29.0112 95.8088 29.2657 95.636 29.5923C95.4631 29.9092 95.3767 30.2789 95.3767 30.7015C95.3767 31.1241 95.4631 31.4986 95.636 31.8252C95.8088 32.1517 96.0489 32.4062 96.3563 32.5887C96.6732 32.7711 97.0285 32.8624 97.4223 32.8624ZM106.942 34.8071C106.107 34.8071 105.382 34.6247 104.767 34.2597C104.152 33.8852 103.677 33.3858 103.341 32.7615C103.005 32.1373 102.837 31.4458 102.837 30.6871C102.837 29.8996 103.01 29.1985 103.355 28.5839C103.711 27.9692 104.186 27.4842 104.781 27.1289C105.377 26.7735 106.049 26.5959 106.798 26.5959C107.423 26.5959 107.975 26.6967 108.455 26.8984C108.935 27.0905 109.339 27.3642 109.665 27.7195C110.001 28.0749 110.256 28.4878 110.429 28.9584C110.601 29.4194 110.688 29.9236 110.688 30.471C110.688 30.6247 110.678 30.7783 110.659 30.932C110.649 31.0761 110.625 31.2009 110.587 31.3065H104.695V29.7219H109.363L108.34 30.471C108.436 30.058 108.431 29.6931 108.325 29.3762C108.22 29.0496 108.032 28.7951 107.763 28.6127C107.504 28.4206 107.182 28.3246 106.798 28.3246C106.424 28.3246 106.102 28.4158 105.833 28.5983C105.564 28.7807 105.363 29.0496 105.228 29.405C105.094 29.7603 105.041 30.1925 105.07 30.7015C105.031 31.1433 105.084 31.5322 105.228 31.8684C105.372 32.2045 105.593 32.4686 105.891 32.6607C106.188 32.8432 106.549 32.9344 106.971 32.9344C107.355 32.9344 107.682 32.8576 107.951 32.7039C108.229 32.5502 108.445 32.339 108.599 32.0701L110.328 32.8912C110.174 33.2753 109.929 33.6115 109.593 33.8996C109.266 34.1877 108.878 34.4134 108.426 34.5767C107.975 34.7303 107.48 34.8071 106.942 34.8071ZM115.749 34.7207C114.798 34.7207 114.059 34.4662 113.53 33.9572C113.012 33.4386 112.753 32.7183 112.753 31.7963V28.6415H111.427V26.7687H111.499C111.903 26.7687 112.21 26.6679 112.421 26.4662C112.642 26.2645 112.753 25.962 112.753 25.5587V24.9824H114.913V26.7687H116.757V28.6415H114.913V31.6523C114.913 31.9212 114.961 32.1469 115.058 32.3294C115.154 32.5022 115.302 32.6319 115.504 32.7183C115.706 32.8047 115.955 32.848 116.253 32.848C116.32 32.848 116.397 32.8432 116.484 32.8336C116.57 32.824 116.661 32.8143 116.757 32.8047V34.6343C116.613 34.6535 116.45 34.6727 116.268 34.6919C116.085 34.7111 115.912 34.7207 115.749 34.7207ZM120.458 34.8071C119.892 34.8071 119.402 34.7159 118.989 34.5334C118.576 34.351 118.259 34.0917 118.038 33.7555C117.817 33.4098 117.707 33.0016 117.707 32.531C117.707 32.0893 117.808 31.7003 118.009 31.3642C118.211 31.0184 118.518 30.7303 118.931 30.4998C119.354 30.2693 119.877 30.1061 120.501 30.01L122.907 29.6211V31.2057L120.89 31.5659C120.583 31.6235 120.348 31.7243 120.184 31.8684C120.021 32.0028 119.94 32.1997 119.94 32.459C119.94 32.6991 120.031 32.8864 120.213 33.0208C120.396 33.1553 120.621 33.2225 120.89 33.2225C121.246 33.2225 121.558 33.1457 121.827 32.992C122.096 32.8384 122.302 32.6319 122.446 32.3726C122.6 32.1037 122.677 31.8107 122.677 31.4938V29.4482C122.677 29.1505 122.557 28.9008 122.317 28.6991C122.086 28.4974 121.769 28.3966 121.366 28.3966C120.982 28.3966 120.641 28.5022 120.343 28.7135C120.055 28.9248 119.844 29.2033 119.709 29.549L117.98 28.7279C118.134 28.2861 118.379 27.9068 118.715 27.5899C119.051 27.2729 119.455 27.028 119.925 26.8552C120.396 26.6823 120.91 26.5959 121.467 26.5959C122.129 26.5959 122.715 26.7159 123.224 26.956C123.733 27.1961 124.127 27.5322 124.405 27.9644C124.693 28.387 124.838 28.8816 124.838 29.4482V34.6343H122.821V33.3666L123.311 33.2801C123.08 33.6259 122.826 33.914 122.547 34.1445C122.269 34.3654 121.956 34.5286 121.611 34.6343C121.265 34.7495 120.881 34.8071 120.458 34.8071ZM126.422 34.6343V26.7687H128.583V34.6343H126.422ZM126.422 26.0629V23.902H128.583V26.0629H126.422ZM130.164 34.6343V23.7291H132.325V34.6343H130.164ZM136.989 34.8071C136.125 34.8071 135.371 34.6055 134.728 34.2021C134.094 33.7891 133.662 33.2369 133.431 32.5454L135.016 31.7963C135.217 32.2189 135.491 32.5502 135.837 32.7903C136.183 33.0304 136.567 33.1505 136.989 33.1505C137.297 33.1505 137.532 33.0881 137.695 32.9632C137.858 32.8384 137.94 32.6655 137.94 32.4446C137.94 32.3294 137.911 32.2333 137.854 32.1565C137.796 32.0701 137.71 31.9932 137.594 31.926C137.479 31.8588 137.335 31.8011 137.162 31.7531L135.822 31.3786C135.179 31.1961 134.684 30.9032 134.339 30.4998C133.993 30.0869 133.82 29.6019 133.82 29.0448C133.82 28.555 133.945 28.1277 134.195 27.7627C134.444 27.3978 134.795 27.1145 135.246 26.9128C135.698 26.7015 136.216 26.5959 136.802 26.5959C137.57 26.5959 138.243 26.7783 138.819 27.1433C139.405 27.4986 139.818 28.0028 140.058 28.6559L138.459 29.405C138.343 29.0785 138.132 28.8192 137.825 28.6271C137.527 28.4254 137.186 28.3246 136.802 28.3246C136.524 28.3246 136.303 28.3822 136.139 28.4974C135.986 28.6127 135.909 28.7711 135.909 28.9728C135.909 29.0785 135.938 29.1745 135.995 29.2609C136.053 29.3474 136.144 29.4242 136.269 29.4914C136.404 29.5587 136.567 29.6211 136.759 29.6787L138.012 30.0532C138.665 30.2453 139.165 30.5382 139.51 30.932C139.856 31.3162 140.029 31.7915 140.029 32.3582C140.029 32.848 139.899 33.2753 139.64 33.6403C139.39 34.0052 139.04 34.2933 138.588 34.5046C138.137 34.7063 137.604 34.8071 136.989 34.8071Z" fill="black"/>
<path d="M31.9973 93.7672V85.368H33.1021V93.7672H31.9973ZM34.8459 93.7672V87.6905H35.8718V88.8743L35.7027 88.7728C35.8531 88.3895 36.0936 88.0926 36.4243 87.8821C36.7625 87.6642 37.1571 87.5552 37.6081 87.5552C38.044 87.5552 38.4311 87.6529 38.7693 87.8483C39.115 88.0437 39.3856 88.3143 39.581 88.6601C39.7839 89.0058 39.8854 89.3966 39.8854 89.8326V93.7672H38.8257V90.1708C38.8257 89.8326 38.7655 89.547 38.6453 89.314C38.525 89.081 38.3521 88.9006 38.1267 88.7728C37.9087 88.6375 37.6569 88.5699 37.3713 88.5699C37.0857 88.5699 36.8301 88.6375 36.6047 88.7728C36.3867 88.9006 36.2138 89.0847 36.0861 89.3252C35.9583 89.5582 35.8944 89.8401 35.8944 90.1708V93.7672H34.8459ZM44.2043 93.9025C43.6105 93.9025 43.0806 93.7635 42.6146 93.4854C42.1561 93.2073 41.7954 92.8277 41.5323 92.3467C41.2692 91.8657 41.1377 91.3245 41.1377 90.7232C41.1377 90.1144 41.2692 89.5733 41.5323 89.0997C41.7954 88.6262 42.1561 88.2504 42.6146 87.9723C43.0806 87.6942 43.6105 87.5552 44.2043 87.5552C44.6026 87.5552 44.9747 87.6266 45.3204 87.7694C45.6661 87.9122 45.9705 88.1039 46.2336 88.3444C46.4967 88.5849 46.6883 88.8667 46.8086 89.1899L45.8728 89.6409C45.73 89.3252 45.5121 89.0697 45.2189 88.8743C44.9258 88.6713 44.5876 88.5699 44.2043 88.5699C43.836 88.5699 43.5015 88.6638 43.2009 88.8517C42.9077 89.0396 42.6747 89.2952 42.5019 89.6184C42.329 89.9415 42.2426 90.3136 42.2426 90.7345C42.2426 91.1404 42.329 91.5086 42.5019 91.8393C42.6747 92.1625 42.9077 92.4181 43.2009 92.606C43.5015 92.7939 43.836 92.8878 44.2043 92.8878C44.5876 92.8878 44.9258 92.7901 45.2189 92.5947C45.5121 92.3918 45.73 92.125 45.8728 91.7942L46.8086 92.2678C46.6883 92.5834 46.4967 92.8653 46.2336 93.1133C45.9705 93.3538 45.6661 93.5455 45.3204 93.6883C44.9747 93.8311 44.6026 93.9025 44.2043 93.9025ZM51.065 93.9025C50.4787 93.9025 49.9488 93.7672 49.4753 93.4966C49.0018 93.2185 48.626 92.839 48.3479 92.358C48.0698 91.8769 47.9308 91.332 47.9308 90.7232C47.9308 90.1144 48.0661 89.5733 48.3366 89.0997C48.6147 88.6262 48.9905 88.2504 49.4641 87.9723C49.9376 87.6942 50.4712 87.5552 51.065 87.5552C51.6512 87.5552 52.1811 87.6942 52.6546 87.9723C53.1281 88.2429 53.5002 88.615 53.7707 89.0885C54.0488 89.562 54.1879 90.1069 54.1879 90.7232C54.1879 91.3395 54.0451 91.8882 53.7595 92.3692C53.4739 92.8427 53.0943 93.2185 52.6208 93.4966C52.1548 93.7672 51.6362 93.9025 51.065 93.9025ZM51.065 92.8878C51.4408 92.8878 51.779 92.7939 52.0796 92.606C52.3878 92.4181 52.6283 92.1588 52.8012 91.8281C52.9816 91.4974 53.0718 91.1291 53.0718 90.7232C53.0718 90.3098 52.9816 89.9453 52.8012 89.6296C52.6283 89.3064 52.3878 89.0509 52.0796 88.863C51.779 88.6676 51.4408 88.5699 51.065 88.5699C50.6817 88.5699 50.3359 88.6676 50.0278 88.863C49.7271 89.0509 49.4866 89.3064 49.3062 89.6296C49.1258 89.9453 49.0356 90.3098 49.0356 90.7232C49.0356 91.1291 49.1258 91.4974 49.3062 91.8281C49.4866 92.1588 49.7271 92.4181 50.0278 92.606C50.3359 92.7939 50.6817 92.8878 51.065 92.8878ZM55.5554 93.7672V87.6905H56.5813V88.9306L56.4348 88.739C56.5851 88.3557 56.8256 88.0625 57.1563 87.8596C57.487 87.6567 57.8591 87.5552 58.2724 87.5552C58.746 87.5552 59.1706 87.6867 59.5464 87.9498C59.9297 88.2129 60.1928 88.5586 60.3356 88.987L60.0425 88.9983C60.2003 88.5248 60.4671 88.1678 60.8429 87.9272C61.2187 87.6792 61.6359 87.5552 62.0944 87.5552C62.5153 87.5552 62.8948 87.6529 63.233 87.8483C63.5788 88.0437 63.8531 88.3143 64.056 88.6601C64.259 89.0058 64.3604 89.3966 64.3604 89.8326V93.7672H63.3007V90.1708C63.3007 89.8326 63.2405 89.547 63.1203 89.314C63 89.081 62.8347 88.9006 62.6242 88.7728C62.4213 88.6375 62.1808 88.5699 61.9027 88.5699C61.6321 88.5699 61.3878 88.6375 61.1699 88.7728C60.9594 88.9006 60.7903 89.0847 60.6625 89.3252C60.5423 89.5582 60.4822 89.8401 60.4822 90.1708V93.7672H59.4224V90.1708C59.4224 89.8326 59.3623 89.547 59.242 89.314C59.1218 89.081 58.9564 88.9006 58.746 88.7728C58.543 88.6375 58.3025 88.5699 58.0244 88.5699C57.7538 88.5699 57.5096 88.6375 57.2916 88.7728C57.0812 88.9006 56.912 89.0847 56.7843 89.3252C56.664 89.5582 56.6039 89.8401 56.6039 90.1708V93.7672H55.5554ZM65.8496 93.7672V87.6905H66.8981V93.7672H65.8496ZM65.8496 86.7209V85.368H66.8981V86.7209H65.8496ZM68.525 93.7672V87.6905H69.5509V88.8743L69.3818 88.7728C69.5321 88.3895 69.7726 88.0926 70.1033 87.8821C70.4416 87.6642 70.8362 87.5552 71.2871 87.5552C71.723 87.5552 72.1101 87.6529 72.4483 87.8483C72.7941 88.0437 73.0647 88.3143 73.2601 88.6601C73.463 89.0058 73.5645 89.3966 73.5645 89.8326V93.7672H72.5047V90.1708C72.5047 89.8326 72.4446 89.547 72.3243 89.314C72.2041 89.081 72.0312 88.9006 71.8057 88.7728C71.5878 88.6375 71.336 88.5699 71.0504 88.5699C70.7648 88.5699 70.5092 88.6375 70.2837 88.7728C70.0658 88.9006 69.8929 89.0847 69.7651 89.3252C69.6373 89.5582 69.5735 89.8401 69.5735 90.1708V93.7672H68.525ZM77.9622 96.2475C77.5338 96.2475 77.1355 96.1799 76.7672 96.0446C76.4064 95.9093 76.0945 95.7214 75.8314 95.4809C75.5759 95.2479 75.3805 94.9735 75.2452 94.6579L76.226 94.2069C76.3313 94.4925 76.5304 94.733 76.8236 94.9284C77.1242 95.1314 77.5 95.2328 77.951 95.2328C78.2967 95.2328 78.6086 95.1652 78.8867 95.0299C79.1723 94.9021 79.3978 94.7067 79.5632 94.4437C79.7285 94.1881 79.8112 93.8762 79.8112 93.5079V92.1437L80.0028 92.3467C79.7924 92.7601 79.488 93.0757 79.0896 93.2937C78.6988 93.5117 78.2666 93.6206 77.7931 93.6206C77.2219 93.6206 76.7108 93.4891 76.2599 93.2261C75.8089 92.9555 75.4556 92.5909 75.2001 92.1325C74.9446 91.6665 74.8168 91.1516 74.8168 90.5879C74.8168 90.0167 74.9446 89.5019 75.2001 89.0434C75.4556 88.5849 75.8051 88.2241 76.2486 87.9611C76.6995 87.6905 77.2106 87.5552 77.7819 87.5552C78.2554 87.5552 78.6838 87.6642 79.0671 87.8821C79.4579 88.0926 79.7699 88.3857 80.0028 88.7615L79.845 89.0434V87.6905H80.871V93.5079C80.871 94.034 80.7469 94.5038 80.4989 94.9172C80.2509 95.3305 79.9051 95.6537 79.4617 95.8867C79.0258 96.1272 78.5259 96.2475 77.9622 96.2475ZM77.8833 92.606C78.2441 92.606 78.5673 92.5158 78.8529 92.3354C79.146 92.155 79.379 91.9145 79.5519 91.6139C79.7248 91.3057 79.8112 90.9637 79.8112 90.5879C79.8112 90.2196 79.7248 89.8814 79.5519 89.5733C79.379 89.2651 79.146 89.0208 78.8529 88.8404C78.5673 88.6601 78.2441 88.5699 77.8833 88.5699C77.515 88.5699 77.1806 88.6601 76.8799 88.8404C76.5793 89.0208 76.3425 89.2651 76.1697 89.5733C76.0043 89.8739 75.9216 90.2121 75.9216 90.5879C75.9216 90.9637 76.0043 91.3057 76.1697 91.6139C76.3425 91.9145 76.5755 92.155 76.8687 92.3354C77.1693 92.5158 77.5075 92.606 77.8833 92.606ZM86.9142 93.8349C86.3204 93.8349 85.862 93.6657 85.5388 93.3275C85.2231 92.9893 85.0653 92.512 85.0653 91.8957V88.6939H83.9604V87.6905H84.1859C84.4565 87.6905 84.6707 87.6078 84.8285 87.4425C84.9863 87.2771 85.0653 87.0591 85.0653 86.7886V86.2925H86.1137V87.6905H87.4779V88.6939H86.1137V91.8619C86.1137 92.0648 86.1438 92.2415 86.2039 92.3918C86.2716 92.5421 86.3806 92.6624 86.5309 92.7525C86.6812 92.8352 86.8804 92.8766 87.1284 92.8766C87.181 92.8766 87.2449 92.8728 87.3201 92.8653C87.4027 92.8578 87.4779 92.8503 87.5456 92.8427V93.7672C87.4478 93.7898 87.3389 93.8048 87.2186 93.8123C87.0983 93.8273 86.9969 93.8349 86.9142 93.8349ZM88.9152 93.7672V87.6905H89.9411V88.8066L89.8284 88.6488C89.9712 88.303 90.1891 88.0475 90.4823 87.8821C90.7754 87.7093 91.1324 87.6228 91.5533 87.6228H91.9253V88.615H91.3955C90.9671 88.615 90.6213 88.7503 90.3583 89.0208C90.0952 89.2839 89.9637 89.6597 89.9637 90.1482V93.7672H88.9152ZM94.638 93.9025C94.2396 93.9025 93.8864 93.8311 93.5782 93.6883C93.2776 93.538 93.0408 93.335 92.868 93.0795C92.6951 92.8164 92.6087 92.5158 92.6087 92.1776C92.6087 91.8544 92.6763 91.565 92.8116 91.3095C92.9544 91.0464 93.1724 90.8247 93.4655 90.6443C93.7661 90.4639 94.1419 90.3361 94.5929 90.261L96.8477 89.8889V90.7683L94.8297 91.1065C94.4388 91.1742 94.1532 91.2982 93.9728 91.4786C93.8 91.659 93.7135 91.8807 93.7135 92.1437C93.7135 92.3918 93.8112 92.5985 94.0066 92.7638C94.2096 92.9292 94.4614 93.0118 94.762 93.0118C95.1453 93.0118 95.476 92.9329 95.7541 92.7751C96.0397 92.6097 96.2615 92.388 96.4193 92.1099C96.5846 91.8318 96.6673 91.5237 96.6673 91.1854V89.6409C96.6673 89.3102 96.5433 89.0434 96.2953 88.8404C96.0548 88.63 95.7353 88.5248 95.337 88.5248C94.9912 88.5248 94.6831 88.615 94.4125 88.7953C94.1495 88.9682 93.954 89.2012 93.8263 89.4943L92.9131 89.0208C93.0258 88.7427 93.2062 88.4947 93.4542 88.2767C93.7022 88.0513 93.9916 87.8746 94.3223 87.7469C94.653 87.6191 94.9988 87.5552 95.3595 87.5552C95.8255 87.5552 96.2352 87.6454 96.5884 87.8258C96.9417 87.9986 97.216 88.2429 97.4114 88.5586C97.6143 88.8667 97.7158 89.2275 97.7158 89.6409V93.7672H96.6899V92.6173L96.8815 92.6849C96.7538 92.9254 96.5809 93.1359 96.3629 93.3162C96.145 93.4966 95.8894 93.6394 95.5963 93.7447C95.3032 93.8499 94.9837 93.9025 94.638 93.9025ZM99.3415 93.7672V87.6905H100.367V88.8743L100.198 88.7728C100.349 88.3895 100.589 88.0926 100.92 87.8821C101.258 87.6642 101.653 87.5552 102.104 87.5552C102.54 87.5552 102.927 87.6529 103.265 87.8483C103.611 88.0437 103.881 88.3143 104.077 88.6601C104.28 89.0058 104.381 89.3966 104.381 89.8326V93.7672H103.321V90.1708C103.321 89.8326 103.261 89.547 103.141 89.314C103.021 89.081 102.848 88.9006 102.622 88.7728C102.404 88.6375 102.152 88.5699 101.867 88.5699C101.581 88.5699 101.326 88.6375 101.1 88.7728C100.882 88.9006 100.709 89.0847 100.582 89.3252C100.454 89.5582 100.39 89.8401 100.39 90.1708V93.7672H99.3415ZM108.057 93.9025C107.448 93.9025 106.919 93.7522 106.468 93.4515C106.017 93.1509 105.697 92.745 105.509 92.2339L106.344 91.8281C106.516 92.1888 106.753 92.4744 107.054 92.6849C107.354 92.8953 107.689 93.0006 108.057 93.0006C108.388 93.0006 108.662 92.9217 108.88 92.7638C109.098 92.606 109.207 92.3993 109.207 92.1437C109.207 91.9634 109.155 91.8206 109.049 91.7153C108.952 91.6026 108.831 91.5162 108.689 91.456C108.546 91.3884 108.414 91.3395 108.294 91.3095L107.381 91.0502C106.832 90.8923 106.43 90.6668 106.174 90.3737C105.926 90.0806 105.802 89.7386 105.802 89.3478C105.802 88.987 105.893 88.6751 106.073 88.412C106.261 88.1415 106.513 87.931 106.828 87.7807C107.152 87.6304 107.512 87.5552 107.911 87.5552C108.444 87.5552 108.922 87.6905 109.342 87.9611C109.771 88.2316 110.075 88.6112 110.256 89.0997L109.399 89.4943C109.264 89.1787 109.061 88.9306 108.79 88.7503C108.519 88.5623 108.215 88.4684 107.877 88.4684C107.569 88.4684 107.324 88.5473 107.144 88.7052C106.964 88.8555 106.873 89.0471 106.873 89.2801C106.873 89.453 106.919 89.5958 107.009 89.7085C107.099 89.8138 107.208 89.8964 107.336 89.9566C107.463 90.0092 107.587 90.0543 107.708 90.0919L108.7 90.385C109.196 90.5278 109.579 90.7495 109.85 91.0502C110.128 91.3508 110.267 91.7116 110.267 92.1325C110.267 92.4707 110.173 92.7751 109.985 93.0457C109.797 93.3162 109.538 93.5267 109.207 93.677C108.876 93.8273 108.493 93.9025 108.057 93.9025ZM112.282 93.7672V88.6939H111.121V87.6905H112.282V87.2621C112.282 86.8261 112.376 86.4579 112.564 86.1572C112.759 85.8566 113.015 85.6273 113.331 85.4695C113.654 85.3117 114.011 85.2327 114.402 85.2327C114.484 85.2327 114.574 85.2403 114.672 85.2553C114.777 85.2628 114.864 85.2741 114.931 85.2891V86.2249C114.871 86.2098 114.8 86.2023 114.717 86.2023C114.635 86.1948 114.571 86.191 114.526 86.191C114.18 86.191 113.894 86.2737 113.669 86.4391C113.451 86.6044 113.342 86.8788 113.342 87.2621V87.6905H114.785V88.6939H113.342V93.7672H112.282ZM118.63 93.9025C118.044 93.9025 117.522 93.7635 117.063 93.4854C116.605 93.2073 116.244 92.8277 115.981 92.3467C115.718 91.8581 115.586 91.3132 115.586 90.7119C115.586 90.1031 115.714 89.562 115.969 89.0885C116.233 88.615 116.586 88.2429 117.029 87.9723C117.48 87.6942 117.984 87.5552 118.54 87.5552C118.991 87.5552 119.389 87.6379 119.735 87.8032C120.088 87.9611 120.385 88.179 120.626 88.4571C120.874 88.7277 121.062 89.0396 121.189 89.3929C121.325 89.7386 121.392 90.0994 121.392 90.4752C121.392 90.5579 121.385 90.6518 121.37 90.757C121.362 90.8547 121.351 90.9487 121.336 91.0389H116.353V90.137H120.727L120.231 90.5428C120.299 90.152 120.261 89.8025 120.118 89.4943C119.976 89.1862 119.765 88.9419 119.487 88.7615C119.209 88.5811 118.893 88.4909 118.54 88.4909C118.187 88.4909 117.864 88.5811 117.57 88.7615C117.277 88.9419 117.048 89.2012 116.883 89.5394C116.725 89.8701 116.661 90.2647 116.691 90.7232C116.661 91.1667 116.729 91.5575 116.894 91.8957C117.067 92.2264 117.307 92.4857 117.616 92.6736C117.931 92.854 118.273 92.9442 118.641 92.9442C119.047 92.9442 119.389 92.8503 119.667 92.6624C119.945 92.4744 120.171 92.2339 120.344 91.9408L121.223 92.3918C121.103 92.6699 120.915 92.9254 120.66 93.1584C120.411 93.3839 120.115 93.5643 119.769 93.6996C119.431 93.8349 119.051 93.9025 118.63 93.9025ZM122.759 93.7672V87.6905H123.785V88.8066L123.673 88.6488C123.815 88.303 124.033 88.0475 124.326 87.8821C124.62 87.7093 124.977 87.6228 125.398 87.6228H125.77V88.615H125.24C124.811 88.615 124.466 88.7503 124.202 89.0208C123.939 89.2839 123.808 89.6597 123.808 90.1482V93.7672H122.759ZM130.296 95.4583C129.687 94.7593 129.225 93.9852 128.909 93.1359C128.593 92.279 128.435 91.3696 128.435 90.4075C128.435 89.438 128.593 88.5285 128.909 87.6792C129.225 86.8299 129.687 86.0595 130.296 85.368H131.198C130.656 86.1347 130.247 86.9464 129.969 87.8032C129.691 88.6525 129.552 89.5206 129.552 90.4075C129.552 91.2944 129.691 92.1663 129.969 93.0231C130.247 93.8724 130.656 94.6842 131.198 95.4583H130.296ZM132.046 93.7672V92.6962H132.508C132.906 92.6962 133.222 92.5797 133.455 92.3467C133.688 92.1062 133.805 91.783 133.805 91.3771V85.368H134.921V91.3546C134.921 91.8431 134.819 92.2678 134.616 92.6285C134.421 92.9893 134.143 93.2712 133.782 93.4741C133.421 93.6695 132.997 93.7672 132.508 93.7672H132.046ZM138.796 93.9025C138.36 93.9025 137.966 93.801 137.612 93.5981C137.267 93.3952 136.996 93.1133 136.801 92.7525C136.613 92.3843 136.519 91.9634 136.519 91.4898V87.6905H137.567V91.3771C137.567 91.6777 137.627 91.9408 137.748 92.1663C137.875 92.3918 138.048 92.5684 138.266 92.6962C138.492 92.8239 138.747 92.8878 139.033 92.8878C139.318 92.8878 139.57 92.8239 139.788 92.6962C140.014 92.5684 140.187 92.3843 140.307 92.1437C140.435 91.9032 140.499 91.6176 140.499 91.2869V87.6905H141.558V93.7672H140.532V92.5834L140.701 92.6849C140.559 93.0682 140.314 93.3689 139.969 93.5868C139.63 93.7973 139.24 93.9025 138.796 93.9025ZM143.183 93.7672V87.6905H144.209V88.8743L144.039 88.7728C144.19 88.3895 144.43 88.0926 144.761 87.8821C145.099 87.6642 145.494 87.5552 145.945 87.5552C146.381 87.5552 146.768 87.6529 147.106 87.8483C147.452 88.0437 147.722 88.3143 147.918 88.6601C148.121 89.0058 148.222 89.3966 148.222 89.8326V93.7672H147.162V90.1708C147.162 89.8326 147.102 89.547 146.982 89.314C146.862 89.081 146.689 88.9006 146.463 88.7728C146.245 88.6375 145.994 88.5699 145.708 88.5699C145.422 88.5699 145.167 88.6375 144.941 88.7728C144.723 88.9006 144.551 89.0847 144.423 89.3252C144.295 89.5582 144.231 89.8401 144.231 90.1708V93.7672H143.183ZM152.518 93.9025C151.932 93.9025 151.41 93.7635 150.951 93.4854C150.493 93.2073 150.132 92.8277 149.869 92.3467C149.606 91.8581 149.474 91.3132 149.474 90.7119C149.474 90.1031 149.602 89.562 149.858 89.0885C150.121 88.615 150.474 88.2429 150.917 87.9723C151.368 87.6942 151.872 87.5552 152.428 87.5552C152.879 87.5552 153.278 87.6379 153.623 87.8032C153.977 87.9611 154.273 88.179 154.514 88.4571C154.762 88.7277 154.95 89.0396 155.078 89.3929C155.213 89.7386 155.281 90.0994 155.281 90.4752C155.281 90.5579 155.273 90.6518 155.258 90.757C155.25 90.8547 155.239 90.9487 155.224 91.0389H150.241V90.137H154.615L154.119 90.5428C154.187 90.152 154.149 89.8025 154.007 89.4943C153.864 89.1862 153.653 88.9419 153.375 88.7615C153.097 88.5811 152.781 88.4909 152.428 88.4909C152.075 88.4909 151.752 88.5811 151.459 88.7615C151.166 88.9419 150.936 89.2012 150.771 89.5394C150.613 89.8701 150.549 90.2647 150.579 90.7232C150.549 91.1667 150.617 91.5575 150.782 91.8957C150.955 92.2264 151.196 92.4857 151.504 92.6736C151.819 92.854 152.161 92.9442 152.53 92.9442C152.936 92.9442 153.278 92.8503 153.556 92.6624C153.834 92.4744 154.059 92.2339 154.232 91.9408L155.111 92.3918C154.991 92.6699 154.803 92.9254 154.548 93.1584C154.3 93.3839 154.003 93.5643 153.657 93.6996C153.319 93.8349 152.939 93.9025 152.518 93.9025ZM156.129 95.4583C156.663 94.6842 157.069 93.8724 157.347 93.0231C157.625 92.1663 157.764 91.2944 157.764 90.4075C157.764 89.5206 157.625 88.6525 157.347 87.8032C157.069 86.9464 156.663 86.1347 156.129 85.368H157.031C157.64 86.0595 158.098 86.8299 158.406 87.6792C158.722 88.5285 158.88 89.438 158.88 90.4075C158.88 91.3696 158.722 92.279 158.406 93.1359C158.098 93.9852 157.64 94.7593 157.031 95.4583H156.129Z" fill="#848484"/>
<path d="M31.3316 133.507V127.205H29.9852V126.393H32.277V133.507H31.3316ZM33.7937 133.507V132.858L35.7609 130.729C36.1492 130.315 36.4579 129.974 36.6871 129.707C36.9227 129.439 37.0946 129.201 37.2028 128.991C37.311 128.781 37.3651 128.558 37.3651 128.322C37.3651 127.934 37.2505 127.635 37.0213 127.425C36.7922 127.215 36.4898 127.109 36.1142 127.109C35.7322 127.109 35.4075 127.221 35.1402 127.444C34.8728 127.66 34.6882 127.969 34.5863 128.37L33.7364 128.15C33.8192 127.768 33.972 127.437 34.1948 127.157C34.4176 126.877 34.6945 126.661 35.0256 126.508C35.3566 126.355 35.7195 126.279 36.1142 126.279C36.5471 126.279 36.9259 126.365 37.2505 126.537C37.5816 126.702 37.8394 126.934 38.024 127.234C38.215 127.533 38.3105 127.88 38.3105 128.274C38.3105 128.535 38.2564 128.79 38.1482 129.038C38.0399 129.287 37.8808 129.551 37.6707 129.831C37.4606 130.105 37.1869 130.423 36.8495 130.786L35.0924 132.696H38.4633V133.507H33.7937ZM41.1226 133.507V132.6H41.5141C41.8515 132.6 42.1189 132.502 42.3162 132.304C42.5136 132.101 42.6122 131.827 42.6122 131.483V126.393H43.5576V131.464C43.5576 131.878 43.4717 132.237 43.2998 132.543C43.1343 132.849 42.8987 133.087 42.5932 133.259C42.2876 133.425 41.9279 133.507 41.5141 133.507H41.1226ZM46.8401 133.622C46.4708 133.622 46.1366 133.536 45.8374 133.364C45.5446 133.192 45.3154 132.954 45.1499 132.648C44.9907 132.336 44.9111 131.98 44.9111 131.579V128.36H45.7992V131.483C45.7992 131.738 45.8501 131.96 45.952 132.151C46.0602 132.342 46.2067 132.492 46.3913 132.6C46.5823 132.708 46.7987 132.763 47.0406 132.763C47.2825 132.763 47.4958 132.708 47.6804 132.6C47.8714 132.492 48.0178 132.336 48.1197 132.132C48.2279 131.929 48.282 131.687 48.282 131.407V128.36H49.1796V133.507H48.3107V132.505L48.4539 132.591C48.3329 132.915 48.126 133.17 47.8332 133.355C47.5467 133.533 47.2157 133.622 46.8401 133.622ZM50.5555 133.507V128.36H51.4244V129.363L51.2812 129.277C51.4085 128.952 51.6122 128.701 51.8923 128.523C52.1788 128.338 52.513 128.246 52.895 128.246C53.2643 128.246 53.5921 128.329 53.8786 128.494C54.1714 128.66 54.4006 128.889 54.5661 129.182C54.738 129.475 54.824 129.806 54.824 130.175V133.507H53.9263V130.461C53.9263 130.175 53.8754 129.933 53.7735 129.736C53.6717 129.538 53.5253 129.385 53.3343 129.277C53.1497 129.163 52.9364 129.105 52.6945 129.105C52.4526 129.105 52.2361 129.163 52.0451 129.277C51.8605 129.385 51.7141 129.541 51.6059 129.745C51.4976 129.942 51.4435 130.181 51.4435 130.461V133.507H50.5555ZM57.5734 133.507V132.858L59.5406 130.729C59.9289 130.315 60.2377 129.974 60.4669 129.707C60.7024 129.439 60.8743 129.201 60.9825 128.991C61.0907 128.781 61.1448 128.558 61.1448 128.322C61.1448 127.934 61.0303 127.635 60.8011 127.425C60.5719 127.215 60.2695 127.109 59.8939 127.109C59.5119 127.109 59.1873 127.221 58.9199 127.444C58.6525 127.66 58.4679 127.969 58.366 128.37L57.5162 128.15C57.5989 127.768 57.7517 127.437 57.9745 127.157C58.1973 126.877 58.4743 126.661 58.8053 126.508C59.1363 126.355 59.4992 126.279 59.8939 126.279C60.3268 126.279 60.7056 126.365 61.0303 126.537C61.3613 126.702 61.6191 126.934 61.8037 127.234C61.9947 127.533 62.0902 127.88 62.0902 128.274C62.0902 128.535 62.0361 128.79 61.9279 129.038C61.8197 129.287 61.6605 129.551 61.4504 129.831C61.2403 130.105 60.9666 130.423 60.6292 130.786L58.8721 132.696H62.243V133.507H57.5734ZM66.2406 133.622C65.674 133.622 65.1775 133.469 64.7509 133.164C64.3308 132.852 64.0029 132.422 63.7674 131.875C63.5318 131.321 63.414 130.678 63.414 129.946C63.414 129.213 63.5318 128.574 63.7674 128.026C64.0029 127.472 64.3308 127.043 64.7509 126.737C65.1711 126.431 65.6645 126.279 66.2311 126.279C66.7976 126.279 67.291 126.431 67.7112 126.737C68.1313 127.043 68.4592 127.472 68.6948 128.026C68.9367 128.574 69.0576 129.213 69.0576 129.946C69.0576 130.678 68.9398 131.321 68.7043 131.875C68.4688 132.428 68.1377 132.858 67.7112 133.164C67.291 133.469 66.8008 133.622 66.2406 133.622ZM66.2406 132.753C66.6226 132.753 66.9536 132.638 67.2337 132.409C67.5138 132.174 67.7303 131.846 67.8831 131.426C68.0422 131.006 68.1218 130.512 68.1218 129.946C68.1218 129.379 68.0422 128.886 67.8831 128.465C67.7303 128.045 67.5107 127.721 67.2242 127.491C66.9441 127.262 66.613 127.148 66.2311 127.148C65.8491 127.148 65.5181 127.262 65.2379 127.491C64.9578 127.721 64.7382 128.045 64.579 128.465C64.4263 128.886 64.3499 129.379 64.3499 129.946C64.3499 130.506 64.4263 130.996 64.579 131.416C64.7382 131.836 64.9578 132.164 65.2379 132.4C65.5244 132.635 65.8586 132.753 66.2406 132.753ZM70.2 133.507V132.858L72.1672 130.729C72.5555 130.315 72.8642 129.974 73.0934 129.707C73.329 129.439 73.5009 129.201 73.6091 128.991C73.7173 128.781 73.7714 128.558 73.7714 128.322C73.7714 127.934 73.6568 127.635 73.4276 127.425C73.1985 127.215 72.8961 127.109 72.5205 127.109C72.1385 127.109 71.8138 127.221 71.5465 127.444C71.2791 127.66 71.0945 127.969 70.9926 128.37L70.1427 128.15C70.2255 127.768 70.3783 127.437 70.6011 127.157C70.8239 126.877 71.1008 126.661 71.4319 126.508C71.7629 126.355 72.1258 126.279 72.5205 126.279C72.9534 126.279 73.3322 126.365 73.6568 126.537C73.9879 126.702 74.2457 126.934 74.4303 127.234C74.6213 127.533 74.7168 127.88 74.7168 128.274C74.7168 128.535 74.6627 128.79 74.5545 129.038C74.4462 129.287 74.2871 129.551 74.077 129.831C73.8669 130.105 73.5932 130.423 73.2558 130.786L71.4987 132.696H74.8696V133.507H70.2ZM75.9165 133.507V132.858L77.8836 130.729C78.2719 130.315 78.5807 129.974 78.8099 129.707C79.0454 129.439 79.2173 129.201 79.3255 128.991C79.4338 128.781 79.4879 128.558 79.4879 128.322C79.4879 127.934 79.3733 127.635 79.1441 127.425C78.9149 127.215 78.6125 127.109 78.2369 127.109C77.855 127.109 77.5303 127.221 77.2629 127.444C76.9955 127.66 76.8109 127.969 76.7091 128.37L75.8592 128.15C75.9419 127.768 76.0947 127.437 76.3175 127.157C76.5404 126.877 76.8173 126.661 77.1483 126.508C77.4794 126.355 77.8422 126.279 78.2369 126.279C78.6698 126.279 79.0486 126.365 79.3733 126.537C79.7043 126.702 79.9622 126.934 80.1468 127.234C80.3378 127.533 80.4332 127.88 80.4332 128.274C80.4332 128.535 80.3791 128.79 80.2709 129.038C80.1627 129.287 80.0035 129.551 79.7935 129.831C79.5834 130.105 79.3096 130.423 78.9722 130.786L77.2152 132.696H80.586V133.507H75.9165Z" fill="#848484"/>
<line x1="26.7734" y1="112.834" x2="241.845" y2="112.834" stroke="#E3E3E3" stroke-width="0.860288"/>
</g>
<defs>
<clipPath id="clip0_163_1571">
<rect width="269.27" height="150.55" fill="white" transform="translate(0.542969 0.574097)"/>
</clipPath>
</defs>
</svg>
