<svg width="82" height="31" viewBox="0 0 82 31" fill="none" xmlns="http://www.w3.org/2000/svg">
<path d="M8.3684 19.5943L11.948 18.6872L13.4436 23.2965L8.3684 19.5943ZM16.6064 13.6365H10.3053L8.3684 7.70312L6.43149 13.6365H0.130371L5.23011 17.3142L3.29319 23.2475L8.39292 19.5698L11.5312 17.3142L16.6064 13.6365Z" fill="#219653"/>
<path d="M26.1892 9.9599V20H24.879V9.9599H26.1892ZM29.4164 9.9599V11.0494H21.6587V9.9599H29.4164ZM31.4644 13.7111V20H30.1887V12.5389H31.4299L31.4644 13.7111ZM33.7951 12.4975L33.7882 13.6836C33.6825 13.6606 33.5814 13.6468 33.4848 13.6422C33.3929 13.633 33.2872 13.6284 33.1676 13.6284C32.8734 13.6284 32.6137 13.6744 32.3884 13.7663C32.1632 13.8583 31.9724 13.987 31.8161 14.1525C31.6598 14.318 31.5357 14.5156 31.4437 14.7455C31.3564 14.9708 31.2989 15.219 31.2713 15.4902L30.9127 15.6971C30.9127 15.2466 30.9564 14.8236 31.0438 14.4283C31.1357 14.0329 31.2759 13.6836 31.4644 13.3802C31.6529 13.0721 31.8919 12.8331 32.1815 12.663C32.4758 12.4883 32.8251 12.401 33.2297 12.401C33.3216 12.401 33.4274 12.4125 33.5469 12.4354C33.6664 12.4538 33.7492 12.4745 33.7951 12.4975ZM39.5392 18.2761V12.5389H40.8218V20H39.6013L39.5392 18.2761ZM39.7806 16.7039L40.3115 16.6901C40.3115 17.1866 40.2587 17.6463 40.1529 18.0692C40.0518 18.4875 39.8863 18.8507 39.6565 19.1587C39.4266 19.4667 39.1255 19.7081 38.7531 19.8828C38.3808 20.0529 37.9279 20.1379 37.3947 20.1379C37.0315 20.1379 36.6982 20.085 36.3948 19.9793C36.096 19.8736 35.8386 19.7104 35.6225 19.4897C35.4064 19.2691 35.2386 18.9817 35.1191 18.6278C35.0042 18.2738 34.9467 17.8485 34.9467 17.3521V12.5389H36.2224V17.3659C36.2224 17.7014 36.2592 17.9796 36.3327 18.2002C36.4109 18.4163 36.5143 18.5887 36.643 18.7174C36.7764 18.8415 36.9235 18.9289 37.0844 18.9794C37.2499 19.03 37.42 19.0553 37.5947 19.0553C38.1371 19.0553 38.5669 18.9519 38.8841 18.745C39.2013 18.5335 39.4289 18.2508 39.5668 17.8968C39.7093 17.5382 39.7806 17.1406 39.7806 16.7039ZM47.1107 18.0209C47.1107 17.8371 47.0693 17.667 46.9866 17.5107C46.9084 17.3498 46.7452 17.205 46.497 17.0762C46.2533 16.9429 45.8856 16.828 45.3937 16.7315C44.9799 16.6441 44.6053 16.5407 44.2697 16.4211C43.9387 16.3016 43.6559 16.1568 43.4215 15.9867C43.1916 15.8166 43.0147 15.6166 42.8905 15.3868C42.7664 15.1569 42.7043 14.888 42.7043 14.58C42.7043 14.2858 42.7687 14.0077 42.8974 13.7456C43.0307 13.4836 43.2169 13.2514 43.456 13.0492C43.6996 12.8469 43.9915 12.6883 44.3317 12.5734C44.6719 12.4584 45.0512 12.401 45.4695 12.401C46.0671 12.401 46.5774 12.5067 47.0004 12.7182C47.4233 12.9296 47.7474 13.2124 47.9726 13.5663C48.1979 13.9157 48.3105 14.3042 48.3105 14.7317H47.0348C47.0348 14.5248 46.9728 14.3249 46.8486 14.1318C46.7291 13.9341 46.5521 13.7709 46.3177 13.6422C46.0878 13.5135 45.8051 13.4491 45.4695 13.4491C45.1155 13.4491 44.8282 13.5043 44.6076 13.6146C44.3915 13.7203 44.2329 13.856 44.1318 14.0215C44.0352 14.1869 43.9869 14.3616 43.9869 14.5455C43.9869 14.6834 44.0099 14.8076 44.0559 14.9179C44.1065 15.0236 44.1938 15.1225 44.3179 15.2144C44.4421 15.3017 44.6167 15.3845 44.842 15.4626C45.0673 15.5408 45.3546 15.6189 45.704 15.6971C46.3154 15.835 46.8188 16.0005 47.2141 16.1936C47.6095 16.3867 47.9037 16.6234 48.0968 16.9038C48.2898 17.1843 48.3864 17.5245 48.3864 17.9244C48.3864 18.2508 48.3174 18.5496 48.1795 18.8208C48.0462 19.0921 47.8508 19.3265 47.5934 19.5242C47.3405 19.7173 47.0371 19.869 46.6832 19.9793C46.3338 20.085 45.9407 20.1379 45.504 20.1379C44.8466 20.1379 44.2904 20.0207 43.8352 19.7862C43.3801 19.5518 43.0353 19.2484 42.8009 18.876C42.5664 18.5036 42.4492 18.1106 42.4492 17.6968H43.7318C43.7502 18.0462 43.8513 18.3244 44.0352 18.5312C44.2191 18.7335 44.4444 18.8783 44.711 18.9656C44.9776 19.0484 45.242 19.0898 45.504 19.0898C45.8534 19.0898 46.1453 19.0438 46.3797 18.9519C46.6188 18.8599 46.8004 18.7335 46.9245 18.5726C47.0486 18.4117 47.1107 18.2278 47.1107 18.0209ZM53.1858 12.5389V13.5181H49.1518V12.5389H53.1858ZM50.5171 10.7253H51.7928V18.152C51.7928 18.4048 51.8319 18.5956 51.9101 18.7243C51.9882 18.853 52.0894 18.9381 52.2135 18.9794C52.3376 19.0208 52.4709 19.0415 52.6134 19.0415C52.7192 19.0415 52.8295 19.0323 52.9444 19.0139C53.0639 18.9909 53.1536 18.9725 53.2134 18.9588L53.2202 20C53.1191 20.0322 52.9858 20.0621 52.8203 20.0896C52.6594 20.1218 52.464 20.1379 52.2342 20.1379C51.9216 20.1379 51.6342 20.0759 51.3722 19.9517C51.1102 19.8276 50.901 19.6207 50.7447 19.3311C50.593 19.0369 50.5171 18.6416 50.5171 18.1451V10.7253ZM55.9578 13.9732V22.8686H54.6752V12.5389H55.8475L55.9578 13.9732ZM60.9848 16.2074V16.3522C60.9848 16.8946 60.9204 17.398 60.7917 17.8623C60.663 18.3221 60.4745 18.722 60.2263 19.0622C59.9826 19.4024 59.6815 19.6667 59.3229 19.8552C58.9643 20.0437 58.5529 20.1379 58.0886 20.1379C57.6151 20.1379 57.1968 20.0598 56.8336 19.9035C56.4704 19.7472 56.1624 19.5196 55.9096 19.2208C55.6567 18.922 55.4544 18.5634 55.3027 18.1451C55.1556 17.7267 55.0545 17.2555 54.9993 16.7315V15.9591C55.0545 15.4075 55.1579 14.9133 55.3096 14.4766C55.4613 14.0398 55.6613 13.6675 55.9096 13.3595C56.1624 13.0469 56.4681 12.8101 56.8267 12.6492C57.1853 12.4837 57.599 12.401 58.0679 12.401C58.5368 12.401 58.9529 12.4929 59.316 12.6768C59.6792 12.8561 59.9849 13.1135 60.2332 13.4491C60.4814 13.7847 60.6676 14.1869 60.7917 14.6559C60.9204 15.1202 60.9848 15.6373 60.9848 16.2074ZM59.7022 16.3522V16.2074C59.7022 15.835 59.6631 15.4856 59.585 15.1592C59.5068 14.8282 59.385 14.5386 59.2195 14.2904C59.0586 14.0375 58.8517 13.8399 58.5989 13.6974C58.346 13.5502 58.0449 13.4767 57.6955 13.4767C57.3737 13.4767 57.0933 13.5319 56.8543 13.6422C56.6198 13.7525 56.4198 13.9019 56.2543 14.0904C56.0889 14.2743 55.9532 14.4858 55.8475 14.7248C55.7464 14.9593 55.6705 15.2029 55.6199 15.4558V17.2417C55.7119 17.5635 55.8406 17.8669 56.0061 18.152C56.1716 18.4324 56.3923 18.6599 56.6681 18.8346C56.9439 19.0047 57.291 19.0898 57.7093 19.0898C58.0541 19.0898 58.3506 19.0185 58.5989 18.876C58.8517 18.7289 59.0586 18.5289 59.2195 18.2761C59.385 18.0232 59.5068 17.7336 59.585 17.4072C59.6631 17.0762 59.7022 16.7246 59.7022 16.3522ZM63.9982 12.5389V20H62.7156V12.5389H63.9982ZM62.6191 10.5598C62.6191 10.353 62.6811 10.1783 62.8052 10.0358C62.934 9.89324 63.1224 9.82198 63.3707 9.82198C63.6143 9.82198 63.8005 9.89324 63.9292 10.0358C64.0625 10.1783 64.1292 10.353 64.1292 10.5598C64.1292 10.7575 64.0625 10.9276 63.9292 11.0701C63.8005 11.208 63.6143 11.277 63.3707 11.277C63.1224 11.277 62.934 11.208 62.8052 11.0701C62.6811 10.9276 62.6191 10.7575 62.6191 10.5598ZM67.4322 9.40824V20H66.1496V9.40824H67.4322ZM69.1424 16.3522V16.1936C69.1424 15.6557 69.2205 15.1569 69.3768 14.6972C69.5331 14.2329 69.7584 13.8307 70.0526 13.4905C70.3468 13.1457 70.7031 12.8791 71.1214 12.6906C71.5398 12.4975 72.0087 12.401 72.5281 12.401C73.0522 12.401 73.5234 12.4975 73.9418 12.6906C74.3647 12.8791 74.7233 13.1457 75.0175 13.4905C75.3163 13.8307 75.5438 14.2329 75.7001 14.6972C75.8565 15.1569 75.9346 15.6557 75.9346 16.1936V16.3522C75.9346 16.8901 75.8565 17.3888 75.7001 17.8485C75.5438 18.3083 75.3163 18.7105 75.0175 19.0553C74.7233 19.3955 74.367 19.6621 73.9486 19.8552C73.5349 20.0437 73.066 20.1379 72.5419 20.1379C72.0179 20.1379 71.5467 20.0437 71.1283 19.8552C70.71 19.6621 70.3514 19.3955 70.0526 19.0553C69.7584 18.7105 69.5331 18.3083 69.3768 17.8485C69.2205 17.3888 69.1424 16.8901 69.1424 16.3522ZM70.4181 16.1936V16.3522C70.4181 16.7246 70.4617 17.0762 70.5491 17.4072C70.6364 17.7336 70.7674 18.0232 70.9421 18.2761C71.1214 18.5289 71.3444 18.7289 71.611 18.876C71.8776 19.0185 72.188 19.0898 72.5419 19.0898C72.8913 19.0898 73.197 19.0185 73.4591 18.876C73.7257 18.7289 73.9463 18.5289 74.121 18.2761C74.2957 18.0232 74.4267 17.7336 74.5141 17.4072C74.606 17.0762 74.652 16.7246 74.652 16.3522V16.1936C74.652 15.8258 74.606 15.4787 74.5141 15.1523C74.4267 14.8213 74.2934 14.5294 74.1141 14.2766C73.9395 14.0192 73.7188 13.8169 73.4522 13.6698C73.1901 13.5227 72.8821 13.4491 72.5281 13.4491C72.1788 13.4491 71.8708 13.5227 71.6041 13.6698C71.3421 13.8169 71.1214 14.0192 70.9421 14.2766C70.7674 14.5294 70.6364 14.8213 70.5491 15.1523C70.4617 15.4787 70.4181 15.8258 70.4181 16.1936ZM80.6581 12.5389V13.5181H76.6242V12.5389H80.6581ZM77.9895 10.7253H79.2652V18.152C79.2652 18.4048 79.3043 18.5956 79.3824 18.7243C79.4606 18.853 79.5617 18.9381 79.6858 18.9794C79.81 19.0208 79.9433 19.0415 80.0858 19.0415C80.1915 19.0415 80.3019 19.0323 80.4168 19.0139C80.5363 18.9909 80.626 18.9725 80.6857 18.9588L80.6926 20C80.5915 20.0322 80.4582 20.0621 80.2927 20.0896C80.1318 20.1218 79.9364 20.1379 79.7065 20.1379C79.3939 20.1379 79.1066 20.0759 78.8446 19.9517C78.5825 19.8276 78.3734 19.6207 78.2171 19.3311C78.0654 19.0369 77.9895 18.6416 77.9895 18.1451V10.7253Z" fill="white"/>
</svg>
