<svg width="44" height="44" viewBox="0 0 44 44" fill="none" xmlns="http://www.w3.org/2000/svg">
<g clip-path="url(#clip0_1_1680)">
<path d="M38.4994 38.5H5.49935C5.01312 38.5 4.5468 38.3068 4.20299 37.963C3.85917 37.6192 3.66602 37.1529 3.66602 36.6667V22.8928C3.66599 22.6309 3.7221 22.3719 3.83057 22.1335C3.93904 21.895 4.09736 21.6826 4.29485 21.5105L10.9993 15.664V7.33333C10.9993 6.8471 11.1925 6.38079 11.5363 6.03697C11.8801 5.69315 12.3465 5.5 12.8327 5.5H38.4994C38.9856 5.5 39.4519 5.69315 39.7957 6.03697C40.1395 6.38079 40.3327 6.8471 40.3327 7.33333V36.6667C40.3327 37.1529 40.1395 37.6192 39.7957 37.963C39.4519 38.3068 38.9856 38.5 38.4994 38.5ZM16.4993 34.8333H21.9993V23.727L14.666 17.3323L7.33268 23.727V34.8333H12.8327V27.5H16.4993V34.8333ZM25.666 34.8333H36.666V9.16667H14.666V13.0662C15.095 13.0662 15.5258 13.2165 15.8705 13.519L25.0372 21.5105C25.2347 21.6826 25.393 21.895 25.5015 22.1335C25.6099 22.3719 25.666 22.6309 25.666 22.8928V34.8333ZM29.3327 20.1667H32.9993V23.8333H29.3327V20.1667ZM29.3327 27.5H32.9993V31.1667H29.3327V27.5ZM29.3327 12.8333H32.9993V16.5H29.3327V12.8333ZM21.9993 12.8333H25.666V16.5H21.9993V12.8333Z" fill="#C0D8D6"/>
</g>
<defs>
<clipPath id="clip0_1_1680">
<rect width="44" height="44" fill="white"/>
</clipPath>
</defs>
</svg>
