<svg width="204" height="28" viewBox="0 0 204 28" fill="none" xmlns="http://www.w3.org/2000/svg">
<path d="M54.44 23.0015H57.16V17.5015H60C61.0133 17.5015 61.9067 17.3215 62.68 16.9615C63.4533 16.5881 64.06 16.0481 64.5 15.3415C64.9533 14.6348 65.18 13.7881 65.18 12.8015C65.18 11.7881 64.96 10.9348 64.52 10.2415C64.08 9.54813 63.4667 9.02146 62.68 8.66146C61.9067 8.28813 61.0133 8.10146 60 8.10146H54.44V23.0015ZM57.16 15.1015V10.5015H60.04C60.7733 10.5015 61.36 10.7081 61.8 11.1215C62.24 11.5348 62.46 12.0948 62.46 12.8015C62.46 13.4948 62.24 14.0548 61.8 14.4815C61.36 14.8948 60.7733 15.1015 60.04 15.1015H57.16ZM67.1888 23.0015H69.8088V16.6215C69.8088 15.9148 70.0154 15.3481 70.4288 14.9215C70.8421 14.4948 71.3688 14.2815 72.0088 14.2815C72.6488 14.2815 73.1754 14.4948 73.5888 14.9215C74.0021 15.3348 74.2088 15.9015 74.2088 16.6215V23.0015H76.8288V16.0015C76.8288 15.1881 76.6554 14.4748 76.3088 13.8615C75.9621 13.2348 75.4754 12.7481 74.8488 12.4015C74.2354 12.0548 73.5288 11.8815 72.7288 11.8815C72.1021 11.8815 71.5354 11.9948 71.0288 12.2215C70.5221 12.4348 70.1154 12.7615 69.8088 13.2015V7.86146H67.1888V23.0015ZM84.3642 23.2415C85.4176 23.2415 86.3776 23.0015 87.2442 22.5215C88.1109 22.0281 88.8042 21.3548 89.3242 20.5015C89.8442 19.6348 90.1042 18.6548 90.1042 17.5615C90.1042 16.4681 89.8442 15.4948 89.3242 14.6415C88.8176 13.7881 88.1309 13.1148 87.2642 12.6215C86.3976 12.1281 85.4309 11.8815 84.3642 11.8815C83.2842 11.8815 82.3109 12.1281 81.4442 12.6215C80.5776 13.1148 79.8842 13.7881 79.3642 14.6415C78.8576 15.4948 78.6042 16.4681 78.6042 17.5615C78.6042 18.6548 78.8576 19.6281 79.3642 20.4815C79.8842 21.3348 80.5776 22.0081 81.4442 22.5015C82.3242 22.9948 83.2976 23.2415 84.3642 23.2415ZM84.3642 20.8415C83.7776 20.8415 83.2509 20.7015 82.7842 20.4215C82.3309 20.1415 81.9709 19.7548 81.7042 19.2615C81.4509 18.7548 81.3242 18.1881 81.3242 17.5615C81.3242 16.9348 81.4509 16.3748 81.7042 15.8815C81.9709 15.3881 82.3309 15.0015 82.7842 14.7215C83.2509 14.4281 83.7776 14.2815 84.3642 14.2815C84.9509 14.2815 85.4642 14.4281 85.9042 14.7215C86.3576 15.0015 86.7109 15.3881 86.9642 15.8815C87.2309 16.3748 87.3642 16.9348 87.3642 17.5615C87.3642 18.1881 87.2309 18.7548 86.9642 19.2615C86.7109 19.7548 86.3576 20.1415 85.9042 20.4215C85.4642 20.7015 84.9509 20.8415 84.3642 20.8415ZM97.2511 23.2415C98.3578 23.2415 99.3244 22.9948 100.151 22.5015C100.991 21.9948 101.578 21.3548 101.911 20.5815L99.7911 19.5415C99.5511 19.9548 99.2178 20.2948 98.7911 20.5615C98.3778 20.8148 97.8711 20.9415 97.2711 20.9415C96.4844 20.9415 95.8244 20.7015 95.2911 20.2215C94.7578 19.7415 94.4511 19.1015 94.3711 18.3015H102.211C102.264 18.1548 102.298 17.9881 102.311 17.8015C102.338 17.6015 102.351 17.4015 102.351 17.2015C102.351 16.2281 102.144 15.3415 101.731 14.5415C101.318 13.7415 100.718 13.1015 99.9311 12.6215C99.1444 12.1281 98.1844 11.8815 97.0511 11.8815C96.0378 11.8815 95.1178 12.1281 94.2911 12.6215C93.4778 13.1148 92.8311 13.7881 92.3511 14.6415C91.8844 15.4815 91.6511 16.4481 91.6511 17.5415C91.6511 18.5948 91.8844 19.5548 92.3511 20.4215C92.8178 21.2881 93.4711 21.9748 94.3111 22.4815C95.1511 22.9881 96.1311 23.2415 97.2511 23.2415ZM97.0511 14.0415C97.7444 14.0415 98.3178 14.2548 98.7711 14.6815C99.2378 15.0948 99.4978 15.6348 99.5511 16.3015H94.4311C94.5778 15.5815 94.8844 15.0281 95.3511 14.6415C95.8311 14.2415 96.3978 14.0415 97.0511 14.0415ZM104.337 23.0015H106.957V16.6215C106.957 15.9148 107.157 15.3481 107.557 14.9215C107.971 14.4948 108.504 14.2815 109.157 14.2815C109.811 14.2815 110.337 14.4948 110.737 14.9215C111.151 15.3348 111.357 15.9015 111.357 16.6215V23.0015H113.977V16.0015C113.977 15.1881 113.804 14.4748 113.457 13.8615C113.111 13.2348 112.624 12.7481 111.997 12.4015C111.384 12.0548 110.677 11.8815 109.877 11.8815C109.197 11.8815 108.584 12.0148 108.037 12.2815C107.504 12.5481 107.091 12.9415 106.797 13.4615V12.1215H104.337V23.0015ZM116.193 10.9015H118.813V8.10146H116.193V10.9015ZM116.193 23.0015H118.813V12.1215H116.193V23.0015ZM120.252 23.0015H123.332L125.612 19.6215L127.872 23.0015H130.932L127.152 17.5415L130.952 12.1215H127.892L125.612 15.5015L123.312 12.1215H120.232L124.052 17.5415L120.252 23.0015ZM143.279 23.2415C144.292 23.2415 145.199 23.0615 145.999 22.7015C146.812 22.3415 147.492 21.8815 148.039 21.3215C148.599 20.7481 148.999 20.1548 149.239 19.5415L147.739 18.8815C147.365 19.7481 146.792 20.4415 146.019 20.9615C145.259 21.4815 144.345 21.7415 143.279 21.7415C142.185 21.7415 141.212 21.4881 140.359 20.9815C139.505 20.4615 138.839 19.7348 138.359 18.8015C137.879 17.8681 137.639 16.7881 137.639 15.5615C137.639 14.3215 137.879 13.2415 138.359 12.3215C138.839 11.3881 139.505 10.6615 140.359 10.1415C141.212 9.62146 142.185 9.36146 143.279 9.36146C144.345 9.36146 145.259 9.62813 146.019 10.1615C146.792 10.6815 147.365 11.3748 147.739 12.2415L149.239 11.5815C148.999 10.9548 148.599 10.3615 148.039 9.80146C147.492 9.22813 146.812 8.76146 145.999 8.40146C145.199 8.04146 144.292 7.86146 143.279 7.86146C142.225 7.86146 141.259 8.0548 140.379 8.44146C139.499 8.8148 138.732 9.34813 138.079 10.0415C137.439 10.7348 136.939 11.5481 136.579 12.4815C136.219 13.4148 136.039 14.4415 136.039 15.5615C136.039 16.6815 136.219 17.7081 136.579 18.6415C136.939 19.5748 137.439 20.3881 138.079 21.0815C138.732 21.7615 139.499 22.2948 140.379 22.6815C141.259 23.0548 142.225 23.2415 143.279 23.2415ZM156.708 23.2415C157.708 23.2415 158.615 23.0015 159.428 22.5215C160.255 22.0415 160.915 21.3815 161.408 20.5415C161.902 19.6881 162.148 18.7148 162.148 17.6215C162.148 16.5415 161.908 15.5815 161.428 14.7415C160.962 13.9015 160.315 13.2415 159.488 12.7615C158.675 12.2815 157.748 12.0415 156.708 12.0415C155.668 12.0415 154.735 12.2881 153.908 12.7815C153.095 13.2615 152.448 13.9215 151.968 14.7615C151.488 15.6015 151.248 16.5548 151.248 17.6215C151.248 18.7015 151.488 19.6681 151.968 20.5215C152.462 21.3615 153.122 22.0281 153.948 22.5215C154.775 23.0015 155.695 23.2415 156.708 23.2415ZM156.708 21.7415C155.988 21.7415 155.335 21.5615 154.748 21.2015C154.175 20.8415 153.715 20.3481 153.368 19.7215C153.022 19.0948 152.848 18.3948 152.848 17.6215C152.848 16.8481 153.022 16.1548 153.368 15.5415C153.715 14.9281 154.175 14.4415 154.748 14.0815C155.335 13.7215 155.988 13.5415 156.708 13.5415C157.428 13.5415 158.075 13.7215 158.648 14.0815C159.235 14.4415 159.695 14.9281 160.028 15.5415C160.375 16.1548 160.548 16.8481 160.548 17.6215C160.548 18.3948 160.375 19.0948 160.028 19.7215C159.695 20.3481 159.235 20.8415 158.648 21.2015C158.075 21.5615 157.428 21.7415 156.708 21.7415ZM168.594 23.2415C169.261 23.2415 169.861 23.1015 170.394 22.8215C170.927 22.5415 171.354 22.1615 171.674 21.6815V23.0015H173.174V12.2815H171.674V18.6615C171.674 19.6215 171.407 20.3748 170.874 20.9215C170.354 21.4681 169.681 21.7415 168.854 21.7415C168.041 21.7415 167.374 21.4815 166.854 20.9615C166.334 20.4281 166.074 19.7281 166.074 18.8615V12.2815H164.574V19.0415C164.574 19.8681 164.747 20.6015 165.094 21.2415C165.454 21.8681 165.941 22.3615 166.554 22.7215C167.167 23.0681 167.847 23.2415 168.594 23.2415ZM176.259 23.0015H177.759V16.4015C177.759 15.5215 177.992 14.8415 178.459 14.3615C178.925 13.8815 179.545 13.6415 180.319 13.6415H181.259V12.1415H180.579C179.925 12.1415 179.359 12.2548 178.879 12.4815C178.412 12.7081 178.039 13.0281 177.759 13.4415V12.2815H176.259V23.0015ZM186.737 23.2415C187.483 23.2415 188.143 23.1148 188.717 22.8615C189.29 22.5948 189.737 22.2281 190.057 21.7615C190.39 21.2948 190.557 20.7681 190.557 20.1815C190.557 19.4615 190.31 18.8348 189.817 18.3015C189.337 17.7681 188.663 17.3748 187.797 17.1215L186.017 16.6015C185.83 16.5481 185.61 16.4681 185.357 16.3615C185.117 16.2548 184.903 16.0948 184.717 15.8815C184.53 15.6681 184.437 15.3815 184.437 15.0215C184.437 14.5548 184.617 14.1681 184.977 13.8615C185.337 13.5548 185.817 13.4015 186.417 13.4015C187.03 13.4015 187.583 13.5748 188.077 13.9215C188.583 14.2548 188.97 14.7215 189.237 15.3215L190.517 14.7215C190.21 13.8815 189.683 13.2281 188.937 12.7615C188.203 12.2815 187.383 12.0415 186.477 12.0415C185.81 12.0415 185.203 12.1681 184.657 12.4215C184.11 12.6748 183.677 13.0348 183.357 13.5015C183.037 13.9681 182.877 14.5148 182.877 15.1415C182.877 15.8081 183.097 16.3948 183.537 16.9015C183.977 17.4081 184.69 17.8015 185.677 18.0815L187.217 18.5215C187.43 18.5748 187.677 18.6615 187.957 18.7815C188.237 18.9015 188.483 19.0748 188.697 19.3015C188.91 19.5148 189.017 19.8081 189.017 20.1815C189.017 20.6881 188.797 21.1015 188.357 21.4215C187.917 21.7281 187.377 21.8815 186.737 21.8815C186.07 21.8815 185.457 21.6881 184.897 21.3015C184.35 20.9148 183.923 20.3948 183.617 19.7415L182.357 20.3415C182.703 21.2348 183.263 21.9415 184.037 22.4615C184.81 22.9815 185.71 23.2415 186.737 23.2415ZM198.072 23.2415C198.806 23.2415 199.472 23.1215 200.072 22.8815C200.686 22.6281 201.212 22.3015 201.652 21.9015C202.092 21.4881 202.419 21.0415 202.632 20.5615L201.352 19.8815C201.019 20.4415 200.586 20.9081 200.052 21.2815C199.519 21.6548 198.859 21.8415 198.072 21.8415C197.432 21.8415 196.832 21.6881 196.272 21.3815C195.712 21.0748 195.252 20.6481 194.892 20.1015C194.546 19.5415 194.359 18.8748 194.332 18.1015H202.772C202.799 17.9281 202.819 17.7615 202.832 17.6015C202.846 17.4281 202.852 17.2748 202.852 17.1415C202.852 16.5015 202.739 15.8815 202.512 15.2815C202.286 14.6681 201.959 14.1215 201.532 13.6415C201.106 13.1481 200.586 12.7615 199.972 12.4815C199.372 12.1881 198.686 12.0415 197.912 12.0415C196.939 12.0415 196.059 12.2815 195.272 12.7615C194.499 13.2415 193.886 13.9015 193.432 14.7415C192.979 15.5681 192.752 16.5215 192.752 17.6015C192.752 18.6815 192.986 19.6481 193.452 20.5015C193.919 21.3548 194.552 22.0281 195.352 22.5215C196.166 23.0015 197.072 23.2415 198.072 23.2415ZM197.912 13.4415C198.512 13.4415 199.059 13.5815 199.552 13.8615C200.059 14.1415 200.459 14.5281 200.752 15.0215C201.059 15.5015 201.219 16.0615 201.232 16.7015H194.372C194.452 16.0348 194.659 15.4615 194.992 14.9815C195.339 14.4881 195.766 14.1081 196.272 13.8415C196.779 13.5748 197.326 13.4415 197.912 13.4415Z" fill="#1C3533"/>
<path d="M21.9152 6.18967C22.5854 5.53351 23 4.62808 23 3.6277C23 1.62427 21.337 0 19.2859 0C17.9891 0 16.849 0.650249 16.1846 1.63395C16.0082 1.80659 1.22299 19.6057 1.08477 19.8103C0.414635 20.4665 0 21.3722 0 22.372C0 24.3757 1.66295 26 3.71412 26C5.01089 26 6.15101 25.35 6.81537 24.3661C6.99185 24.1934 21.777 6.39404 21.9152 6.18967Z" fill="#1C3533"/>
<path d="M29.9115 14.3488C30.5842 13.6755 31 12.7461 31 11.7192C31 9.66521 29.3356 8 27.2827 8C25.9843 8 24.8426 8.66719 24.1777 9.67652C23.9997 9.85489 16.2276 19.4401 16.0885 19.6512C15.4158 20.3245 15 21.2539 15 22.2806C15 24.3348 16.6644 26 18.7173 26C20.0157 26 21.1573 25.3328 21.822 24.3235C22 24.1454 29.7724 14.5599 29.9115 14.3488Z" fill="#1C3533"/>
<path d="M38 3.50001C38 5.43318 36.4329 7 34.5 7C32.5668 7 31 5.43318 31 3.50001C31 1.5671 32.5668 0 34.5 0C36.4329 0 38 1.5671 38 3.50001Z" fill="#1C3533"/>
<path d="M7 3.50001C7 5.43318 5.43291 7 3.5 7C1.56708 7 0 5.43318 0 3.50001C0 1.5671 1.56708 0 3.5 0C5.43291 0 7 1.5671 7 3.50001Z" fill="#1C3533"/>
</svg>
