<svg width="840" height="496" viewBox="0 0 840 496" fill="none" xmlns="http://www.w3.org/2000/svg">
<path opacity="0.1" d="M899.941 72.447C899.941 72.447 885.219 194.99 788.161 207.088C691.103 219.187 730.127 245.749 623.223 259.075C516.319 272.401 506.891 334.287 439.373 342.704C371.854 351.12 418.238 448.189 323.291 460.025C228.343 471.86 272.773 557.031 224.708 563.023C150.156 572.316 174.162 552.896 124.93 559.033C76.8644 565.024 11.069 608.224 11.069 608.224" stroke="#1C3533" stroke-width="5.67007"/>
<path opacity="0.1" d="M891.037 1C891.037 1 876.314 123.543 779.257 135.641C682.199 147.74 721.222 174.302 614.318 187.628C507.414 200.954 497.987 262.84 430.468 271.257C362.95 279.673 409.334 376.742 314.386 388.578C219.439 400.413 263.869 485.584 215.803 491.576C141.252 500.869 165.258 481.449 116.026 487.586C67.9601 493.577 2.16473 536.777 2.16473 536.777" stroke="#1C3533" stroke-width="5.67007"/>
</svg>
