<svg width="204" height="28" viewBox="0 0 204 28" fill="none" xmlns="http://www.w3.org/2000/svg">
<path d="M54.44 23.0015V8.10146H60C61.0133 8.10146 61.9067 8.28813 62.68 8.66146C63.4667 9.02146 64.08 9.5548 64.52 10.2615C64.96 10.9548 65.18 11.8015 65.18 12.8015C65.18 13.7881 64.9533 14.6348 64.5 15.3415C64.06 16.0348 63.4533 16.5681 62.68 16.9415C61.9067 17.3148 61.0133 17.5015 60 17.5015H57.16V23.0015H54.44ZM57.16 15.1015H60.04C60.5333 15.1015 60.96 15.0081 61.32 14.8215C61.68 14.6215 61.96 14.3481 62.16 14.0015C62.36 13.6548 62.46 13.2548 62.46 12.8015C62.46 12.3348 62.36 11.9348 62.16 11.6015C61.96 11.2548 61.68 10.9881 61.32 10.8015C60.96 10.6015 60.5333 10.5015 60.04 10.5015H57.16V15.1015ZM67.1888 23.0015V7.86146H69.8088V14.2615L69.4488 13.8815C69.7021 13.2281 70.1154 12.7348 70.6888 12.4015C71.2754 12.0548 71.9554 11.8815 72.7288 11.8815C73.5288 11.8815 74.2354 12.0548 74.8488 12.4015C75.4754 12.7481 75.9621 13.2348 76.3088 13.8615C76.6554 14.4748 76.8288 15.1881 76.8288 16.0015V23.0015H74.2088V16.6215C74.2088 16.1415 74.1154 15.7281 73.9288 15.3815C73.7421 15.0348 73.4821 14.7681 73.1488 14.5815C72.8288 14.3815 72.4488 14.2815 72.0088 14.2815C71.5821 14.2815 71.2021 14.3815 70.8688 14.5815C70.5354 14.7681 70.2754 15.0348 70.0888 15.3815C69.9021 15.7281 69.8088 16.1415 69.8088 16.6215V23.0015H67.1888ZM84.3642 23.2415C83.2976 23.2415 82.3242 22.9948 81.4442 22.5015C80.5776 22.0081 79.8842 21.3348 79.3642 20.4815C78.8576 19.6281 78.6042 18.6548 78.6042 17.5615C78.6042 16.4681 78.8576 15.4948 79.3642 14.6415C79.8842 13.7881 80.5776 13.1148 81.4442 12.6215C82.3109 12.1281 83.2842 11.8815 84.3642 11.8815C85.4309 11.8815 86.3976 12.1281 87.2642 12.6215C88.1309 13.1148 88.8176 13.7881 89.3242 14.6415C89.8442 15.4815 90.1042 16.4548 90.1042 17.5615C90.1042 18.6548 89.8442 19.6281 89.3242 20.4815C88.8042 21.3348 88.1109 22.0081 87.2442 22.5015C86.3776 22.9948 85.4176 23.2415 84.3642 23.2415ZM84.3642 20.8415C84.9509 20.8415 85.4642 20.7015 85.9042 20.4215C86.3576 20.1415 86.7109 19.7548 86.9642 19.2615C87.2309 18.7548 87.3642 18.1881 87.3642 17.5615C87.3642 16.9215 87.2309 16.3615 86.9642 15.8815C86.7109 15.3881 86.3576 15.0015 85.9042 14.7215C85.4642 14.4281 84.9509 14.2815 84.3642 14.2815C83.7642 14.2815 83.2376 14.4281 82.7842 14.7215C82.3309 15.0015 81.9709 15.3881 81.7042 15.8815C81.4509 16.3615 81.3242 16.9215 81.3242 17.5615C81.3242 18.1881 81.4509 18.7548 81.7042 19.2615C81.9709 19.7548 82.3309 20.1415 82.7842 20.4215C83.2376 20.7015 83.7642 20.8415 84.3642 20.8415ZM97.2511 23.2415C96.1311 23.2415 95.1511 22.9881 94.3111 22.4815C93.4711 21.9748 92.8178 21.2881 92.3511 20.4215C91.8844 19.5548 91.6511 18.5948 91.6511 17.5415C91.6511 16.4481 91.8844 15.4815 92.3511 14.6415C92.8311 13.7881 93.4778 13.1148 94.2911 12.6215C95.1178 12.1281 96.0378 11.8815 97.0511 11.8815C97.9044 11.8815 98.6511 12.0215 99.2911 12.3015C99.9444 12.5815 100.498 12.9681 100.951 13.4615C101.404 13.9548 101.751 14.5215 101.991 15.1615C102.231 15.7881 102.351 16.4681 102.351 17.2015C102.351 17.3881 102.338 17.5815 102.311 17.7815C102.298 17.9815 102.264 18.1548 102.211 18.3015H93.8111V16.3015H100.731L99.4911 17.2415C99.6111 16.6281 99.5778 16.0815 99.3911 15.6015C99.2178 15.1215 98.9244 14.7415 98.5111 14.4615C98.1111 14.1815 97.6244 14.0415 97.0511 14.0415C96.5044 14.0415 96.0178 14.1815 95.5911 14.4615C95.1644 14.7281 94.8378 15.1281 94.6111 15.6615C94.3978 16.1815 94.3178 16.8148 94.3711 17.5615C94.3178 18.2281 94.4044 18.8215 94.6311 19.3415C94.8711 19.8481 95.2178 20.2415 95.6711 20.5215C96.1378 20.8015 96.6711 20.9415 97.2711 20.9415C97.8711 20.9415 98.3778 20.8148 98.7911 20.5615C99.2178 20.3081 99.5511 19.9681 99.7911 19.5415L101.911 20.5815C101.698 21.1015 101.364 21.5615 100.911 21.9615C100.458 22.3615 99.9178 22.6748 99.2911 22.9015C98.6778 23.1281 97.9978 23.2415 97.2511 23.2415ZM104.337 23.0015V12.1215H106.797V14.2615L106.597 13.8815C106.851 13.2281 107.264 12.7348 107.837 12.4015C108.424 12.0548 109.104 11.8815 109.877 11.8815C110.677 11.8815 111.384 12.0548 111.997 12.4015C112.624 12.7481 113.111 13.2348 113.457 13.8615C113.804 14.4748 113.977 15.1881 113.977 16.0015V23.0015H111.357V16.6215C111.357 16.1415 111.264 15.7281 111.077 15.3815C110.891 15.0348 110.631 14.7681 110.297 14.5815C109.977 14.3815 109.597 14.2815 109.157 14.2815C108.731 14.2815 108.351 14.3815 108.017 14.5815C107.684 14.7681 107.424 15.0348 107.237 15.3815C107.051 15.7281 106.957 16.1415 106.957 16.6215V23.0015H104.337ZM116.193 23.0015V12.1215H118.813V23.0015H116.193ZM116.193 10.9015V8.10146H118.813V10.9015H116.193ZM120.252 23.0015L124.052 17.5415L120.232 12.1215H123.312L126.292 16.5215H124.912L127.892 12.1215H130.952L127.152 17.5415L130.932 23.0015H127.872L124.932 18.6215H126.272L123.332 23.0015H120.252ZM143.279 23.2415C142.225 23.2415 141.259 23.0548 140.379 22.6815C139.499 22.2948 138.732 21.7615 138.079 21.0815C137.439 20.3881 136.939 19.5748 136.579 18.6415C136.219 17.7081 136.039 16.6815 136.039 15.5615C136.039 14.4415 136.219 13.4148 136.579 12.4815C136.939 11.5481 137.439 10.7348 138.079 10.0415C138.732 9.34813 139.499 8.8148 140.379 8.44146C141.259 8.0548 142.225 7.86146 143.279 7.86146C144.292 7.86146 145.199 8.04146 145.999 8.40146C146.812 8.76146 147.492 9.22813 148.039 9.80146C148.599 10.3615 148.999 10.9548 149.239 11.5815L147.739 12.2415C147.365 11.3748 146.792 10.6815 146.019 10.1615C145.259 9.62813 144.345 9.36146 143.279 9.36146C142.185 9.36146 141.212 9.62146 140.359 10.1415C139.505 10.6615 138.839 11.3881 138.359 12.3215C137.879 13.2415 137.639 14.3215 137.639 15.5615C137.639 16.7881 137.879 17.8681 138.359 18.8015C138.839 19.7348 139.505 20.4615 140.359 20.9815C141.212 21.4881 142.185 21.7415 143.279 21.7415C144.345 21.7415 145.259 21.4815 146.019 20.9615C146.792 20.4415 147.365 19.7481 147.739 18.8815L149.239 19.5415C148.999 20.1548 148.599 20.7481 148.039 21.3215C147.492 21.8815 146.812 22.3415 145.999 22.7015C145.199 23.0615 144.292 23.2415 143.279 23.2415ZM156.708 23.2415C155.695 23.2415 154.775 23.0015 153.948 22.5215C153.122 22.0281 152.462 21.3615 151.968 20.5215C151.488 19.6681 151.248 18.7015 151.248 17.6215C151.248 16.5548 151.488 15.6015 151.968 14.7615C152.448 13.9215 153.095 13.2615 153.908 12.7815C154.735 12.2881 155.668 12.0415 156.708 12.0415C157.748 12.0415 158.675 12.2815 159.488 12.7615C160.315 13.2415 160.962 13.9015 161.428 14.7415C161.908 15.5815 162.148 16.5415 162.148 17.6215C162.148 18.7148 161.902 19.6881 161.408 20.5415C160.915 21.3815 160.255 22.0415 159.428 22.5215C158.615 23.0015 157.708 23.2415 156.708 23.2415ZM156.708 21.7415C157.428 21.7415 158.075 21.5615 158.648 21.2015C159.235 20.8415 159.695 20.3481 160.028 19.7215C160.375 19.0948 160.548 18.3948 160.548 17.6215C160.548 16.8481 160.375 16.1548 160.028 15.5415C159.695 14.9281 159.235 14.4415 158.648 14.0815C158.075 13.7215 157.428 13.5415 156.708 13.5415C155.988 13.5415 155.335 13.7215 154.748 14.0815C154.175 14.4415 153.715 14.9281 153.368 15.5415C153.022 16.1548 152.848 16.8481 152.848 17.6215C152.848 18.3948 153.022 19.0948 153.368 19.7215C153.715 20.3481 154.175 20.8415 154.748 21.2015C155.335 21.5615 155.988 21.7415 156.708 21.7415ZM168.594 23.2415C167.847 23.2415 167.167 23.0681 166.554 22.7215C165.941 22.3615 165.454 21.8681 165.094 21.2415C164.747 20.6015 164.574 19.8681 164.574 19.0415V12.2815H166.074V18.8615C166.074 19.4348 166.187 19.9415 166.414 20.3815C166.654 20.8081 166.981 21.1415 167.394 21.3815C167.821 21.6215 168.307 21.7415 168.854 21.7415C169.401 21.7415 169.887 21.6215 170.314 21.3815C170.741 21.1281 171.074 20.7748 171.314 20.3215C171.554 19.8548 171.674 19.3015 171.674 18.6615V12.2815H173.174V23.0015H171.674V20.9215L172.014 21.0015C171.761 21.6948 171.327 22.2415 170.714 22.6415C170.101 23.0415 169.394 23.2415 168.594 23.2415ZM176.259 23.0015V12.2815H177.759V14.0415L177.559 13.7815C177.812 13.2748 178.192 12.8748 178.699 12.5815C179.219 12.2881 179.845 12.1415 180.579 12.1415H181.259V13.6415H180.319C179.545 13.6415 178.925 13.8815 178.459 14.3615C177.992 14.8415 177.759 15.5215 177.759 16.4015V23.0015H176.259ZM186.737 23.2415C185.71 23.2415 184.81 22.9815 184.037 22.4615C183.263 21.9415 182.703 21.2348 182.357 20.3415L183.617 19.7415C183.923 20.3948 184.35 20.9148 184.897 21.3015C185.457 21.6881 186.07 21.8815 186.737 21.8815C187.377 21.8815 187.917 21.7281 188.357 21.4215C188.797 21.1015 189.017 20.6881 189.017 20.1815C189.017 19.8081 188.91 19.5148 188.697 19.3015C188.483 19.0748 188.237 18.9015 187.957 18.7815C187.677 18.6615 187.43 18.5748 187.217 18.5215L185.677 18.0815C184.69 17.8015 183.977 17.4081 183.537 16.9015C183.097 16.3948 182.877 15.8081 182.877 15.1415C182.877 14.5148 183.037 13.9681 183.357 13.5015C183.677 13.0348 184.11 12.6748 184.657 12.4215C185.203 12.1681 185.81 12.0415 186.477 12.0415C187.383 12.0415 188.203 12.2815 188.937 12.7615C189.683 13.2281 190.21 13.8815 190.517 14.7215L189.237 15.3215C188.97 14.7215 188.583 14.2548 188.077 13.9215C187.583 13.5748 187.03 13.4015 186.417 13.4015C185.817 13.4015 185.337 13.5548 184.977 13.8615C184.617 14.1681 184.437 14.5548 184.437 15.0215C184.437 15.3815 184.53 15.6681 184.717 15.8815C184.903 16.0948 185.117 16.2548 185.357 16.3615C185.61 16.4681 185.83 16.5481 186.017 16.6015L187.797 17.1215C188.663 17.3748 189.337 17.7681 189.817 18.3015C190.31 18.8348 190.557 19.4615 190.557 20.1815C190.557 20.7681 190.39 21.2948 190.057 21.7615C189.737 22.2281 189.29 22.5948 188.717 22.8615C188.143 23.1148 187.483 23.2415 186.737 23.2415ZM198.072 23.2415C197.072 23.2415 196.166 23.0015 195.352 22.5215C194.552 22.0281 193.919 21.3548 193.452 20.5015C192.986 19.6481 192.752 18.6815 192.752 17.6015C192.752 16.5215 192.979 15.5681 193.432 14.7415C193.886 13.9015 194.499 13.2415 195.272 12.7615C196.059 12.2815 196.939 12.0415 197.912 12.0415C198.686 12.0415 199.372 12.1881 199.972 12.4815C200.586 12.7615 201.106 13.1481 201.532 13.6415C201.959 14.1215 202.286 14.6681 202.512 15.2815C202.739 15.8815 202.852 16.5015 202.852 17.1415C202.852 17.2748 202.846 17.4281 202.832 17.6015C202.819 17.7615 202.799 17.9281 202.772 18.1015H193.712V16.7015H201.912L201.192 17.3015C201.312 16.5681 201.226 15.9148 200.932 15.3415C200.652 14.7548 200.246 14.2948 199.712 13.9615C199.179 13.6148 198.579 13.4415 197.912 13.4415C197.246 13.4415 196.626 13.6148 196.052 13.9615C195.492 14.3081 195.052 14.7948 194.732 15.4215C194.412 16.0348 194.286 16.7681 194.352 17.6215C194.286 18.4748 194.419 19.2215 194.752 19.8615C195.099 20.4881 195.566 20.9748 196.152 21.3215C196.752 21.6681 197.392 21.8415 198.072 21.8415C198.859 21.8415 199.519 21.6548 200.052 21.2815C200.586 20.9081 201.019 20.4415 201.352 19.8815L202.632 20.5615C202.419 21.0415 202.092 21.4881 201.652 21.9015C201.212 22.3015 200.686 22.6281 200.072 22.8815C199.472 23.1215 198.806 23.2415 198.072 23.2415Z" fill="#1C3533"/>
<path d="M21.9152 6.18967C22.5854 5.53351 23 4.62808 23 3.6277C23 1.62427 21.337 3.0333e-07 19.2859 3.0333e-07C17.9891 3.0333e-07 16.849 0.650249 16.1846 1.63395C16.0082 1.80659 1.22299 19.6057 1.08477 19.8103C0.414635 20.4665 0 21.3722 0 22.372C0 24.3757 1.66295 26 3.71412 26C5.01089 26 6.15101 25.35 6.81537 24.3661C6.99185 24.1934 21.777 6.39404 21.9152 6.18967Z" fill="#1C3533"/>
<path d="M29.9115 14.3488C30.5842 13.6755 31 12.7461 31 11.7192C31 9.66521 29.3356 8 27.2827 8C25.9843 8 24.8426 8.66719 24.1777 9.67652C23.9997 9.85489 16.2276 19.4401 16.0885 19.6512C15.4158 20.3245 15 21.2539 15 22.2806C15 24.3348 16.6644 26 18.7173 26C20.0157 26 21.1573 25.3328 21.822 24.3235C22 24.1454 29.7724 14.5599 29.9115 14.3488Z" fill="#1C3533"/>
<path d="M38 3.50001C38 5.43318 36.4329 7 34.5 7C32.5668 7 31 5.43318 31 3.50001C31 1.5671 32.5668 1.46751e-07 34.5 1.46751e-07C36.4329 1.46751e-07 38 1.5671 38 3.50001Z" fill="#1C3533"/>
<path d="M7 3.50001C7 5.43318 5.43291 7 3.5 7C1.56708 7 0 5.43318 0 3.50001C0 1.5671 1.56708 1.46751e-07 3.5 1.46751e-07C5.43291 1.46751e-07 7 1.5671 7 3.50001Z" fill="#1C3533"/>
</svg>
