<svg width="24" height="25" viewBox="0 0 24 25" fill="none" xmlns="http://www.w3.org/2000/svg">
<path d="M7.25301 18.4955L7.97701 18.9185C9.19795 19.6305 10.5866 20.0044 12 20.0015C13.5823 20.0015 15.129 19.5323 16.4446 18.6532C17.7602 17.7742 18.7855 16.5247 19.3911 15.0629C19.9966 13.6011 20.155 11.9926 19.8463 10.4407C19.5376 8.88889 18.7757 7.46343 17.6569 6.34461C16.538 5.22579 15.1126 4.46386 13.5607 4.15518C12.0089 3.8465 10.4004 4.00493 8.93855 4.61043C7.47674 5.21593 6.22731 6.24131 5.34826 7.5569C4.46921 8.8725 4.00001 10.4192 4.00001 12.0015C4.00001 13.4375 4.37701 14.8145 5.08401 16.0255L5.50601 16.7495L4.85301 19.1505L7.25301 18.4955ZM2.00401 22.0015L3.35601 17.0335C2.46515 15.5063 1.99711 13.7695 2.00001 12.0015C2.00001 6.47847 6.47701 2.00146 12 2.00146C17.523 2.00146 22 6.47847 22 12.0015C22 17.5245 17.523 22.0015 12 22.0015C10.2328 22.0043 8.49667 21.5366 6.97001 20.6465L2.00401 22.0015ZM8.39101 7.30946C8.52501 7.29946 8.66001 7.29946 8.79401 7.30546C8.84801 7.30946 8.90201 7.31546 8.95601 7.32147C9.11501 7.33947 9.29001 7.43646 9.34901 7.57046C9.64701 8.24646 9.93701 8.92746 10.217 9.61047C10.279 9.76247 10.242 9.95746 10.124 10.1475C10.0429 10.2759 9.95507 10.4001 9.86101 10.5195C9.74801 10.6645 9.50501 10.9305 9.50501 10.9305C9.50501 10.9305 9.40601 11.0485 9.44401 11.1955C9.45801 11.2515 9.50401 11.3325 9.54601 11.4005L9.60501 11.4955C9.86101 11.9225 10.205 12.3555 10.625 12.7635C10.745 12.8795 10.862 12.9985 10.988 13.1095C11.456 13.5225 11.986 13.8595 12.558 14.1095L12.563 14.1115C12.648 14.1485 12.691 14.1685 12.815 14.2215C12.877 14.2475 12.941 14.2705 13.006 14.2875C13.0732 14.3046 13.1439 14.3013 13.2093 14.2782C13.2746 14.2551 13.3316 14.213 13.373 14.1575C14.097 13.2805 14.163 13.2235 14.169 13.2235V13.2255C14.2193 13.1786 14.2791 13.1429 14.3443 13.121C14.4095 13.0991 14.4786 13.0914 14.547 13.0985C14.607 13.1025 14.668 13.1135 14.724 13.1385C15.255 13.3815 16.124 13.7605 16.124 13.7605L16.706 14.0215C16.804 14.0685 16.893 14.1795 16.896 14.2865C16.9 14.3535 16.906 14.4615 16.883 14.6595C16.851 14.9185 16.773 15.2295 16.695 15.3925C16.6416 15.5037 16.5707 15.6057 16.485 15.6945C16.3841 15.8004 16.2736 15.8968 16.155 15.9825C16.114 16.0133 16.0723 16.0433 16.03 16.0725C15.9056 16.1514 15.7778 16.2248 15.647 16.2925C15.3895 16.4292 15.1052 16.5077 14.814 16.5225C14.629 16.5325 14.444 16.5465 14.258 16.5365C14.25 16.5365 13.69 16.4495 13.69 16.4495C12.2683 16.0755 10.9534 15.3749 9.85001 14.4035C9.62401 14.2045 9.41501 13.9905 9.20101 13.7775C8.31101 12.8925 7.63901 11.9375 7.23101 11.0355C7.02218 10.5928 6.90938 10.1109 6.90001 9.62146C6.89589 9.01432 7.09436 8.42313 7.46401 7.94146C7.53701 7.84747 7.60601 7.74946 7.72501 7.63647C7.85201 7.51647 7.93201 7.45247 8.01901 7.40846C8.13469 7.3505 8.26088 7.31648 8.39001 7.30847L8.39101 7.30946Z" fill="#1C3533"/>
</svg>
