<svg width="705" height="434" viewBox="0 0 705 434" fill="none" xmlns="http://www.w3.org/2000/svg">
<path opacity="0.1" d="M3 9C3 9 32.7679 128.78 130.577 128.78C228.385 128.78 192.947 159.966 300.679 159.966C408.41 159.966 425.42 220.21 493.461 220.21C561.502 220.21 527.482 322.272 623.164 322.272C718.847 322.272 685.293 412.284 733.731 412.284C808.859 412.284 782.635 395.982 832.248 395.982C880.686 395.982 951.32 430.712 951.32 430.712" stroke="white" stroke-width="5.67007"/>
<path opacity="0.1" d="M3 -63C3 -63 32.7679 56.7803 130.577 56.7803C228.385 56.7803 192.947 87.9657 300.679 87.9657C408.41 87.9657 425.42 148.21 493.461 148.21C561.502 148.21 527.482 250.272 623.164 250.272C718.847 250.272 685.293 340.284 733.731 340.284C808.859 340.284 782.635 323.982 832.248 323.982C880.686 323.982 951.32 358.712 951.32 358.712" stroke="white" stroke-width="5.67007"/>
</svg>
