<svg width="24" height="25" viewBox="0 0 24 25" fill="none" xmlns="http://www.w3.org/2000/svg">
<path d="M14 19.0015H19V5.00146H5V19.0015H12V14.0015H10V12.0015H12V10.3475C12 9.01046 12.14 8.52546 12.4 8.03646C12.6561 7.55265 13.052 7.15715 13.536 6.90146C13.918 6.69647 14.393 6.57346 15.223 6.52046C15.552 6.49946 15.978 6.52546 16.501 6.60046V8.50046H16C15.083 8.50046 14.704 8.54347 14.478 8.66446C14.3431 8.73382 14.2334 8.84361 14.164 8.97847C14.044 9.20446 14 9.42846 14 10.3465V12.0015H16.5L16 14.0015H14V19.0015ZM4 3.00146H20C20.2652 3.00146 20.5196 3.10682 20.7071 3.29436C20.8946 3.48189 21 3.73625 21 4.00146V20.0015C21 20.2667 20.8946 20.521 20.7071 20.7086C20.5196 20.8961 20.2652 21.0015 20 21.0015H4C3.73478 21.0015 3.48043 20.8961 3.29289 20.7086C3.10536 20.521 3 20.2667 3 20.0015V4.00146C3 3.73625 3.10536 3.48189 3.29289 3.29436C3.48043 3.10682 3.73478 3.00146 4 3.00146Z" fill="#1C3533"/>
</svg>
