<svg width="44" height="44" viewBox="0 0 44 44" fill="none" xmlns="http://www.w3.org/2000/svg">
<g clip-path="url(#clip0_1_1701)">
<path d="M17.171 19.5839C18.8913 22.6061 21.3941 25.109 24.4163 26.8292L26.037 24.5596C26.2976 24.1946 26.683 23.9379 27.1201 23.8379C27.5573 23.7379 28.016 23.8016 28.4093 24.0169C31.0023 25.4339 33.8657 26.2862 36.8115 26.5176C37.2713 26.554 37.7004 26.7624 38.0133 27.1012C38.3263 27.4399 38.5001 27.8842 38.5 28.3454V36.5257C38.5001 36.9797 38.3318 37.4175 38.0277 37.7545C37.7235 38.0914 37.3052 38.3036 36.8537 38.3499C35.882 38.4507 34.903 38.5002 33.9167 38.5002C18.2233 38.5002 5.5 25.7769 5.5 10.0836C5.5 9.09724 5.5495 8.11824 5.65033 7.14658C5.69663 6.69502 5.9088 6.2767 6.24578 5.97257C6.58276 5.66845 7.02058 5.50015 7.4745 5.50024H15.6548C16.116 5.50019 16.5603 5.67396 16.8991 5.9869C17.2379 6.29985 17.4462 6.72899 17.4827 7.18874C17.7141 10.1345 18.5663 12.998 19.9833 15.5909C20.1987 15.9843 20.2624 16.4429 20.1624 16.8801C20.0624 17.3173 19.8056 17.7026 19.4407 17.9632L17.171 19.5839ZM12.5473 18.3794L16.0307 15.8916C15.0421 13.7577 14.3648 11.4931 14.0195 9.16691H9.185C9.174 9.47124 9.1685 9.77741 9.1685 10.0836C9.16667 23.7529 20.2473 34.8336 33.9167 34.8336C34.2228 34.8336 34.529 34.8281 34.8333 34.8152V29.9807C32.5071 29.6354 30.2425 28.9581 28.1087 27.9696L25.6208 31.4529C24.6192 31.0637 23.6463 30.6042 22.7095 30.0779L22.6032 30.0174C19.0072 27.9709 16.0293 24.993 13.9828 21.3971L13.9223 21.2907C13.396 20.3539 12.9365 19.381 12.5473 18.3794Z" fill="#C0D8D6"/>
</g>
<defs>
<clipPath id="clip0_1_1701">
<rect width="44" height="44" fill="white" transform="translate(0 0.000244141)"/>
</clipPath>
</defs>
</svg>
