<svg width="30" height="30" viewBox="0 0 30 30" fill="none" xmlns="http://www.w3.org/2000/svg">
<g clip-path="url(#clip0_1_725)">
<path d="M3.75 4.99125C3.75 4.30625 4.30625 3.75 4.99125 3.75H25.0088C25.6938 3.75 26.25 4.30625 26.25 4.99125V25.0088C26.2497 25.3378 26.1188 25.6534 25.8861 25.8861C25.6534 26.1188 25.3378 26.2497 25.0088 26.25H4.99125C4.66215 26.2497 4.34663 26.1188 4.11392 25.8861C3.88121 25.6534 3.75033 25.3378 3.75 25.0088V4.99125ZM6.25 6.25V23.75H23.75V6.25H6.25ZM13.2775 10.5188L19.3763 14.5837C19.4448 14.6294 19.5011 14.6913 19.54 14.7639C19.5789 14.8365 19.5992 14.9176 19.5992 15C19.5992 15.0824 19.5789 15.1635 19.54 15.2361C19.5011 15.3087 19.4448 15.3706 19.3763 15.4163L13.2763 19.4812C13.201 19.5311 13.1137 19.5597 13.0236 19.5639C12.9335 19.5682 12.8438 19.548 12.7643 19.5054C12.6847 19.4629 12.6181 19.3996 12.5716 19.3223C12.525 19.245 12.5003 19.1565 12.5 19.0662V10.9337C12.5002 10.8433 12.5249 10.7546 12.5714 10.6771C12.618 10.5996 12.6848 10.5362 12.7646 10.4936C12.8443 10.451 12.9342 10.4308 13.0245 10.4353C13.1148 10.4397 13.2023 10.4686 13.2775 10.5188Z" fill="#1C3533"/>
</g>
<defs>
<clipPath id="clip0_1_725">
<rect width="30" height="30" fill="white"/>
</clipPath>
</defs>
</svg>
