<svg width="72" height="54" viewBox="0 0 72 54" fill="none" xmlns="http://www.w3.org/2000/svg">
<path d="M41.5236 12.8172C42.7933 11.4671 43.5789 9.60395 43.5789 7.54549C43.5789 3.42302 40.4281 0.0807648 36.5417 0.0807648C34.0846 0.0807648 31.9244 1.41878 30.6656 3.44294C30.3312 3.79819 2.31724 40.4234 2.05536 40.8445C0.785624 42.1946 0 44.0583 0 46.1157C0 50.2387 3.15086 53.5809 7.03727 53.5809C9.49432 53.5809 11.6545 52.2435 12.9133 50.2188C13.2477 49.8635 41.2617 13.2378 41.5236 12.8172Z" fill="#1C3533"/>
<path d="M56.6753 29.6062C57.9498 28.2208 58.7377 26.3085 58.7377 24.1953C58.7377 19.9689 55.5841 16.5424 51.6944 16.5424C49.2342 16.5424 47.0711 17.9152 45.8113 19.9921C45.474 20.3592 30.7479 40.0825 30.4842 40.5171C29.2097 41.9025 28.4219 43.8148 28.4219 45.9275C28.4219 50.1544 31.5754 53.5809 35.4651 53.5809C37.9253 53.5809 40.0884 52.2081 41.3477 50.1312C41.685 49.7647 56.4117 30.0407 56.6753 29.6062Z" fill="#1C3533"/>
<path d="M71.9995 7.28281C71.9995 11.2607 69.0303 14.4847 65.3679 14.4847C61.7051 14.4847 58.7363 11.2607 58.7363 7.28281C58.7363 3.30546 61.7051 0.0808496 65.3679 0.0808496C69.0303 0.0808496 71.9995 3.30546 71.9995 7.28281Z" fill="#1C3533"/>
<path d="M13.2632 7.28281C13.2632 11.2607 10.2939 14.4847 6.63157 14.4847C2.96921 14.4847 0 11.2607 0 7.28281C0 3.30546 2.96921 0.0808496 6.63157 0.0808496C10.2939 0.0808496 13.2632 3.30546 13.2632 7.28281Z" fill="#1C3533"/>
</svg>
