<svg width="24" height="25" viewBox="0 0 24 25" fill="none" xmlns="http://www.w3.org/2000/svg">
<path d="M7.764 19.2265C8.354 18.9665 9.014 18.9175 9.632 19.0875C10.402 19.2975 11.197 19.4035 12 19.4015C16.585 19.4015 20 16.1145 20 11.7015C20 7.28846 16.585 4.00146 12 4.00146C7.415 4.00146 4 7.28846 4 11.7015C4 13.9715 4.896 15.9735 6.466 17.3775C6.75126 17.6301 6.98194 17.9384 7.14391 18.2833C7.30589 18.6282 7.39575 19.0026 7.408 19.3835L7.764 19.2265ZM12 2.00146C17.634 2.00146 22 6.12846 22 11.7015C22 17.2745 17.634 21.4015 12 21.4015C11.0221 21.404 10.0484 21.2748 9.105 21.0175C8.9278 20.9687 8.73924 20.9825 8.571 21.0565L6.587 21.9325C6.46713 21.9854 6.33608 22.0082 6.20537 21.9986C6.07467 21.9891 5.94831 21.9476 5.8374 21.8777C5.72649 21.8079 5.63444 21.7119 5.56933 21.5982C5.50422 21.4844 5.46805 21.3565 5.464 21.2255L5.409 19.4455C5.4054 19.3372 5.37977 19.2309 5.3337 19.1329C5.28762 19.0349 5.22205 18.9473 5.141 18.8755C3.195 17.1365 2 14.6185 2 11.7015C2 6.12846 6.367 2.00146 12 2.00146ZM5.995 14.5385L8.932 9.87846C9.0425 9.70302 9.18818 9.55239 9.35984 9.43608C9.53149 9.31978 9.7254 9.24032 9.92931 9.20273C10.1332 9.16515 10.3427 9.17024 10.5445 9.2177C10.7464 9.26516 10.9362 9.35395 11.102 9.47847L13.438 11.2285C13.5421 11.3071 13.669 11.3496 13.7995 11.3496C13.93 11.3496 14.0569 11.3071 14.161 11.2285L17.316 8.83247C17.737 8.51346 18.287 9.01746 18.005 9.46546L15.068 14.1255C14.9575 14.3009 14.8118 14.4515 14.6402 14.5678C14.4685 14.6842 14.2746 14.7636 14.0707 14.8012C13.8668 14.8388 13.6573 14.8337 13.4555 14.7862C13.2536 14.7388 13.0638 14.65 12.898 14.5255L10.562 12.7755C10.4579 12.6969 10.331 12.6543 10.2005 12.6543C10.07 12.6543 9.94313 12.6969 9.839 12.7755L6.684 15.1705C6.263 15.4895 5.713 14.9855 5.995 14.5375V14.5385Z" fill="#1C3533"/>
</svg>
