<svg width="34" height="34" viewBox="0 0 34 34" fill="none" xmlns="http://www.w3.org/2000/svg">
<g clip-path="url(#clip0_115_1579)">
<path d="M22.666 5.66663C23.448 5.66663 24.0827 6.30129 24.0827 7.08329V13.0333L31.4678 7.86246C31.7879 7.63863 32.2299 7.71654 32.4552 8.03813C32.5373 8.15713 32.5827 8.29879 32.5827 8.44329V25.5566C32.5827 25.9476 32.2653 26.265 31.8743 26.265C31.7284 26.265 31.5868 26.2196 31.4678 26.1375L24.0827 20.9666V26.9166C24.0827 27.6986 23.448 28.3333 22.666 28.3333H2.83268C2.05068 28.3333 1.41602 27.6986 1.41602 26.9166V7.08329C1.41602 6.30129 2.05068 5.66663 2.83268 5.66663H22.666ZM21.2493 8.49996H4.24935V25.5H21.2493V8.49996ZM12.7493 11.3333L18.416 17H14.166V22.6666H11.3327V17H7.08268L12.7493 11.3333ZM29.7493 12.5247L24.0827 16.4914V17.5085L29.7493 21.4752V12.5233V12.5247Z" fill="#1C3533"/>
</g>
<defs>
<clipPath id="clip0_115_1579">
<rect width="34" height="34" fill="white"/>
</clipPath>
</defs>
</svg>
