<svg width="465" height="272" viewBox="0 0 465 272" fill="none" xmlns="http://www.w3.org/2000/svg">
<g clip-path="url(#clip0_118_1790)">
<path d="M-469.6 -164C-469.6 -164 -443.653 -43.3343 -345.893 -40.2265C-248.134 -37.1187 -284.545 -7.07507 -176.868 -3.65196C-69.191 -0.228856 -54.1036 60.5257 13.903 62.6877C81.9095 64.8497 44.6633 165.778 140.297 168.819C235.932 171.859 199.535 260.76 247.948 262.299C323.038 264.686 297.346 247.56 346.934 249.136C395.347 250.675 464.842 287.631 464.842 287.631" stroke="white" stroke-width="5.67007"/>
<path d="M-409.221 -262C-409.221 -262 -399.683 -138.945 -303.223 -122.761C-206.762 -106.577 -246.872 -81.685 -140.625 -63.8589C-34.3791 -46.0328 -27.5719 16.1959 39.531 27.4546C106.634 38.7132 56.1946 133.738 150.558 149.571C244.922 165.403 196.936 248.623 244.706 256.638C318.799 269.069 295.634 248.653 344.563 256.862C392.333 264.877 456.246 310.815 456.246 310.815" stroke="white" stroke-width="5.67007"/>
</g>
<defs>
<clipPath id="clip0_118_1790">
<rect width="465" height="272" fill="white"/>
</clipPath>
</defs>
</svg>
