<svg width="156" height="22" viewBox="0 0 156 22" fill="none" xmlns="http://www.w3.org/2000/svg">
<path d="M35.5387 18.368H37.7147V13.968H39.9867C40.7974 13.968 41.5121 13.824 42.1307 13.536C42.7494 13.2374 43.2347 12.8054 43.5867 12.24C43.9494 11.6747 44.1307 10.9974 44.1307 10.208C44.1307 9.39737 43.9547 8.71471 43.6027 8.16004C43.2507 7.60537 42.7601 7.18404 42.1307 6.89604C41.5121 6.59737 40.7974 6.44804 39.9867 6.44804H35.5387V18.368ZM37.7147 12.048V8.36804H40.0187C40.6054 8.36804 41.0747 8.53338 41.4267 8.86404C41.7787 9.19471 41.9547 9.64271 41.9547 10.208C41.9547 10.7627 41.7787 11.2107 41.4267 11.552C41.0747 11.8827 40.6054 12.048 40.0187 12.048H37.7147ZM45.7377 18.368H47.8337V13.264C47.8337 12.6987 47.9991 12.2454 48.3297 11.904C48.6604 11.5627 49.0817 11.392 49.5937 11.392C50.1057 11.392 50.5271 11.5627 50.8577 11.904C51.1884 12.2347 51.3537 12.688 51.3537 13.264V18.368H53.4497V12.768C53.4497 12.1174 53.3111 11.5467 53.0337 11.056C52.7564 10.5547 52.3671 10.1654 51.8657 9.88804C51.3751 9.61071 50.8097 9.47204 50.1697 9.47204C49.6684 9.47204 49.2151 9.56271 48.8097 9.74404C48.4044 9.91471 48.0791 10.176 47.8337 10.528V6.25604H45.7377V18.368ZM59.4781 18.56C60.3208 18.56 61.0888 18.368 61.7821 17.984C62.4754 17.5894 63.0301 17.0507 63.4461 16.368C63.8621 15.6747 64.0701 14.8907 64.0701 14.016C64.0701 13.1414 63.8621 12.3627 63.4461 11.68C63.0408 10.9974 62.4914 10.4587 61.7981 10.064C61.1048 9.66937 60.3314 9.47204 59.4781 9.47204C58.6141 9.47204 57.8354 9.66937 57.1421 10.064C56.4488 10.4587 55.8941 10.9974 55.4781 11.68C55.0728 12.3627 54.8701 13.1414 54.8701 14.016C54.8701 14.8907 55.0728 15.6694 55.4781 16.352C55.8941 17.0347 56.4488 17.5734 57.1421 17.968C57.8461 18.3627 58.6248 18.56 59.4781 18.56ZM59.4781 16.64C59.0088 16.64 58.5874 16.528 58.2141 16.304C57.8514 16.08 57.5634 15.7707 57.3501 15.376C57.1474 14.9707 57.0461 14.5174 57.0461 14.016C57.0461 13.5147 57.1474 13.0667 57.3501 12.672C57.5634 12.2774 57.8514 11.968 58.2141 11.744C58.5874 11.5094 59.0088 11.392 59.4781 11.392C59.9474 11.392 60.3581 11.5094 60.7101 11.744C61.0728 11.968 61.3554 12.2774 61.5581 12.672C61.7714 13.0667 61.8781 13.5147 61.8781 14.016C61.8781 14.5174 61.7714 14.9707 61.5581 15.376C61.3554 15.7707 61.0728 16.08 60.7101 16.304C60.3581 16.528 59.9474 16.64 59.4781 16.64ZM69.7876 18.56C70.6729 18.56 71.4463 18.3627 72.1076 17.968C72.7796 17.5627 73.2489 17.0507 73.5156 16.432L71.8196 15.6C71.6276 15.9307 71.3609 16.2027 71.0196 16.416C70.6889 16.6187 70.2836 16.72 69.8036 16.72C69.1743 16.72 68.6463 16.528 68.2196 16.144C67.7929 15.76 67.5476 15.248 67.4836 14.608H73.7556C73.7983 14.4907 73.8249 14.3574 73.8356 14.208C73.8569 14.048 73.8676 13.888 73.8676 13.728C73.8676 12.9494 73.7023 12.24 73.3716 11.6C73.0409 10.96 72.5609 10.448 71.9316 10.064C71.3023 9.66937 70.5343 9.47204 69.6276 9.47204C68.8169 9.47204 68.0809 9.66937 67.4196 10.064C66.7689 10.4587 66.2516 10.9974 65.8676 11.68C65.4943 12.352 65.3076 13.1254 65.3076 14C65.3076 14.8427 65.4943 15.6107 65.8676 16.304C66.2409 16.9974 66.7636 17.5467 67.4356 17.952C68.1076 18.3574 68.8916 18.56 69.7876 18.56ZM69.6276 11.2C70.1823 11.2 70.6409 11.3707 71.0036 11.712C71.3769 12.0427 71.5849 12.4747 71.6276 13.008H67.5316C67.6489 12.432 67.8943 11.9894 68.2676 11.68C68.6516 11.36 69.1049 11.2 69.6276 11.2ZM75.4565 18.368H77.5525V13.264C77.5525 12.6987 77.7125 12.2454 78.0325 11.904C78.3631 11.5627 78.7898 11.392 79.3125 11.392C79.8351 11.392 80.2565 11.5627 80.5765 11.904C80.9071 12.2347 81.0725 12.688 81.0725 13.264V18.368H83.1685V12.768C83.1685 12.1174 83.0298 11.5467 82.7525 11.056C82.4751 10.5547 82.0858 10.1654 81.5845 9.88804C81.0938 9.61071 80.5285 9.47204 79.8885 9.47204C79.3445 9.47204 78.8538 9.57871 78.4165 9.79204C77.9898 10.0054 77.6591 10.32 77.4245 10.736V9.66404H75.4565V18.368ZM84.9408 8.68804H87.0368V6.44804H84.9408V8.68804ZM84.9408 18.368H87.0368V9.66404H84.9408V18.368ZM88.1881 18.368H90.6521L92.4761 15.664L94.2841 18.368H96.7321L93.7081 14L96.7481 9.66404H94.3001L92.4761 12.368L90.6361 9.66404H88.1721L91.2281 14L88.1881 18.368ZM106.61 18.56C107.42 18.56 108.146 18.416 108.786 18.128C109.436 17.84 109.98 17.472 110.418 17.024C110.866 16.5654 111.186 16.0907 111.378 15.6L110.178 15.072C109.879 15.7654 109.42 16.32 108.802 16.736C108.194 17.152 107.463 17.36 106.61 17.36C105.735 17.36 104.956 17.1574 104.274 16.752C103.591 16.336 103.058 15.7547 102.674 15.008C102.29 14.2614 102.098 13.3974 102.098 12.416C102.098 11.424 102.29 10.56 102.674 9.82404C103.058 9.07737 103.591 8.49604 104.274 8.08004C104.956 7.66404 105.735 7.45604 106.61 7.45604C107.463 7.45604 108.194 7.66937 108.802 8.09604C109.42 8.51204 109.879 9.06671 110.178 9.76004L111.378 9.23204C111.186 8.73071 110.866 8.25604 110.418 7.80804C109.98 7.34938 109.436 6.97604 108.786 6.68804C108.146 6.40004 107.42 6.25604 106.61 6.25604C105.767 6.25604 104.994 6.41071 104.29 6.72004C103.586 7.01871 102.972 7.44537 102.45 8.00004C101.938 8.55471 101.538 9.20538 101.25 9.95204C100.962 10.6987 100.818 11.52 100.818 12.416C100.818 13.312 100.962 14.1334 101.25 14.88C101.538 15.6267 101.938 16.2774 102.45 16.832C102.972 17.376 103.586 17.8027 104.29 18.112C104.994 18.4107 105.767 18.56 106.61 18.56ZM117.353 18.56C118.153 18.56 118.879 18.368 119.529 17.984C120.191 17.6 120.719 17.072 121.113 16.4C121.508 15.7174 121.705 14.9387 121.705 14.064C121.705 13.2 121.513 12.432 121.129 11.76C120.756 11.088 120.239 10.56 119.577 10.176C118.927 9.79204 118.185 9.60004 117.353 9.60004C116.521 9.60004 115.775 9.79737 115.113 10.192C114.463 10.576 113.945 11.104 113.561 11.776C113.177 12.448 112.985 13.2107 112.985 14.064C112.985 14.928 113.177 15.7014 113.561 16.384C113.956 17.056 114.484 17.5894 115.145 17.984C115.807 18.368 116.543 18.56 117.353 18.56ZM117.353 17.36C116.777 17.36 116.255 17.216 115.785 16.928C115.327 16.64 114.959 16.2454 114.681 15.744C114.404 15.2427 114.265 14.6827 114.265 14.064C114.265 13.4454 114.404 12.8907 114.681 12.4C114.959 11.9094 115.327 11.52 115.785 11.232C116.255 10.944 116.777 10.8 117.353 10.8C117.929 10.8 118.447 10.944 118.905 11.232C119.375 11.52 119.743 11.9094 120.009 12.4C120.287 12.8907 120.425 13.4454 120.425 14.064C120.425 14.6827 120.287 15.2427 120.009 15.744C119.743 16.2454 119.375 16.64 118.905 16.928C118.447 17.216 117.929 17.36 117.353 17.36ZM126.862 18.56C127.395 18.56 127.875 18.448 128.302 18.224C128.729 18 129.07 17.696 129.326 17.312V18.368H130.526V9.79204H129.326V14.896C129.326 15.664 129.113 16.2667 128.686 16.704C128.27 17.1414 127.731 17.36 127.07 17.36C126.419 17.36 125.886 17.152 125.47 16.736C125.054 16.3094 124.846 15.7494 124.846 15.056V9.79204H123.646V15.2C123.646 15.8614 123.785 16.448 124.062 16.96C124.35 17.4614 124.739 17.856 125.23 18.144C125.721 18.4214 126.265 18.56 126.862 18.56ZM132.994 18.368H134.194V13.088C134.194 12.384 134.38 11.84 134.754 11.456C135.127 11.072 135.623 10.88 136.242 10.88H136.994V9.68004H136.45C135.927 9.68004 135.474 9.77071 135.09 9.95204C134.716 10.1334 134.418 10.3894 134.194 10.72V9.79204H132.994V18.368ZM141.376 18.56C141.973 18.56 142.501 18.4587 142.96 18.256C143.419 18.0427 143.776 17.7494 144.032 17.376C144.299 17.0027 144.432 16.5814 144.432 16.112C144.432 15.536 144.235 15.0347 143.84 14.608C143.456 14.1814 142.917 13.8667 142.224 13.664L140.8 13.248C140.651 13.2054 140.475 13.1414 140.272 13.056C140.08 12.9707 139.909 12.8427 139.76 12.672C139.611 12.5014 139.536 12.272 139.536 11.984C139.536 11.6107 139.68 11.3014 139.968 11.056C140.256 10.8107 140.64 10.688 141.12 10.688C141.611 10.688 142.053 10.8267 142.448 11.104C142.853 11.3707 143.163 11.744 143.376 12.224L144.4 11.744C144.155 11.072 143.733 10.5494 143.136 10.176C142.549 9.79204 141.893 9.60004 141.168 9.60004C140.635 9.60004 140.149 9.70137 139.712 9.90404C139.275 10.1067 138.928 10.3947 138.672 10.768C138.416 11.1414 138.288 11.5787 138.288 12.08C138.288 12.6134 138.464 13.0827 138.816 13.488C139.168 13.8934 139.739 14.208 140.528 14.432L141.76 14.784C141.931 14.8267 142.128 14.896 142.352 14.992C142.576 15.088 142.773 15.2267 142.944 15.408C143.115 15.5787 143.2 15.8134 143.2 16.112C143.2 16.5174 143.024 16.848 142.672 17.104C142.32 17.3494 141.888 17.472 141.376 17.472C140.843 17.472 140.352 17.3174 139.904 17.008C139.467 16.6987 139.125 16.2827 138.88 15.76L137.872 16.24C138.149 16.9547 138.597 17.52 139.216 17.936C139.835 18.352 140.555 18.56 141.376 18.56ZM150.445 18.56C151.031 18.56 151.565 18.464 152.045 18.272C152.535 18.0694 152.957 17.808 153.309 17.488C153.661 17.1574 153.922 16.8 154.093 16.416L153.069 15.872C152.802 16.32 152.455 16.6934 152.029 16.992C151.602 17.2907 151.074 17.44 150.445 17.44C149.933 17.44 149.453 17.3174 149.005 17.072C148.557 16.8267 148.189 16.4854 147.901 16.048C147.623 15.6 147.474 15.0667 147.453 14.448H154.205C154.226 14.3094 154.242 14.176 154.253 14.048C154.263 13.9094 154.269 13.7867 154.269 13.68C154.269 13.168 154.178 12.672 153.997 12.192C153.815 11.7014 153.554 11.264 153.213 10.88C152.871 10.4854 152.455 10.176 151.965 9.95204C151.485 9.71737 150.935 9.60004 150.317 9.60004C149.538 9.60004 148.834 9.79204 148.205 10.176C147.586 10.56 147.095 11.088 146.733 11.76C146.37 12.4214 146.189 13.184 146.189 14.048C146.189 14.912 146.375 15.6854 146.749 16.368C147.122 17.0507 147.629 17.5894 148.269 17.984C148.919 18.368 149.645 18.56 150.445 18.56ZM150.317 10.72C150.797 10.72 151.234 10.832 151.629 11.056C152.034 11.28 152.354 11.5894 152.589 11.984C152.834 12.368 152.962 12.816 152.973 13.328H147.485C147.549 12.7947 147.714 12.336 147.981 11.952C148.258 11.5574 148.599 11.2534 149.005 11.04C149.41 10.8267 149.847 10.72 150.317 10.72Z" fill="white"/>
<path d="M16.7248 5.35568C17.2362 4.85493 17.5526 4.16394 17.5526 3.4005C17.5526 1.87156 16.2835 0.631987 14.7182 0.631987C13.7285 0.631987 12.8584 1.12823 12.3514 1.87895C12.2168 2.0107 0.933331 15.5942 0.827853 15.7504C0.316432 16.2511 0 16.9424 0 17.7054C0 19.2345 1.2691 20.4741 2.83446 20.4741C3.8241 20.4741 4.69419 19.9781 5.2012 19.2271C5.33589 19.0954 16.6193 5.51165 16.7248 5.35568Z" fill="white"/>
<path d="M22.8271 11.5824C23.3405 11.0686 23.6578 10.3593 23.6578 9.57555C23.6578 8.00807 22.3876 6.73725 20.8209 6.73725C19.83 6.73725 18.9588 7.24642 18.4513 8.0167C18.3155 8.15282 12.3841 15.4678 12.2779 15.629C11.7646 16.1428 11.4473 16.852 11.4473 17.6356C11.4473 19.2033 12.7174 20.4741 14.2841 20.4741C15.275 20.4741 16.1463 19.9649 16.6535 19.1946C16.7894 19.0587 22.7209 11.7435 22.8271 11.5824Z" fill="white"/>
<path d="M28.9996 3.30301C28.9996 4.77833 27.8036 5.97406 26.3285 5.97406C24.8532 5.97406 23.6575 4.77833 23.6575 3.30301C23.6575 1.8279 24.8532 0.631955 26.3285 0.631955C27.8036 0.631955 28.9996 1.8279 28.9996 3.30301Z" fill="white"/>
<path d="M5.3421 3.30301C5.3421 4.77833 4.14617 5.97406 2.67105 5.97406C1.19593 5.97406 0 4.77833 0 3.30301C0 1.8279 1.19593 0.631955 2.67105 0.631955C4.14617 0.631955 5.3421 1.8279 5.3421 3.30301Z" fill="white"/>
</svg>
