<svg width="30" height="30" viewBox="0 0 30 30" fill="none" xmlns="http://www.w3.org/2000/svg">
<g clip-path="url(#clip0_1_717)">
<path d="M16.2486 16.25V23.2313L18.5336 20.9463L20.3024 22.715L14.9986 28.0175L9.6949 22.715L11.4636 20.9463L13.7486 23.2313V16.25H16.2486ZM14.9986 2.5C17.1449 2.5001 19.2162 3.28889 20.8189 4.7164C22.4215 6.1439 23.4438 8.11058 23.6911 10.2425C25.2465 10.6666 26.6033 11.6239 27.5245 12.9469C28.4456 14.2699 28.8726 15.8746 28.7307 17.4805C28.5888 19.0864 27.887 20.5913 26.7481 21.7323C25.6092 22.8732 24.1055 23.5777 22.4999 23.7225V21.205C23.0751 21.1229 23.6282 20.9269 24.1269 20.6287C24.6256 20.3305 25.0598 19.9359 25.4044 19.468C25.7489 19.0001 25.9967 18.4683 26.1335 17.9036C26.2702 17.3388 26.2931 16.7525 26.2008 16.1788C26.1085 15.6052 25.9028 15.0556 25.5958 14.5623C25.2888 14.069 24.8866 13.6418 24.4127 13.3056C23.9387 12.9694 23.4026 12.731 22.8355 12.6043C22.2685 12.4775 21.6818 12.465 21.1099 12.5675C21.3057 11.6561 21.2951 10.7125 21.0789 9.80569C20.8628 8.89892 20.4465 8.05198 19.8606 7.32691C19.2748 6.60184 18.5341 6.01701 17.693 5.61524C16.8518 5.21348 15.9315 5.00496 14.9993 5.00496C14.0671 5.00496 13.1467 5.21348 12.3056 5.61524C11.4644 6.01701 10.7238 6.60184 10.1379 7.32691C9.55204 8.05198 9.13578 8.89892 8.91962 9.80569C8.70347 10.7125 8.69288 11.6561 8.88865 12.5675C7.74822 12.3533 6.56942 12.601 5.61158 13.256C4.65373 13.9109 3.99531 14.9196 3.78115 16.06C3.56698 17.2004 3.81463 18.3792 4.4696 19.3371C5.12457 20.2949 6.13322 20.9533 7.27365 21.1675L7.49865 21.205V23.7225C5.89296 23.5779 4.38915 22.8736 3.25006 21.7327C2.11097 20.5919 1.40906 19.0869 1.26699 17.481C1.12492 15.8751 1.55175 14.2704 2.47286 12.9472C3.39397 11.6241 4.75078 10.6667 6.30615 10.2425C6.55328 8.11047 7.5754 6.14364 9.17812 4.71608C10.7808 3.28852 12.8523 2.49983 14.9986 2.5Z" fill="#1C3533"/>
</g>
<defs>
<clipPath id="clip0_1_717">
<rect width="30" height="30" fill="white"/>
</clipPath>
</defs>
</svg>
