<svg width="38" height="26" viewBox="0 0 38 26" fill="none" xmlns="http://www.w3.org/2000/svg">
<path d="M21.9152 6.18967C22.5854 5.53351 23 4.62808 23 3.6277C23 1.62427 21.337 0 19.2859 0C17.9891 0 16.849 0.650249 16.1846 1.63395C16.0082 1.80659 1.22299 19.6057 1.08477 19.8103C0.414635 20.4665 0 21.3722 0 22.372C0 24.3757 1.66295 26 3.71412 26C5.01089 26 6.15101 25.35 6.81537 24.3661C6.99185 24.1934 21.777 6.39404 21.9152 6.18967Z" fill="#1C3533"/>
<path d="M29.9115 14.3488C30.5842 13.6755 31 12.7461 31 11.7192C31 9.66521 29.3356 8 27.2827 8C25.9843 8 24.8426 8.66719 24.1777 9.67652C23.9997 9.85489 16.2276 19.4401 16.0885 19.6512C15.4158 20.3245 15 21.2539 15 22.2806C15 24.3348 16.6644 26 18.7173 26C20.0157 26 21.1573 25.3328 21.822 24.3235C22 24.1454 29.7724 14.5599 29.9115 14.3488Z" fill="#1C3533"/>
<path d="M38 3.50001C38 5.43318 36.4329 7 34.5 7C32.5668 7 31 5.43318 31 3.50001C31 1.5671 32.5668 0 34.5 0C36.4329 0 38 1.5671 38 3.50001Z" fill="#1C3533"/>
<path d="M7 3.50001C7 5.43318 5.43291 7 3.5 7C1.56708 7 0 5.43318 0 3.50001C0 1.5671 1.56708 0 3.5 0C5.43291 0 7 1.5671 7 3.50001Z" fill="#1C3533"/>
</svg>
