<svg width="251" height="74" viewBox="0 0 251 74" fill="none" xmlns="http://www.w3.org/2000/svg">
<g filter="url(#filter0_b_1_768)">
<rect x="0.822266" y="0.118896" width="250.178" height="73.1747" rx="9.88848" fill="white"/>
</g>
<g clip-path="url(#clip0_1_768)">
<path d="M27.1013 44.2661V45.1L26.6372 46.4926L26.1996 46.9L26.3655 47.3075L25.4039 50.1923C25.3427 50.376 25.1707 50.5 24.977 50.5H23.2257C22.9185 50.5 22.7017 50.1991 22.7988 49.9077L23.6656 47.3075L24.0507 46.9L23.9367 46.4941L24.4013 45.1V44.2661H27.1013Z" fill="#995A4D"/>
<path d="M25.8509 44.2661V45.1L24.1535 50.1923C24.0922 50.3761 23.9203 50.5 23.7266 50.5H24.9761C25.1697 50.5 25.3417 50.3761 25.4029 50.1923L26.3645 47.3075L26.1986 46.9L26.6362 46.4925L27.1004 45.1V44.2661H25.8509Z" fill="#804540"/>
<path d="M23.6641 47.3076H26.3641L26.6357 46.4927H23.9357L23.6641 47.3076Z" fill="#595353"/>
<path d="M37.9004 44.2661V45.1L38.3646 46.4926L38.8747 46.9L38.6362 47.3075L39.5978 50.1923C39.659 50.3761 39.831 50.5001 40.0247 50.5001H41.776C42.0832 50.5001 42.3 50.1992 42.2029 49.9077L41.3361 47.3075L40.7203 46.9L41.0645 46.4926L40.6004 45.1V44.2661H37.9004Z" fill="#995A4D"/>
<path d="M42.2016 49.9077L41.3349 47.3074L40.7191 46.8999L41.0634 46.4927L40.5991 45.1V44.2661H39.3496V45.1L40.9522 49.9077C41.0493 50.1991 40.8324 50.5 40.5253 50.5H41.7748C42.0819 50.5 42.2988 50.1991 42.2016 49.9077V49.9077Z" fill="#804540"/>
<path d="M38.6349 47.3076H41.3349L41.0633 46.4927H38.3633L38.6349 47.3076Z" fill="#595353"/>
<path d="M30.7004 47.3075C30.4754 47.3075 30.293 47.1251 30.293 46.9001V45.1001C30.293 44.875 30.4754 44.6926 30.7004 44.6926C30.9254 44.6926 31.1078 44.875 31.1078 45.1001V46.9C31.1078 47.1251 30.9254 47.3075 30.7004 47.3075V47.3075Z" fill="#F3F5F9"/>
<path d="M34.3 47.3073C34.075 47.3073 33.8926 47.1249 33.8926 46.8998V45.0998C33.8926 44.8748 34.075 44.6924 34.3 44.6924C34.525 44.6924 34.7074 44.8748 34.7074 45.0998V46.8998C34.7075 47.1248 34.525 47.3073 34.3 47.3073V47.3073Z" fill="#F3F5F9"/>
<path d="M35.6786 48.6999H29.3223C29.0893 48.6999 28.9004 48.511 28.9004 48.278V47.3218C28.9004 47.0888 29.0893 46.8999 29.3223 46.8999H35.6785C35.9115 46.8999 36.1004 47.0888 36.1004 47.3218V48.278C36.1004 48.511 35.9115 48.6999 35.6786 48.6999Z" fill="#FFDF40"/>
<path d="M35.6783 46.8999H34.416C34.6561 46.8999 34.8506 47.0945 34.8506 47.3345V48.2653C34.8506 48.5053 34.656 48.6999 34.416 48.6999H35.6783C35.9112 48.6999 36.1001 48.511 36.1001 48.278V47.3218C36.1001 47.0888 35.9112 46.8999 35.6783 46.8999Z" fill="#FFBE40"/>
<path d="M33.8504 26.5513H31.1504V23.9219C31.1504 23.6889 31.3393 23.5 31.5723 23.5H33.4285C33.6615 23.5 33.8504 23.6889 33.8504 23.9219V26.5513Z" fill="#995A4D"/>
<path d="M33.4155 23.5H32.166C32.4061 23.5 32.6006 23.6946 32.6006 23.9346V26.5513H33.8501V23.9346C33.8501 23.6946 33.6555 23.5 33.4155 23.5V23.5Z" fill="#804540"/>
<path d="M44.3125 45.1H20.6875C19.7555 45.1 19 44.3444 19 43.4125V27.8875C19 26.9555 19.7555 26.2 20.6875 26.2H44.3125C45.2445 26.2 46 26.9555 46 27.8875V43.4125C46 44.3444 45.2445 45.1 44.3125 45.1Z" fill="#B37059"/>
<path d="M43.7789 43.3H21.2227C20.9897 43.3 20.8008 43.1111 20.8008 42.8782V28.4219C20.8008 28.1889 20.9897 28 21.2227 28H43.7789C44.0119 28 44.2008 28.1889 44.2008 28.4219V42.8781C44.2008 43.1111 44.0119 43.3 43.7789 43.3V43.3Z" fill="#595353"/>
<path d="M27.205 32.8816C27.2036 32.8778 27.2021 32.8741 27.2006 32.8704C27.1185 32.671 26.9262 32.5422 26.7106 32.5422C26.7104 32.5422 26.7102 32.5422 26.71 32.5422C26.4942 32.5425 26.3019 32.6717 26.2202 32.8715C26.2189 32.8745 26.2177 32.8776 26.2165 32.8807L24.1889 38.2046C24.1088 38.4149 24.2143 38.6504 24.4246 38.7304C24.4724 38.7486 24.5214 38.7572 24.5696 38.7572C24.7338 38.7572 24.8885 38.6572 24.9504 38.4947L25.3555 37.4311H28.051L28.4519 38.4935C28.5314 38.704 28.7663 38.8103 28.977 38.7308C29.1875 38.6514 29.2938 38.4163 29.2143 38.2058L27.205 32.8816ZM25.6658 36.6163L26.7094 33.8763L27.7434 36.6163H25.6658Z" fill="#F3F5F9"/>
<path d="M33.581 35.2928C33.8431 35.0006 34.0029 34.6148 34.0029 34.1922C34.0029 33.2824 33.2627 32.5422 32.3529 32.5422H30.7844C30.5594 32.5422 30.377 32.7246 30.377 32.9497V35.4402V38.3497C30.377 38.458 30.4201 38.562 30.4969 38.6384C30.5733 38.7144 30.6766 38.7571 30.7844 38.7571H30.7862C30.8006 38.757 32.2342 38.7507 32.6269 38.7507C33.653 38.7507 34.4878 37.9158 34.4878 36.8897C34.4879 36.2121 34.1237 35.6182 33.581 35.2928V35.2928ZM32.353 33.3571C32.8134 33.3571 33.1881 33.7318 33.1881 34.1922C33.1881 34.6527 32.8134 35.0273 32.353 35.0273C32.2368 35.0273 32.0172 35.0279 31.7783 35.0288H31.1919V33.3571H32.353V33.3571ZM32.6269 37.9358C32.3663 37.9358 31.6513 37.9386 31.1919 37.9405V35.8459C31.3686 35.8452 31.5802 35.8444 31.7786 35.8437H32.6269C33.2037 35.8437 33.673 36.3129 33.673 36.8898C33.673 37.4666 33.2037 37.9358 32.6269 37.9358Z" fill="#F3F5F9"/>
<path d="M40.6953 37.2753C40.5228 37.1307 40.2659 37.1533 40.1212 37.3257C40.0659 37.3917 40.006 37.4534 39.9433 37.5093C39.6207 37.7966 39.2134 37.9422 38.7325 37.9422C37.4684 37.9422 36.4399 36.9138 36.4399 35.6497C36.4399 34.3855 37.4684 33.3571 38.7325 33.3571C39.192 33.3571 39.6351 33.4925 40.014 33.7484C40.2004 33.8744 40.4538 33.8254 40.5797 33.6389C40.7057 33.4524 40.6567 33.1991 40.4702 33.0732C39.956 32.7258 39.3552 32.5422 38.7325 32.5422C37.019 32.5422 35.625 33.9362 35.625 35.6497C35.625 37.3631 37.019 38.7571 38.7325 38.7571C39.4096 38.7571 40.0157 38.5361 40.4853 38.1178C40.5773 38.0358 40.6649 37.9455 40.7456 37.8493C40.8902 37.6769 40.8676 37.4199 40.6953 37.2753Z" fill="#F3F5F9"/>
<path d="M44.2612 26.2H43.0117C43.9718 26.2 44.7502 26.9783 44.7502 27.9384V43.3615C44.7502 44.3216 43.9719 45.1 43.0117 45.1H44.2612C45.2213 45.1 45.9996 44.3216 45.9996 43.3615V27.9384C45.9996 26.9783 45.2213 26.2 44.2612 26.2V26.2Z" fill="#995A4D"/>
<path d="M43.7651 28H42.5156C42.7557 28 42.9502 28.1946 42.9502 28.4346V42.8654C42.9502 43.1054 42.7556 43.3 42.5156 43.3H43.7651C44.0052 43.3 44.1997 43.1054 44.1997 42.8654V28.4346C44.1997 28.1946 44.0052 28 43.7651 28V28Z" fill="#403939"/>
</g>
<path d="M65.149 32.896V22.5823H66.395L70.2574 28.0783H69.6206L73.4554 22.5823H74.7013V32.896H73.3308V24.299L73.8153 24.4512L69.9806 29.8503H69.8698L66.0766 24.4512L66.5057 24.299V32.896H65.149ZM80.3838 33.0621C79.6639 33.0621 79.0132 32.896 78.4318 32.5637C77.8504 32.2223 77.3889 31.7562 77.0474 31.1655C76.7059 30.5748 76.5352 29.9057 76.5352 29.1582C76.5352 28.4106 76.7013 27.7461 77.0336 27.1646C77.375 26.5832 77.8365 26.1217 78.418 25.7802C78.9994 25.4388 79.6547 25.268 80.3838 25.268C81.1037 25.268 81.7543 25.4388 82.3358 25.7802C82.9172 26.1125 83.3741 26.5693 83.7063 27.1508C84.0478 27.7322 84.2185 28.4014 84.2185 29.1582C84.2185 29.915 84.0432 30.5887 83.6925 31.1794C83.3418 31.7608 82.8757 32.2223 82.2942 32.5637C81.722 32.896 81.0852 33.0621 80.3838 33.0621ZM80.3838 31.8162C80.8452 31.8162 81.2606 31.7008 81.6297 31.4701C82.0081 31.2393 82.3035 30.9209 82.5157 30.5149C82.7372 30.1088 82.848 29.6565 82.848 29.1582C82.848 28.6505 82.7372 28.2029 82.5157 27.8153C82.3035 27.4184 82.0081 27.1046 81.6297 26.8739C81.2606 26.634 80.8452 26.514 80.3838 26.514C79.9131 26.514 79.4885 26.634 79.1101 26.8739C78.741 27.1046 78.4456 27.4184 78.2241 27.8153C78.0026 28.2029 77.8919 28.6505 77.8919 29.1582C77.8919 29.6565 78.0026 30.1088 78.2241 30.5149C78.4456 30.9209 78.741 31.2393 79.1101 31.4701C79.4885 31.7008 79.9131 31.8162 80.3838 31.8162ZM88.5696 33.0621C87.822 33.0621 87.1714 32.8775 86.6176 32.5084C86.0639 32.1392 85.6716 31.6408 85.4409 31.0132L86.4654 30.5149C86.6776 30.9579 86.9683 31.3086 87.3375 31.567C87.7067 31.8254 88.1174 31.9546 88.5696 31.9546C88.9757 31.9546 89.3126 31.8577 89.5802 31.6639C89.8479 31.4701 89.9817 31.2163 89.9817 30.9025C89.9817 30.681 89.9171 30.5056 89.7879 30.3764C89.6679 30.238 89.5202 30.1318 89.3449 30.058C89.1695 29.9749 89.008 29.915 88.8603 29.878L87.739 29.5596C87.0653 29.3658 86.5715 29.0889 86.2577 28.729C85.9531 28.3691 85.8008 27.9491 85.8008 27.4692C85.8008 27.0262 85.9116 26.6432 86.1331 26.3202C86.3638 25.9879 86.673 25.7295 87.0606 25.5449C87.4575 25.3603 87.9005 25.268 88.3896 25.268C89.0449 25.268 89.631 25.4342 90.1478 25.7664C90.6739 26.0987 91.0477 26.5647 91.2692 27.1646L90.217 27.6492C90.0509 27.2615 89.8017 26.957 89.4695 26.7355C89.1372 26.5047 88.7634 26.3894 88.3481 26.3894C87.9697 26.3894 87.6698 26.4863 87.4483 26.6801C87.2268 26.8647 87.116 27.1 87.116 27.3861C87.116 27.5984 87.1714 27.7738 87.2821 27.9122C87.3929 28.0414 87.5267 28.1429 87.6836 28.2168C87.8405 28.2814 87.9928 28.3367 88.1405 28.3829L89.3587 28.7428C89.9678 28.9182 90.4385 29.1905 90.7708 29.5596C91.1123 29.9288 91.283 30.3718 91.283 30.8886C91.283 31.304 91.1677 31.6777 90.9369 32.01C90.7062 32.3422 90.3878 32.6007 89.9817 32.7852C89.5756 32.9698 89.1049 33.0621 88.5696 33.0621ZM96.0002 32.9791C95.2711 32.9791 94.7081 32.7714 94.3113 32.3561C93.9236 31.9408 93.7298 31.3547 93.7298 30.5979V26.6663H92.3731V25.4342H92.65C92.9822 25.4342 93.2453 25.3326 93.4391 25.1296C93.6329 24.9265 93.7298 24.6589 93.7298 24.3266V23.7175H95.0173V25.4342H96.6924V26.6663H95.0173V30.5564C95.0173 30.8056 95.0542 31.0225 95.128 31.207C95.2111 31.3916 95.3449 31.5393 95.5295 31.65C95.7141 31.7516 95.9587 31.8023 96.2632 31.8023C96.3278 31.8023 96.4063 31.7977 96.4986 31.7885C96.6001 31.7793 96.6924 31.77 96.7755 31.7608V32.896C96.6555 32.9237 96.5217 32.9421 96.374 32.9514C96.2263 32.9698 96.1017 32.9791 96.0002 32.9791ZM106.817 35.6648V31.304L107.025 31.5255C106.766 32.0146 106.388 32.393 105.889 32.6607C105.4 32.9283 104.851 33.0621 104.242 33.0621C103.541 33.0621 102.908 32.8914 102.345 32.5499C101.792 32.2084 101.353 31.7423 101.03 31.1517C100.707 30.561 100.546 29.9011 100.546 29.172C100.546 28.4244 100.707 27.7599 101.03 27.1785C101.353 26.5878 101.792 26.1217 102.345 25.7802C102.908 25.4388 103.541 25.268 104.242 25.268C104.86 25.268 105.409 25.4019 105.889 25.6695C106.369 25.9279 106.748 26.2786 107.025 26.7216L106.858 27.04V25.4342H108.118V35.6648H106.817ZM104.353 31.8162C104.823 31.8162 105.243 31.7008 105.612 31.4701C105.982 31.2393 106.272 30.9256 106.485 30.5287C106.706 30.1226 106.817 29.6704 106.817 29.172C106.817 28.6644 106.706 28.2122 106.485 27.8153C106.272 27.4092 105.982 27.0908 105.612 26.8601C105.243 26.6293 104.823 26.514 104.353 26.514C103.891 26.514 103.471 26.634 103.093 26.8739C102.724 27.1046 102.433 27.4184 102.221 27.8153C102.008 28.2029 101.902 28.6552 101.902 29.172C101.902 29.6704 102.008 30.1226 102.221 30.5287C102.433 30.9256 102.724 31.2393 103.093 31.4701C103.462 31.7008 103.882 31.8162 104.353 31.8162ZM112.755 33.0621C112.22 33.0621 111.735 32.9375 111.302 32.6883C110.877 32.4391 110.545 32.0931 110.305 31.65C110.074 31.1978 109.959 30.681 109.959 30.0995V25.4342H111.246V29.9611C111.246 30.3303 111.32 30.6533 111.468 30.9302C111.625 31.207 111.837 31.4239 112.105 31.5808C112.381 31.7377 112.695 31.8162 113.046 31.8162C113.397 31.8162 113.706 31.7377 113.973 31.5808C114.25 31.4239 114.463 31.1978 114.61 30.9025C114.767 30.6071 114.846 30.2564 114.846 29.8503V25.4342H116.147V32.896H114.887V31.4424L115.095 31.567C114.919 32.0377 114.619 32.4068 114.195 32.6745C113.78 32.9329 113.3 33.0621 112.755 33.0621ZM120.329 33.0621C119.84 33.0621 119.406 32.9744 119.028 32.7991C118.658 32.6145 118.368 32.3653 118.155 32.0515C117.943 31.7285 117.837 31.3593 117.837 30.944C117.837 30.5472 117.92 30.1918 118.086 29.878C118.261 29.555 118.529 29.2827 118.889 29.0612C119.258 28.8397 119.72 28.6828 120.273 28.5906L123.042 28.1337V29.2135L120.564 29.6288C120.084 29.7119 119.734 29.8642 119.512 30.0857C119.3 30.3072 119.194 30.5795 119.194 30.9025C119.194 31.207 119.314 31.4608 119.554 31.6639C119.803 31.8669 120.112 31.9685 120.481 31.9685C120.952 31.9685 121.358 31.8716 121.699 31.6777C122.05 31.4747 122.322 31.2024 122.516 30.8609C122.719 30.5195 122.821 30.1411 122.821 29.7258V27.8291C122.821 27.4231 122.668 27.0954 122.364 26.8462C122.069 26.5878 121.676 26.4586 121.187 26.4586C120.763 26.4586 120.384 26.5693 120.052 26.7909C119.729 27.0031 119.489 27.2892 119.332 27.6492L118.211 27.0677C118.349 26.7262 118.571 26.4217 118.875 26.154C119.18 25.8772 119.535 25.6603 119.941 25.5034C120.347 25.3465 120.772 25.268 121.215 25.268C121.787 25.268 122.29 25.3788 122.724 25.6003C123.158 25.8126 123.494 26.1125 123.734 26.5001C123.984 26.8785 124.108 27.3215 124.108 27.8291V32.896H122.848V31.4839L123.084 31.567C122.927 31.8623 122.715 32.1207 122.447 32.3422C122.179 32.5637 121.866 32.7391 121.506 32.8683C121.146 32.9975 120.753 33.0621 120.329 33.0621ZM126.104 32.896V22.4162H127.392V32.896H126.104ZM129.39 32.896V25.4342H130.677V32.896H129.39ZM129.39 24.2436V22.5823H130.677V24.2436H129.39ZM133.464 32.896V26.6663H132.038V25.4342H133.464V24.9081C133.464 24.3728 133.579 23.9206 133.81 23.5514C134.05 23.1822 134.364 22.9007 134.751 22.7069C135.148 22.5131 135.587 22.4162 136.067 22.4162C136.168 22.4162 136.279 22.4254 136.399 22.4439C136.528 22.4531 136.634 22.467 136.717 22.4854V23.6344C136.643 23.616 136.556 23.6068 136.454 23.6068C136.353 23.5975 136.274 23.5929 136.219 23.5929C135.794 23.5929 135.444 23.6944 135.167 23.8975C134.899 24.1005 134.765 24.4374 134.765 24.9081V25.4342H138.642V26.6663H134.765V32.896H133.464ZM137.839 32.896V25.4342H139.14V32.896H137.839ZM144.355 33.0621C143.635 33.0621 142.994 32.8914 142.431 32.5499C141.868 32.2084 141.425 31.7423 141.102 31.1517C140.779 30.5518 140.617 29.8826 140.617 29.1443C140.617 28.3967 140.774 27.7322 141.088 27.1508C141.411 26.5693 141.845 26.1125 142.389 25.7802C142.943 25.4388 143.561 25.268 144.244 25.268C144.798 25.268 145.287 25.3695 145.712 25.5726C146.145 25.7664 146.51 26.0341 146.805 26.3755C147.11 26.7078 147.341 27.0908 147.498 27.5246C147.664 27.9491 147.747 28.3921 147.747 28.8536C147.747 28.9551 147.738 29.0705 147.719 29.1997C147.71 29.3197 147.696 29.435 147.678 29.5458H141.559V28.4383H146.93L146.321 28.9367C146.404 28.4567 146.358 28.0276 146.182 27.6492C146.007 27.2708 145.749 26.9708 145.407 26.7493C145.066 26.5278 144.678 26.4171 144.244 26.4171C143.81 26.4171 143.414 26.5278 143.054 26.7493C142.694 26.9708 142.412 27.2892 142.209 27.7045C142.015 28.1106 141.937 28.5952 141.974 29.1582C141.937 29.7027 142.02 30.1826 142.223 30.5979C142.435 31.004 142.731 31.3224 143.109 31.5531C143.497 31.7746 143.917 31.8854 144.369 31.8854C144.867 31.8854 145.287 31.77 145.629 31.5393C145.97 31.3086 146.247 31.0132 146.459 30.6533L147.539 31.207C147.391 31.5485 147.161 31.8623 146.847 32.1484C146.542 32.4253 146.178 32.6468 145.753 32.8129C145.338 32.9791 144.872 33.0621 144.355 33.0621ZM152.817 33.0621C152.116 33.0621 151.484 32.8914 150.921 32.5499C150.367 32.2084 149.928 31.7423 149.605 31.1517C149.282 30.561 149.121 29.9011 149.121 29.172C149.121 28.4244 149.282 27.7599 149.605 27.1785C149.928 26.5878 150.367 26.1217 150.921 25.7802C151.484 25.4388 152.116 25.268 152.817 25.268C153.436 25.268 153.985 25.4019 154.465 25.6695C154.944 25.9279 155.323 26.2786 155.6 26.7216L155.392 27.04V22.4162H156.693V32.896H155.434V31.304L155.6 31.5255C155.341 32.0146 154.963 32.393 154.465 32.6607C153.975 32.9283 153.426 33.0621 152.817 33.0621ZM152.928 31.8162C153.399 31.8162 153.819 31.7008 154.188 31.4701C154.557 31.2393 154.848 30.9256 155.06 30.5287C155.281 30.1226 155.392 29.6704 155.392 29.172C155.392 28.6644 155.281 28.2122 155.06 27.8153C154.848 27.4092 154.557 27.0908 154.188 26.8601C153.819 26.6293 153.399 26.514 152.928 26.514C152.466 26.514 152.047 26.634 151.668 26.8739C151.299 27.1046 151.008 27.4184 150.796 27.8153C150.584 28.2029 150.478 28.6552 150.478 29.172C150.478 29.6704 150.584 30.1226 150.796 30.5287C151.008 30.9256 151.299 31.2393 151.668 31.4701C152.037 31.7008 152.457 31.8162 152.928 31.8162ZM164.111 32.9791C163.382 32.9791 162.819 32.7714 162.422 32.3561C162.034 31.9408 161.841 31.3547 161.841 30.5979V26.6663H160.484V25.4342H160.761C161.093 25.4342 161.356 25.3326 161.55 25.1296C161.744 24.9265 161.841 24.6589 161.841 24.3266V23.7175H163.128V25.4342H164.803V26.6663H163.128V30.5564C163.128 30.8056 163.165 31.0225 163.239 31.207C163.322 31.3916 163.456 31.5393 163.64 31.65C163.825 31.7516 164.069 31.8023 164.374 31.8023C164.439 31.8023 164.517 31.7977 164.609 31.7885C164.711 31.7793 164.803 31.77 164.886 31.7608V32.896C164.766 32.9237 164.632 32.9421 164.485 32.9514C164.337 32.9698 164.212 32.9791 164.111 32.9791ZM169.798 33.0621C169.079 33.0621 168.437 32.8914 167.874 32.5499C167.311 32.2084 166.868 31.7423 166.545 31.1517C166.222 30.5518 166.061 29.8826 166.061 29.1443C166.061 28.3967 166.218 27.7322 166.531 27.1508C166.854 26.5693 167.288 26.1125 167.833 25.7802C168.386 25.4388 169.005 25.268 169.688 25.268C170.242 25.268 170.731 25.3695 171.155 25.5726C171.589 25.7664 171.954 26.0341 172.249 26.3755C172.553 26.7078 172.784 27.0908 172.941 27.5246C173.107 27.9491 173.19 28.3921 173.19 28.8536C173.19 28.9551 173.181 29.0705 173.163 29.1997C173.153 29.3197 173.139 29.435 173.121 29.5458H167.002V28.4383H172.373L171.764 28.9367C171.847 28.4567 171.801 28.0276 171.626 27.6492C171.451 27.2708 171.192 26.9708 170.851 26.7493C170.509 26.5278 170.122 26.4171 169.688 26.4171C169.254 26.4171 168.857 26.5278 168.497 26.7493C168.137 26.9708 167.856 27.2892 167.653 27.7045C167.459 28.1106 167.38 28.5952 167.417 29.1582C167.38 29.7027 167.464 30.1826 167.667 30.5979C167.879 31.004 168.174 31.3224 168.553 31.5531C168.94 31.7746 169.36 31.8854 169.812 31.8854C170.311 31.8854 170.731 31.77 171.072 31.5393C171.414 31.3086 171.69 31.0132 171.903 30.6533L172.983 31.207C172.835 31.5485 172.604 31.8623 172.29 32.1484C171.986 32.4253 171.621 32.6468 171.197 32.8129C170.781 32.9791 170.315 33.0621 169.798 33.0621ZM176.962 33.0621C176.472 33.0621 176.039 32.9744 175.66 32.7991C175.291 32.6145 175 32.3653 174.788 32.0515C174.576 31.7285 174.47 31.3593 174.47 30.944C174.47 30.5472 174.553 30.1918 174.719 29.878C174.894 29.555 175.162 29.2827 175.522 29.0612C175.891 28.8397 176.352 28.6828 176.906 28.5906L179.675 28.1337V29.2135L177.197 29.6288C176.717 29.7119 176.366 29.8642 176.145 30.0857C175.933 30.3072 175.826 30.5795 175.826 30.9025C175.826 31.207 175.946 31.4608 176.186 31.6639C176.436 31.8669 176.745 31.9685 177.114 31.9685C177.585 31.9685 177.991 31.8716 178.332 31.6777C178.683 31.4747 178.955 31.2024 179.149 30.8609C179.352 30.5195 179.454 30.1411 179.454 29.7258V27.8291C179.454 27.4231 179.301 27.0954 178.997 26.8462C178.701 26.5878 178.309 26.4586 177.82 26.4586C177.395 26.4586 177.017 26.5693 176.685 26.7909C176.362 27.0031 176.122 27.2892 175.965 27.6492L174.844 27.0677C174.982 26.7262 175.203 26.4217 175.508 26.154C175.813 25.8772 176.168 25.6603 176.574 25.5034C176.98 25.3465 177.405 25.268 177.848 25.268C178.42 25.268 178.923 25.3788 179.357 25.6003C179.79 25.8126 180.127 26.1125 180.367 26.5001C180.616 26.8785 180.741 27.3215 180.741 27.8291V32.896H179.481V31.4839L179.717 31.567C179.56 31.8623 179.347 32.1207 179.08 32.3422C178.812 32.5637 178.498 32.7391 178.138 32.8683C177.778 32.9975 177.386 33.0621 176.962 33.0621ZM186.198 33.0621C185.469 33.0621 184.818 32.8914 184.246 32.5499C183.683 32.2084 183.24 31.7423 182.917 31.1517C182.594 30.561 182.433 29.8965 182.433 29.1582C182.433 28.4106 182.594 27.7461 182.917 27.1646C183.24 26.5832 183.683 26.1217 184.246 25.7802C184.818 25.4388 185.469 25.268 186.198 25.268C186.687 25.268 187.144 25.3557 187.569 25.5311C187.993 25.7064 188.367 25.9418 188.69 26.2371C189.013 26.5324 189.248 26.8785 189.396 27.2754L188.247 27.8291C188.072 27.4415 187.804 27.1277 187.444 26.8878C187.084 26.6386 186.669 26.514 186.198 26.514C185.746 26.514 185.335 26.6293 184.966 26.8601C184.606 27.0908 184.32 27.4046 184.108 27.8015C183.895 28.1983 183.789 28.6552 183.789 29.172C183.789 29.6704 183.895 30.1226 184.108 30.5287C184.32 30.9256 184.606 31.2393 184.966 31.4701C185.335 31.7008 185.746 31.8162 186.198 31.8162C186.669 31.8162 187.084 31.6962 187.444 31.4562C187.804 31.207 188.072 30.8794 188.247 30.4733L189.396 31.0548C189.248 31.4424 189.013 31.7885 188.69 32.0931C188.367 32.3884 187.993 32.6237 187.569 32.7991C187.144 32.9744 186.687 33.0621 186.198 33.0621ZM191.079 32.896V22.4162H192.366V26.8878L192.131 26.7632C192.315 26.2925 192.611 25.9279 193.017 25.6695C193.432 25.4019 193.917 25.268 194.47 25.268C195.006 25.268 195.481 25.388 195.896 25.628C196.321 25.8679 196.653 26.2002 196.893 26.6247C197.142 27.0493 197.267 27.5292 197.267 28.0645V32.896H195.966V28.4798C195.966 28.0645 195.887 27.7138 195.73 27.4277C195.583 27.1416 195.375 26.9201 195.107 26.7632C194.84 26.597 194.53 26.514 194.18 26.514C193.838 26.514 193.529 26.597 193.252 26.7632C192.975 26.9201 192.758 27.1462 192.602 27.4415C192.445 27.7276 192.366 28.0737 192.366 28.4798V32.896H191.079ZM202.542 33.0621C201.823 33.0621 201.181 32.8914 200.618 32.5499C200.055 32.2084 199.612 31.7423 199.289 31.1517C198.966 30.5518 198.805 29.8826 198.805 29.1443C198.805 28.3967 198.962 27.7322 199.275 27.1508C199.598 26.5693 200.032 26.1125 200.577 25.7802C201.13 25.4388 201.749 25.268 202.432 25.268C202.985 25.268 203.475 25.3695 203.899 25.5726C204.333 25.7664 204.698 26.0341 204.993 26.3755C205.297 26.7078 205.528 27.0908 205.685 27.5246C205.851 27.9491 205.934 28.3921 205.934 28.8536C205.934 28.9551 205.925 29.0705 205.907 29.1997C205.897 29.3197 205.883 29.435 205.865 29.5458H199.746V28.4383H205.117L204.508 28.9367C204.591 28.4567 204.545 28.0276 204.37 27.6492C204.195 27.2708 203.936 26.9708 203.595 26.7493C203.253 26.5278 202.866 26.4171 202.432 26.4171C201.998 26.4171 201.601 26.5278 201.241 26.7493C200.881 26.9708 200.6 27.2892 200.397 27.7045C200.203 28.1106 200.124 28.5952 200.161 29.1582C200.124 29.7027 200.207 30.1826 200.411 30.5979C200.623 31.004 200.918 31.3224 201.297 31.5531C201.684 31.7746 202.104 31.8854 202.556 31.8854C203.055 31.8854 203.475 31.77 203.816 31.5393C204.158 31.3086 204.434 31.0132 204.647 30.6533L205.727 31.207C205.579 31.5485 205.348 31.8623 205.034 32.1484C204.73 32.4253 204.365 32.6468 203.941 32.8129C203.525 32.9791 203.059 33.0621 202.542 33.0621ZM207.613 32.896V25.4342H208.873V26.8047L208.734 26.6109C208.91 26.1863 209.177 25.8725 209.537 25.6695C209.897 25.4572 210.336 25.3511 210.852 25.3511H211.309V26.5693H210.659C210.132 26.5693 209.708 26.7355 209.385 27.0677C209.062 27.3908 208.9 27.8522 208.9 28.4521V32.896H207.613ZM215.125 33.0621C214.377 33.0621 213.726 32.8775 213.173 32.5084C212.619 32.1392 212.227 31.6408 211.996 31.0132L213.02 30.5149C213.233 30.9579 213.523 31.3086 213.893 31.567C214.262 31.8254 214.672 31.9546 215.125 31.9546C215.531 31.9546 215.868 31.8577 216.135 31.6639C216.403 31.4701 216.537 31.2163 216.537 30.9025C216.537 30.681 216.472 30.5056 216.343 30.3764C216.223 30.238 216.075 30.1318 215.9 30.058C215.725 29.9749 215.563 29.915 215.415 29.878L214.294 29.5596C213.62 29.3658 213.127 29.0889 212.813 28.729C212.508 28.3691 212.356 27.9491 212.356 27.4692C212.356 27.0262 212.467 26.6432 212.688 26.3202C212.919 25.9879 213.228 25.7295 213.616 25.5449C214.013 25.3603 214.456 25.268 214.945 25.268C215.6 25.268 216.186 25.4342 216.703 25.7664C217.229 26.0987 217.603 26.5647 217.824 27.1646L216.772 27.6492C216.606 27.2615 216.357 26.957 216.025 26.7355C215.692 26.5047 215.319 26.3894 214.903 26.3894C214.525 26.3894 214.225 26.4863 214.003 26.6801C213.782 26.8647 213.671 27.1 213.671 27.3861C213.671 27.5984 213.726 27.7738 213.837 27.9122C213.948 28.0414 214.082 28.1429 214.239 28.2168C214.396 28.2814 214.548 28.3367 214.696 28.3829L215.914 28.7428C216.523 28.9182 216.994 29.1905 217.326 29.5596C217.667 29.9288 217.838 30.3718 217.838 30.8886C217.838 31.304 217.723 31.6777 217.492 32.01C217.261 32.3422 216.943 32.6007 216.537 32.7852C216.131 32.9698 215.66 33.0621 215.125 33.0621Z" fill="#444444"/>
<path d="M69.876 46.5556V45.7106H66.067V42.2006H70.617V41.3426H65.131V50.6506H66.067V46.5556H69.876ZM74.89 44.2806C74.669 44.2286 74.5 44.2156 74.305 44.2156C73.421 44.2156 72.758 44.6576 72.511 45.3336L72.446 44.3586H71.601V50.6506H72.498V47.0626C72.498 45.8666 73.239 45.0866 74.396 45.0866H74.89V44.2806ZM75.3993 47.5046C75.3993 49.4156 76.7513 50.8066 78.5973 50.8066C80.4433 50.8066 81.7953 49.4156 81.7953 47.5046C81.7953 45.5806 80.4433 44.1896 78.5973 44.1896C76.7513 44.1896 75.3993 45.5806 75.3993 47.5046ZM76.3093 47.4916C76.3093 46.0356 77.2453 44.9956 78.5973 44.9956C79.9363 44.9956 80.8853 46.0356 80.8853 47.4916C80.8853 48.9736 79.9363 50.0006 78.5973 50.0006C77.2453 50.0006 76.3093 48.9736 76.3093 47.4916ZM84.1269 50.6506V46.7506C84.1269 45.7886 84.7639 45.0086 85.8169 45.0086C86.7659 45.0086 87.3769 45.6326 87.3769 46.6986V50.6506H88.2609V46.7636C88.2609 45.7886 88.8849 44.9956 89.9379 44.9956C90.8999 44.9956 91.4979 45.6326 91.4979 46.7116V50.6506H92.3689V46.5296C92.3689 45.0736 91.4719 44.1896 90.1069 44.1896C89.0929 44.1896 88.3259 44.7096 88.0399 45.5286C87.7409 44.7096 86.9999 44.1896 86.0119 44.1896C85.1279 44.1896 84.4259 44.5926 84.1139 45.2556L84.0099 44.3586H83.2299V50.6506H84.1269ZM99.5858 50.8066C100.652 50.8066 101.51 50.3386 101.9 49.5456L102.017 50.6506H102.771V46.5816C102.771 44.9176 101.705 44.1896 100.249 44.1896C98.7018 44.1896 97.6618 45.0086 97.6618 46.2826H98.4808C98.4808 45.4376 99.1308 44.9436 100.223 44.9436C101.146 44.9436 101.887 45.3336 101.887 46.5686V46.7766L99.8068 46.9456C98.3378 47.0626 97.4538 47.7906 97.4538 48.9476C97.4538 50.0526 98.2468 50.8066 99.5858 50.8066ZM99.7938 50.0786C98.9358 50.0786 98.3638 49.6886 98.3638 48.9216C98.3638 48.2196 98.8448 47.6996 100.028 47.5956L101.887 47.4526V47.7906C101.887 49.1556 101.12 50.0786 99.7938 50.0786ZM105.507 50.6506V41.1736H104.61V50.6506H105.507ZM108.351 50.6506V41.1736H107.454V50.6506H108.351ZM115.671 50.8066C116.737 50.8066 117.595 50.3386 117.985 49.5456L118.102 50.6506H118.856V46.5816C118.856 44.9176 117.79 44.1896 116.334 44.1896C114.787 44.1896 113.747 45.0086 113.747 46.2826H114.566C114.566 45.4376 115.216 44.9436 116.308 44.9436C117.231 44.9436 117.972 45.3336 117.972 46.5686V46.7766L115.892 46.9456C114.423 47.0626 113.539 47.7906 113.539 48.9476C113.539 50.0526 114.332 50.8066 115.671 50.8066ZM115.879 50.0786C115.021 50.0786 114.449 49.6886 114.449 48.9216C114.449 48.2196 114.93 47.6996 116.113 47.5956L117.972 47.4526V47.7906C117.972 49.1556 117.205 50.0786 115.879 50.0786ZM123.945 44.2806C123.724 44.2286 123.555 44.2156 123.36 44.2156C122.476 44.2156 121.813 44.6576 121.566 45.3336L121.501 44.3586H120.656V50.6506H121.553V47.0626C121.553 45.8666 122.294 45.0866 123.451 45.0866H123.945V44.2806ZM124.454 47.5046C124.454 49.4156 125.806 50.8066 127.652 50.8066C129.498 50.8066 130.85 49.4156 130.85 47.5046C130.85 45.5806 129.498 44.1896 127.652 44.1896C125.806 44.1896 124.454 45.5806 124.454 47.5046ZM125.364 47.4916C125.364 46.0356 126.3 44.9956 127.652 44.9956C128.991 44.9956 129.94 46.0356 129.94 47.4916C129.94 48.9736 128.991 50.0006 127.652 50.0006C126.3 50.0006 125.364 48.9736 125.364 47.4916ZM136.552 44.3586V47.6996C136.552 49.1946 135.837 50.0006 134.628 50.0006C133.627 50.0006 132.964 49.4676 132.964 47.9726V44.3456H132.054V48.2586C132.054 49.7926 132.86 50.8066 134.342 50.8066C135.33 50.8066 136.201 50.3126 136.552 49.5846L136.669 50.6506H137.449V44.3586H136.552ZM140.215 50.6506V47.3616C140.215 45.9446 140.943 45.0086 142.23 45.0086C143.27 45.0086 143.933 45.5286 143.933 46.9976V50.6506H144.83V46.8026C144.83 45.2166 144.115 44.1896 142.386 44.1896C141.476 44.1896 140.644 44.6446 140.228 45.4506L140.098 44.3586H139.318V50.6506H140.215ZM149.088 50.8066C150.141 50.8066 151.025 50.3386 151.467 49.3636L151.558 50.6506H152.338V41.1736H151.441V45.5546C150.999 44.6446 150.167 44.1896 149.127 44.1896C147.255 44.1896 146.176 45.6196 146.176 47.5176C146.176 49.4026 147.255 50.8066 149.088 50.8066ZM149.244 49.9876C147.879 49.9876 147.086 48.9476 147.086 47.4916C147.086 46.0486 147.879 44.9956 149.244 44.9956C150.622 44.9956 151.428 46.0486 151.428 47.4916C151.428 48.9476 150.622 49.9876 149.244 49.9876ZM159.258 50.6506V45.1126H160.519V44.3586H159.258V42.3696H158.374V44.3586H157.113V45.1126H158.374V50.6506H159.258ZM162.584 50.6376V47.2186C162.584 46.0096 163.286 45.0086 164.638 45.0086C165.613 45.0086 166.302 45.5286 166.302 46.9976V50.6506H167.199V46.8026C167.199 45.2166 166.458 44.1896 164.807 44.1896C163.754 44.1896 162.987 44.6966 162.584 45.4506V41.1736H161.687V50.6376H162.584ZM171.626 50.8066C173.108 50.8066 174.083 50.0916 174.421 48.7656H173.563C173.329 49.5976 172.666 50.0396 171.639 50.0396C170.287 50.0396 169.481 49.1556 169.416 47.6216H174.421V47.1796C174.421 45.3986 173.264 44.1896 171.561 44.1896C169.767 44.1896 168.545 45.5416 168.545 47.5046C168.545 49.4806 169.78 50.8066 171.626 50.8066ZM171.561 44.9566C172.744 44.9566 173.524 45.7626 173.524 46.9716H169.442C169.598 45.7366 170.378 44.9566 171.561 44.9566ZM180.786 50.6506H181.683L182.983 46.6986C183.152 46.1786 183.256 45.8016 183.347 45.4636C183.425 45.8406 183.529 46.2306 183.685 46.6986L184.985 50.6506H185.856L187.988 44.3586H187.052L185.804 48.1546C185.583 48.8306 185.557 48.9866 185.427 49.5066C185.31 49.0386 185.154 48.4926 185.037 48.1546L183.802 44.3586H182.879L181.631 48.1546C181.566 48.3626 181.358 48.9996 181.254 49.5066C181.124 48.9996 181.007 48.5706 180.864 48.1546L179.629 44.3586H178.706L180.786 50.6506ZM188.388 47.5046C188.388 49.4156 189.74 50.8066 191.586 50.8066C193.432 50.8066 194.784 49.4156 194.784 47.5046C194.784 45.5806 193.432 44.1896 191.586 44.1896C189.74 44.1896 188.388 45.5806 188.388 47.5046ZM189.298 47.4916C189.298 46.0356 190.234 44.9956 191.586 44.9956C192.925 44.9956 193.874 46.0356 193.874 47.4916C193.874 48.9736 192.925 50.0006 191.586 50.0006C190.234 50.0006 189.298 48.9736 189.298 47.4916ZM199.507 44.2806C199.286 44.2286 199.117 44.2156 198.922 44.2156C198.038 44.2156 197.375 44.6576 197.128 45.3336L197.063 44.3586H196.218V50.6506H197.115V47.0626C197.115 45.8666 197.856 45.0866 199.013 45.0866H199.507V44.2806ZM201.636 50.6506V41.1736H200.739V50.6506H201.636ZM206.013 50.8066C207.066 50.8066 207.95 50.3386 208.392 49.3636L208.483 50.6506H209.263V41.1736H208.366V45.5546C207.924 44.6446 207.092 44.1896 206.052 44.1896C204.18 44.1896 203.101 45.6196 203.101 47.5176C203.101 49.4026 204.18 50.8066 206.013 50.8066ZM206.169 49.9876C204.804 49.9876 204.011 48.9476 204.011 47.4916C204.011 46.0486 204.804 44.9956 206.169 44.9956C207.547 44.9956 208.353 46.0486 208.353 47.4916C208.353 48.9476 207.547 49.9876 206.169 49.9876Z" fill="#666666"/>
<defs>
<filter id="filter0_b_1_768" x="-113.178" y="-113.881" width="478.179" height="301.175" filterUnits="userSpaceOnUse" color-interpolation-filters="sRGB">
<feFlood flood-opacity="0" result="BackgroundImageFix"/>
<feGaussianBlur in="BackgroundImageFix" stdDeviation="57"/>
<feComposite in2="SourceAlpha" operator="in" result="effect1_backgroundBlur_1_768"/>
<feBlend mode="normal" in="SourceGraphic" in2="effect1_backgroundBlur_1_768" result="shape"/>
</filter>
<clipPath id="clip0_1_768">
<rect width="27" height="27" fill="white" transform="translate(19 23.5)"/>
</clipPath>
</defs>
</svg>
