<svg width="24" height="25" viewBox="0 0 24 25" fill="none" xmlns="http://www.w3.org/2000/svg">
<path d="M12 9.00146C11.2044 9.00146 10.4413 9.31753 9.87868 9.88014C9.31607 10.4428 9 11.2058 9 12.0015C9 12.7971 9.31607 13.5602 9.87868 14.1228C10.4413 14.6854 11.2044 15.0015 12 15.0015C12.7956 15.0015 13.5587 14.6854 14.1213 14.1228C14.6839 13.5602 15 12.7971 15 12.0015C15 11.2058 14.6839 10.4428 14.1213 9.88014C13.5587 9.31753 12.7956 9.00146 12 9.00146ZM12 7.00146C13.3261 7.00146 14.5979 7.52825 15.5355 8.46593C16.4732 9.40361 17 10.6754 17 12.0015C17 13.3275 16.4732 14.5993 15.5355 15.537C14.5979 16.4747 13.3261 17.0015 12 17.0015C10.6739 17.0015 9.40215 16.4747 8.46447 15.537C7.52678 14.5993 7 13.3275 7 12.0015C7 10.6754 7.52678 9.40361 8.46447 8.46593C9.40215 7.52825 10.6739 7.00146 12 7.00146ZM18.5 6.75146C18.5 7.08299 18.3683 7.40093 18.1339 7.63535C17.8995 7.86977 17.5815 8.00146 17.25 8.00146C16.9185 8.00146 16.6005 7.86977 16.3661 7.63535C16.1317 7.40093 16 7.08299 16 6.75146C16 6.41994 16.1317 6.102 16.3661 5.86758C16.6005 5.63316 16.9185 5.50146 17.25 5.50146C17.5815 5.50146 17.8995 5.63316 18.1339 5.86758C18.3683 6.102 18.5 6.41994 18.5 6.75146ZM12 4.00146C9.526 4.00146 9.122 4.00846 7.971 4.05946C7.187 4.09646 6.661 4.20146 6.173 4.39146C5.739 4.55946 5.426 4.76046 5.093 5.09446C4.78001 5.39686 4.53935 5.76605 4.389 6.17446C4.199 6.66446 4.094 7.18947 4.058 7.97247C4.006 9.07647 4 9.46246 4 12.0015C4 14.4755 4.007 14.8795 4.058 16.0305C4.095 16.8135 4.2 17.3405 4.389 17.8275C4.559 18.2625 4.759 18.5755 5.091 18.9075C5.428 19.2435 5.741 19.4445 6.171 19.6105C6.665 19.8015 7.191 19.9075 7.971 19.9435C9.075 19.9955 9.461 20.0015 12 20.0015C14.474 20.0015 14.878 19.9945 16.029 19.9435C16.811 19.9065 17.338 19.8015 17.826 19.6125C18.259 19.4435 18.574 19.2425 18.906 18.9105C19.243 18.5735 19.444 18.2605 19.61 17.8305C19.8 17.3375 19.906 16.8105 19.942 16.0305C19.994 14.9265 20 14.5405 20 12.0015C20 9.52746 19.993 9.12347 19.942 7.97247C19.905 7.19046 19.8 6.66246 19.61 6.17446C19.4593 5.76647 19.2191 5.39743 18.907 5.09446C18.6047 4.78131 18.2355 4.54063 17.827 4.39046C17.337 4.20046 16.811 4.09546 16.029 4.05946C14.925 4.00746 14.539 4.00146 12 4.00146ZM12 2.00146C14.717 2.00146 15.056 2.01146 16.122 2.06146C17.187 2.11146 17.912 2.27846 18.55 2.52646C19.21 2.78046 19.766 3.12446 20.322 3.67946C20.8305 4.17936 21.224 4.78405 21.475 5.45146C21.722 6.08846 21.89 6.81446 21.94 7.87946C21.987 8.94546 22 9.28446 22 12.0015C22 14.7185 21.99 15.0575 21.94 16.1235C21.89 17.1885 21.722 17.9135 21.475 18.5515C21.2247 19.2192 20.8311 19.8241 20.322 20.3235C19.822 20.8318 19.2173 21.2252 18.55 21.4765C17.913 21.7235 17.187 21.8915 16.122 21.9415C15.056 21.9885 14.717 22.0015 12 22.0015C9.283 22.0015 8.944 21.9915 7.878 21.9415C6.813 21.8915 6.088 21.7235 5.45 21.4765C4.78233 21.2259 4.17753 20.8324 3.678 20.3235C3.16941 19.8237 2.77593 19.2189 2.525 18.5515C2.277 17.9145 2.11 17.1885 2.06 16.1235C2.013 15.0575 2 14.7185 2 12.0015C2 9.28446 2.01 8.94546 2.06 7.87946C2.11 6.81346 2.277 6.08946 2.525 5.45146C2.77524 4.78364 3.1688 4.17879 3.678 3.67946C4.17767 3.1707 4.78243 2.77719 5.45 2.52646C6.088 2.27846 6.812 2.11146 7.878 2.06146C8.944 2.01446 9.283 2.00146 12 2.00146Z" fill="#1C3533"/>
</svg>
