<svg width="420" height="237" viewBox="0 0 420 237" fill="none" xmlns="http://www.w3.org/2000/svg">
<rect x="34" y="148.87" width="180.659" height="55.4642" rx="3.24664" fill="#75FB92"/>
<path d="M79.08 181.103V169.01H80.9955V181.103H79.08ZM83.9899 173.247L83.7464 169.01H85.4509L85.2074 173.247H83.9899ZM88.0168 181.103V172.321H89.77V174.221L89.5427 173.928C89.7267 173.333 90.0622 172.884 90.5492 172.581C91.0362 172.278 91.5935 172.126 92.2212 172.126C92.9246 172.126 93.5469 172.316 94.088 172.695C94.6399 173.063 95.0079 173.555 95.1918 174.172L94.6724 174.221C94.9321 173.517 95.3271 172.992 95.8574 172.646C96.3985 172.3 97.0154 172.126 97.708 172.126C98.314 172.126 98.8606 172.267 99.3475 172.549C99.8454 172.83 100.24 173.219 100.533 173.717C100.825 174.215 100.971 174.783 100.971 175.422V181.103H99.1365V175.925C99.1365 175.481 99.0553 175.108 98.893 174.805C98.7415 174.491 98.5251 174.253 98.2437 174.091C97.9731 173.918 97.6539 173.831 97.2859 173.831C96.918 173.831 96.5933 173.918 96.3119 174.091C96.0306 174.253 95.8087 174.491 95.6464 174.805C95.484 175.119 95.4029 175.492 95.4029 175.925V181.103H93.5848V175.925C93.5848 175.481 93.5036 175.108 93.3413 174.805C93.1898 174.491 92.9733 174.253 92.6919 174.091C92.4214 173.918 92.0967 173.831 91.7179 173.831C91.35 173.831 91.0253 173.918 90.744 174.091C90.4626 174.253 90.2407 174.491 90.0784 174.805C89.9269 175.119 89.8511 175.492 89.8511 175.925V181.103H88.0168ZM108.402 181.298C107.806 181.298 107.282 181.195 106.827 180.99C106.383 180.773 106.037 180.481 105.788 180.113C105.539 179.734 105.415 179.291 105.415 178.782C105.415 178.306 105.518 177.878 105.723 177.5C105.94 177.121 106.27 176.802 106.713 176.542C107.157 176.282 107.714 176.098 108.385 175.99L111.437 175.487V176.931L108.743 177.402C108.256 177.489 107.898 177.646 107.671 177.873C107.444 178.089 107.33 178.371 107.33 178.717C107.33 179.053 107.455 179.329 107.704 179.545C107.963 179.751 108.293 179.853 108.694 179.853C109.192 179.853 109.625 179.745 109.992 179.529C110.371 179.312 110.663 179.026 110.869 178.668C111.075 178.3 111.177 177.895 111.177 177.451V175.195C111.177 174.762 111.015 174.41 110.69 174.139C110.377 173.858 109.955 173.717 109.424 173.717C108.937 173.717 108.51 173.847 108.142 174.107C107.785 174.356 107.52 174.68 107.346 175.081L105.821 174.318C105.983 173.885 106.248 173.506 106.616 173.182C106.984 172.846 107.411 172.586 107.898 172.402C108.396 172.218 108.921 172.126 109.473 172.126C110.166 172.126 110.777 172.256 111.307 172.516C111.848 172.776 112.265 173.138 112.557 173.604C112.86 174.058 113.012 174.588 113.012 175.195V181.103H111.259V179.513L111.632 179.561C111.426 179.918 111.161 180.227 110.837 180.487C110.523 180.746 110.16 180.946 109.749 181.087C109.349 181.228 108.899 181.298 108.402 181.298ZM122.686 181.298C122.004 181.298 121.382 181.158 120.819 180.876C120.267 180.595 119.839 180.189 119.536 179.659L119.747 179.318V181.103H117.994V168.815H119.829V174.139L119.536 173.717C119.861 173.219 120.294 172.83 120.835 172.549C121.376 172.267 121.993 172.126 122.686 172.126C123.519 172.126 124.266 172.327 124.926 172.727C125.597 173.127 126.122 173.674 126.5 174.367C126.89 175.059 127.085 175.838 127.085 176.704C127.085 177.57 126.89 178.349 126.5 179.042C126.122 179.734 125.602 180.286 124.942 180.698C124.282 181.098 123.53 181.298 122.686 181.298ZM122.507 179.594C123.027 179.594 123.487 179.469 123.887 179.22C124.287 178.971 124.601 178.631 124.828 178.198C125.067 177.754 125.186 177.256 125.186 176.704C125.186 176.152 125.067 175.66 124.828 175.227C124.601 174.794 124.287 174.453 123.887 174.204C123.487 173.955 123.027 173.831 122.507 173.831C121.998 173.831 121.539 173.955 121.127 174.204C120.727 174.453 120.408 174.794 120.17 175.227C119.942 175.66 119.829 176.152 119.829 176.704C119.829 177.256 119.942 177.754 120.17 178.198C120.408 178.631 120.727 178.971 121.127 179.22C121.539 179.469 121.998 179.594 122.507 179.594ZM132.002 181.298C131.342 181.298 130.763 181.152 130.265 180.86C129.767 180.557 129.378 180.14 129.097 179.61C128.826 179.069 128.691 178.447 128.691 177.743V172.321H130.525V177.581C130.525 177.981 130.606 178.333 130.769 178.636C130.931 178.939 131.158 179.177 131.45 179.35C131.743 179.513 132.078 179.594 132.457 179.594C132.846 179.594 133.187 179.507 133.479 179.334C133.772 179.161 133.999 178.917 134.161 178.603C134.334 178.29 134.421 177.922 134.421 177.5V172.321H136.239V181.103H134.502V179.383L134.697 179.61C134.491 180.151 134.15 180.568 133.674 180.86C133.198 181.152 132.641 181.298 132.002 181.298ZM142.179 181.201C141.26 181.201 140.545 180.941 140.037 180.422C139.528 179.902 139.274 179.172 139.274 178.23V173.977H137.732V172.321H137.975C138.386 172.321 138.706 172.202 138.933 171.964C139.16 171.726 139.274 171.401 139.274 170.99V170.308H141.108V172.321H143.105V173.977H141.108V178.149C141.108 178.452 141.157 178.712 141.254 178.928C141.352 179.134 141.508 179.296 141.725 179.415C141.941 179.523 142.223 179.577 142.569 179.577C142.656 179.577 142.753 179.572 142.861 179.561C142.969 179.55 143.072 179.54 143.17 179.529V181.103C143.018 181.125 142.85 181.147 142.666 181.168C142.482 181.19 142.32 181.201 142.179 181.201ZM148.758 181.201C147.838 181.201 147.124 180.941 146.616 180.422C146.107 179.902 145.853 179.172 145.853 178.23V173.977H144.31V172.321H144.554C144.965 172.321 145.284 172.202 145.512 171.964C145.739 171.726 145.853 171.401 145.853 170.99V170.308H147.687V172.321H149.684V173.977H147.687V178.149C147.687 178.452 147.736 178.712 147.833 178.928C147.93 179.134 148.087 179.296 148.304 179.415C148.52 179.523 148.802 179.577 149.148 179.577C149.234 179.577 149.332 179.572 149.44 179.561C149.548 179.55 149.651 179.54 149.749 179.529V181.103C149.597 181.125 149.429 181.147 149.245 181.168C149.061 181.19 148.899 181.201 148.758 181.201ZM155.617 181.298C154.773 181.298 153.999 181.098 153.296 180.698C152.603 180.297 152.051 179.751 151.64 179.058C151.229 178.365 151.023 177.581 151.023 176.704C151.023 175.817 151.229 175.032 151.64 174.35C152.051 173.658 152.603 173.117 153.296 172.727C153.988 172.327 154.762 172.126 155.617 172.126C156.483 172.126 157.257 172.327 157.938 172.727C158.631 173.117 159.177 173.658 159.578 174.35C159.989 175.032 160.195 175.817 160.195 176.704C160.195 177.592 159.989 178.382 159.578 179.074C159.167 179.767 158.615 180.313 157.922 180.714C157.229 181.103 156.461 181.298 155.617 181.298ZM155.617 179.594C156.136 179.594 156.596 179.469 156.997 179.22C157.397 178.971 157.711 178.631 157.938 178.198C158.176 177.754 158.295 177.256 158.295 176.704C158.295 176.152 158.176 175.66 157.938 175.227C157.711 174.794 157.397 174.453 156.997 174.204C156.596 173.955 156.136 173.831 155.617 173.831C155.108 173.831 154.648 173.955 154.237 174.204C153.837 174.453 153.517 174.794 153.279 175.227C153.052 175.66 152.938 176.152 152.938 176.704C152.938 177.256 153.052 177.754 153.279 178.198C153.517 178.631 153.837 178.971 154.237 179.22C154.648 179.469 155.108 179.594 155.617 179.594ZM161.986 181.103V172.321H163.739V174.042L163.528 173.815C163.744 173.263 164.09 172.846 164.567 172.565C165.043 172.273 165.595 172.126 166.222 172.126C166.872 172.126 167.445 172.267 167.943 172.549C168.441 172.83 168.831 173.219 169.112 173.717C169.393 174.215 169.534 174.789 169.534 175.438V181.103H167.716V175.925C167.716 175.481 167.635 175.108 167.472 174.805C167.31 174.491 167.077 174.253 166.774 174.091C166.482 173.918 166.147 173.831 165.768 173.831C165.389 173.831 165.048 173.918 164.745 174.091C164.453 174.253 164.226 174.491 164.063 174.805C163.901 175.119 163.82 175.492 163.82 175.925V181.103H161.986Z" fill="black"/>
<path d="M268.794 163.32C270.011 162.026 270.763 160.241 270.763 158.268C270.763 154.317 267.744 151.114 264.019 151.114C261.665 151.114 259.594 152.397 258.388 154.336C258.068 154.677 231.221 189.776 230.97 190.18C229.753 191.474 229 193.26 229 195.231C229 199.183 232.02 202.386 235.744 202.386C238.099 202.386 240.169 201.104 241.375 199.164C241.696 198.823 268.543 163.723 268.794 163.32Z" fill="#1C3533"/>
<path d="M283.315 179.41C284.536 178.082 285.291 176.249 285.291 174.224C285.291 170.174 282.269 166.89 278.541 166.89C276.184 166.89 274.111 168.206 272.903 170.196C272.58 170.548 258.467 189.45 258.215 189.866C256.993 191.194 256.238 193.026 256.238 195.051C256.238 199.102 259.26 202.386 262.988 202.386C265.346 202.386 267.419 201.07 268.626 199.08C268.949 198.728 283.062 179.826 283.315 179.41Z" fill="#1C3533"/>
<path d="M298 158.016C298 161.828 295.154 164.918 291.644 164.918C288.134 164.918 285.289 161.828 285.289 158.016C285.289 154.205 288.134 151.114 291.644 151.114C295.154 151.114 298 154.205 298 158.016Z" fill="#1C3533"/>
<path d="M241.711 158.016C241.711 161.828 238.865 164.918 235.355 164.918C231.846 164.918 229 161.828 229 158.016C229 154.205 231.846 151.114 235.355 151.114C238.865 151.114 241.711 154.205 241.711 158.016Z" fill="#1C3533"/>
<rect x="322" y="148" width="63.209" height="53.9998" rx="7.53485" fill="#1C3533"/>
<path d="M346.325 170.841L353.422 166.587C353.541 166.515 353.677 166.477 353.817 166.477C353.956 166.477 354.092 166.515 354.211 166.587L361.301 170.842C361.358 170.876 361.405 170.925 361.438 170.982C361.47 171.04 361.487 171.105 361.487 171.171V180.93C361.487 181.134 361.407 181.329 361.263 181.473C361.119 181.617 360.924 181.698 360.72 181.698H346.906C346.703 181.698 346.507 181.617 346.363 181.473C346.22 181.329 346.139 181.134 346.139 180.93V171.171C346.139 171.104 346.156 171.039 346.189 170.981C346.221 170.924 346.268 170.876 346.325 170.841ZM347.674 171.823V180.163H359.953V171.822L353.816 168.139L347.674 171.822V171.823ZM353.859 176.094L357.923 172.669L358.912 173.843L353.87 178.092L348.72 173.848L349.697 172.663L353.859 176.094Z" fill="#C0D8D6"/>
<rect x="222.5" y="102.5" width="15" height="15" rx="3.5" fill="white" stroke="#E7E9EA"/>
<path d="M248.73 105.155H247.26V116H248.73V105.155ZM252.339 106.07C252.429 105.395 251.964 105.11 251.589 105.11C251.154 105.11 250.689 105.395 250.779 106.07L251.169 109.175H251.979L252.339 106.07ZM255.549 116V111.65C255.549 110.48 256.254 109.745 257.319 109.745C258.309 109.745 258.939 110.375 258.939 111.53V116H260.334V111.65C260.334 110.48 261.039 109.73 262.104 109.73C263.094 109.73 263.739 110.39 263.739 111.545V116H265.119V111.2C265.119 109.505 264.099 108.455 262.419 108.455C261.279 108.455 260.394 109.025 260.049 109.94C259.674 109.025 258.864 108.455 257.724 108.455C256.689 108.455 255.909 108.935 255.534 109.625L255.399 108.665H254.139V116H255.549ZM273.32 116.18C274.505 116.18 275.51 115.655 275.885 114.815L276.035 116H277.235V111.395C277.235 109.415 276.005 108.455 274.19 108.455C272.3 108.455 271.04 109.46 271.04 110.99H272.27C272.27 110.105 272.945 109.58 274.13 109.58C275.12 109.58 275.855 110.015 275.855 111.245V111.455L273.545 111.635C271.82 111.77 270.815 112.61 270.815 113.96C270.815 115.295 271.745 116.18 273.32 116.18ZM273.725 115.085C272.81 115.085 272.24 114.695 272.24 113.915C272.24 113.195 272.75 112.715 273.995 112.595L275.87 112.445V112.835C275.87 114.215 275.06 115.085 273.725 115.085ZM282.81 112.34C282.81 114.65 284.235 116.18 286.395 116.18C288.165 116.18 289.53 115.115 289.815 113.525H288.405C288.15 114.395 287.4 114.92 286.395 114.92C285.06 114.92 284.205 113.9 284.205 112.325C284.205 110.735 285.12 109.715 286.455 109.715C287.4 109.715 288.15 110.21 288.39 111.14H289.8C289.545 109.505 288.255 108.455 286.41 108.455C284.265 108.455 282.81 110.045 282.81 112.34ZM292.712 115.985V111.995C292.712 110.735 293.447 109.745 294.812 109.745C295.862 109.745 296.567 110.345 296.567 111.83V116H297.977V111.515C297.977 109.64 297.077 108.455 295.202 108.455C294.062 108.455 293.177 108.995 292.712 109.79V104.96H291.302V115.985H292.712ZM303.095 116.18C304.91 116.18 306.14 115.295 306.5 113.72H305.18C304.94 114.56 304.22 115.01 303.125 115.01C301.73 115.01 300.92 114.155 300.815 112.61L306.485 112.595V112.07C306.485 109.895 305.12 108.455 303.035 108.455C300.905 108.455 299.45 110.045 299.45 112.34C299.45 114.62 300.935 116.18 303.095 116.18ZM303.035 109.64C304.28 109.64 305.075 110.45 305.075 111.665H300.845C301.025 110.375 301.805 109.64 303.035 109.64ZM307.58 112.34C307.58 114.65 309.005 116.18 311.165 116.18C312.935 116.18 314.3 115.115 314.585 113.525H313.175C312.92 114.395 312.17 114.92 311.165 114.92C309.83 114.92 308.975 113.9 308.975 112.325C308.975 110.735 309.89 109.715 311.225 109.715C312.17 109.715 312.92 110.21 313.16 111.14H314.57C314.315 109.505 313.025 108.455 311.18 108.455C309.035 108.455 307.58 110.045 307.58 112.34ZM317.513 116V113.915L318.758 112.61L320.903 116H322.523L319.733 111.59L322.538 108.665H320.768L317.513 112.115V104.96H316.103V116H317.513ZM324.965 116L325.07 114.665C325.55 115.67 326.525 116.18 327.68 116.18C329.81 116.18 331.13 114.59 331.13 112.37C331.13 110.105 329.87 108.455 327.77 108.455C326.57 108.455 325.58 108.965 325.1 109.925V104.96H323.69V116H324.965ZM325.115 112.31C325.115 110.81 325.985 109.73 327.425 109.73C328.865 109.73 329.72 110.81 329.72 112.31C329.72 113.825 328.865 114.905 327.425 114.905C325.985 114.905 325.115 113.84 325.115 112.31ZM332.204 112.325C332.204 114.59 333.824 116.18 336.029 116.18C338.219 116.18 339.839 114.59 339.839 112.325C339.839 110.06 338.219 108.47 336.029 108.47C333.824 108.47 332.204 110.06 332.204 112.325ZM333.629 112.325C333.629 110.795 334.604 109.73 336.029 109.73C337.439 109.73 338.429 110.795 338.429 112.325C338.429 113.855 337.439 114.92 336.029 114.92C334.604 114.92 333.629 113.855 333.629 112.325ZM341.872 116L343.672 113.315L345.502 116H347.137L344.632 112.37L347.182 108.665H345.577L343.762 111.395L341.902 108.665H340.267L342.817 112.37L340.252 116H341.872ZM357.424 116H358.834V108.665H354.169V107.495C354.169 106.7 354.394 106.235 355.249 106.235H355.879V105.02C355.609 104.975 355.279 104.96 355.009 104.96C353.734 104.96 352.759 105.695 352.759 107.495V108.665H351.679V109.85H352.759V116H354.169V109.85H357.424V116ZM358.129 106.865C358.624 106.865 359.014 106.475 359.014 105.965C359.014 105.455 358.624 105.065 358.129 105.065C357.619 105.065 357.229 105.455 357.229 105.965C357.229 106.475 357.619 106.865 358.129 106.865ZM364.003 116.18C365.818 116.18 367.048 115.295 367.408 113.72H366.088C365.848 114.56 365.128 115.01 364.033 115.01C362.638 115.01 361.828 114.155 361.723 112.61L367.393 112.595V112.07C367.393 109.895 366.028 108.455 363.943 108.455C361.813 108.455 360.358 110.045 360.358 112.34C360.358 114.62 361.843 116.18 364.003 116.18ZM363.943 109.64C365.188 109.64 365.983 110.45 365.983 111.665H361.753C361.933 110.375 362.713 109.64 363.943 109.64ZM370.408 116V104.96H368.998V116H370.408ZM375.424 116.18C376.594 116.18 377.584 115.67 378.064 114.665L378.184 116H379.444V104.96H378.049V109.85C377.554 108.95 376.609 108.455 375.484 108.455C373.309 108.455 372.004 110.105 372.004 112.355C372.004 114.59 373.294 116.18 375.424 116.18ZM375.709 114.905C374.269 114.905 373.429 113.825 373.429 112.31C373.429 110.81 374.269 109.73 375.709 109.73C377.149 109.73 378.034 110.81 378.034 112.31C378.034 113.84 377.149 114.905 375.709 114.905Z" fill="#1C3533"/>
<path d="M106.355 115.52L101.151 119.609V101.504C101.151 101.194 101.274 100.897 101.493 100.678C101.713 100.459 102.01 100.336 102.319 100.336H119.84C120.15 100.336 120.447 100.459 120.666 100.678C120.885 100.897 121.008 101.194 121.008 101.504V115.52H106.355ZM105.547 113.184H118.672V102.672H103.487V114.802L105.547 113.184ZM109.328 117.857H121.285L123.344 119.474V107.344H124.512C124.822 107.344 125.119 107.467 125.338 107.686C125.557 107.905 125.68 108.203 125.68 108.512V124.281L120.476 120.193H110.496C110.186 120.193 109.889 120.07 109.67 119.851C109.451 119.631 109.328 119.334 109.328 119.025V117.857Z" fill="#1C3533"/>
<path d="M158.15 113.184V119.708L160.285 117.573L161.938 119.225L156.982 124.18L152.026 119.225L153.679 117.573L155.814 119.708V113.184H158.15ZM156.982 100.336C158.988 100.336 160.923 101.073 162.421 102.407C163.918 103.741 164.874 105.579 165.105 107.571C166.558 107.967 167.826 108.862 168.687 110.098C169.547 111.334 169.946 112.834 169.814 114.334C169.681 115.835 169.025 117.241 167.961 118.307C166.897 119.373 165.492 120.032 163.992 120.167V117.815C164.529 117.738 165.046 117.555 165.512 117.276C165.978 116.997 166.384 116.629 166.706 116.191C167.027 115.754 167.259 115.257 167.387 114.73C167.515 114.202 167.536 113.654 167.45 113.118C167.364 112.582 167.171 112.068 166.884 111.607C166.598 111.146 166.222 110.747 165.779 110.433C165.336 110.119 164.835 109.896 164.305 109.778C163.775 109.659 163.227 109.648 162.693 109.743C162.876 108.892 162.866 108.01 162.664 107.163C162.462 106.315 162.073 105.524 161.525 104.846C160.978 104.169 160.286 103.622 159.5 103.247C158.714 102.872 157.854 102.677 156.983 102.677C156.112 102.677 155.252 102.872 154.466 103.247C153.68 103.622 152.988 104.169 152.44 104.846C151.893 105.524 151.504 106.315 151.302 107.163C151.1 108.01 151.09 108.892 151.273 109.743C150.207 109.543 149.106 109.775 148.211 110.387C147.316 110.999 146.7 111.941 146.5 113.007C146.3 114.073 146.532 115.174 147.144 116.069C147.756 116.964 148.698 117.579 149.764 117.779L149.974 117.815V120.167C148.474 120.032 147.068 119.374 146.004 118.308C144.94 117.242 144.284 115.835 144.151 114.335C144.018 112.834 144.417 111.335 145.278 110.098C146.138 108.862 147.406 107.967 148.86 107.571C149.091 105.579 150.046 103.741 151.543 102.407C153.041 101.073 154.977 100.336 156.982 100.336Z" fill="#1C3533"/>
<path d="M59.3359 123.697C59.3359 121.219 60.3204 118.842 62.0728 117.089C63.8252 115.337 66.2019 114.353 68.6802 114.353C71.1585 114.353 73.5352 115.337 75.2876 117.089C77.04 118.842 78.0245 121.219 78.0245 123.697H75.6884C75.6884 121.838 74.95 120.056 73.6357 118.741C72.3215 117.427 70.5389 116.689 68.6802 116.689C66.8215 116.689 65.0389 117.427 63.7247 118.741C62.4104 120.056 61.672 121.838 61.672 123.697H59.3359ZM68.6802 113.184C64.8082 113.184 61.672 110.048 61.672 106.176C61.672 102.304 64.8082 99.1681 68.6802 99.1681C72.5522 99.1681 75.6884 102.304 75.6884 106.176C75.6884 110.048 72.5522 113.184 68.6802 113.184ZM68.6802 110.848C71.2616 110.848 73.3523 108.758 73.3523 106.176C73.3523 103.595 71.2616 101.504 68.6802 101.504C66.0988 101.504 64.0081 103.595 64.0081 106.176C64.0081 108.758 66.0988 110.848 68.6802 110.848ZM78.3562 115.174C79.9977 115.913 81.3907 117.111 82.3679 118.623C83.3451 120.134 83.8648 121.897 83.8646 123.697H81.5286C81.5288 122.347 81.1391 121.025 80.4062 119.891C79.6733 118.757 78.6284 117.859 77.3972 117.304L78.355 115.174H78.3562ZM77.5526 101.987C78.7294 102.472 79.7356 103.295 80.4435 104.353C81.1514 105.411 81.529 106.655 81.5286 107.928C81.5291 109.531 80.9302 111.076 79.8496 112.26C78.769 113.444 77.2847 114.181 75.6884 114.327V111.976C76.5538 111.852 77.3568 111.453 77.9793 110.84C78.6018 110.226 79.0111 109.428 79.1471 108.565C79.2832 107.701 79.1387 106.817 78.7351 106.041C78.3314 105.266 77.6898 104.64 76.9043 104.256L77.5526 101.987Z" fill="#1C3533"/>
</svg>
