<svg width="174" height="32" viewBox="0 0 174 32" fill="none" xmlns="http://www.w3.org/2000/svg">
<g clip-path="url(#clip0_913_1823)">
<path d="M97.6602 23.564H101.382V9.52539H97.6602V23.564ZM97.6602 7.33617H101.382V3.99756H97.6602V7.33617Z" fill="#1C3533"/>
<path d="M103.779 28.1615H107.501V21.9768H107.555C108.349 23.1809 109.635 23.9746 111.605 23.9746C115.218 23.9746 117.681 21.1012 117.681 16.5585C117.681 12.1799 115.3 9.14233 111.578 9.14233C109.663 9.14233 108.349 10.0455 107.446 11.2769H107.364V9.52545H103.779V28.1615ZM110.812 20.8822C108.595 20.8822 107.419 19.2129 107.419 16.6679C107.419 14.1503 108.349 12.1526 110.675 12.1526C112.974 12.1526 113.904 14.0135 113.904 16.6679C113.904 19.3224 112.7 20.8822 110.812 20.8822Z" fill="#1C3533"/>
<path d="M125.104 23.9746C128.608 23.9746 131.016 22.2779 131.016 19.4592C131.016 16.1754 128.416 15.5186 126.062 15.026C124.064 14.6155 122.204 14.506 122.204 13.302C122.204 12.2894 123.162 11.7421 124.612 11.7421C126.199 11.7421 127.157 12.2894 127.321 13.7945H130.687C130.414 10.9759 128.361 9.14233 124.667 9.14233C121.465 9.14233 118.947 10.5928 118.947 13.6303C118.947 16.6953 121.411 17.3794 123.928 17.872C125.844 18.2551 127.622 18.392 127.622 19.7329C127.622 20.718 126.692 21.3475 125.05 21.3475C123.38 21.3475 122.231 20.6359 121.985 19.0214H118.537C118.756 22.0042 121.027 23.9746 125.104 23.9746Z" fill="#1C3533"/>
<path d="M145.147 23.5642V9.52563H141.425V17.6259C141.425 19.4867 140.358 20.8003 138.606 20.8003C137.019 20.8003 136.281 19.8972 136.281 18.2553V9.52563H132.586V18.8847C132.586 21.9496 134.337 23.9474 137.457 23.9474C139.428 23.9474 140.522 23.2085 141.48 21.9223H141.562V23.5642H145.147Z" fill="#1C3533"/>
<path d="M147.555 23.5641H151.277V15.4091C151.277 13.5482 152.289 12.3442 153.795 12.3442C155.163 12.3442 155.956 13.1651 155.956 14.7523V23.5641H159.678V15.4091C159.678 13.5482 160.636 12.3442 162.195 12.3442C163.564 12.3442 164.358 13.1651 164.358 14.7523V23.5641H168.08V14.1229C168.08 11.0579 166.41 9.14233 163.454 9.14233C161.676 9.14233 160.198 10.0728 159.24 11.6052H159.186C158.502 10.1275 157.078 9.14233 155.299 9.14233C153.357 9.14233 151.988 10.1275 151.222 11.4137H151.14V9.52545H147.555V23.5641Z" fill="#1C3533"/>
<path d="M0.658203 23.564H4.37993V3.99756H0.658203V23.564Z" fill="#1C3533"/>
<path d="M13.4805 23.9746C17.8316 23.9746 20.8145 20.7454 20.8145 16.5585C20.8145 12.3715 17.8316 9.14233 13.4805 9.14233C9.12932 9.14233 6.14648 12.3715 6.14648 16.5585C6.14648 20.7454 9.12932 23.9746 13.4805 23.9746ZM13.4805 21.1285C11.1818 21.1285 9.92294 19.295 9.92294 16.5585C9.92294 13.8219 11.1818 11.9611 13.4805 11.9611C15.7519 11.9611 17.038 13.8219 17.038 16.5585C17.038 19.295 15.7519 21.1285 13.4805 21.1285Z" fill="#1C3533"/>
<path d="M28.7281 28.353C30.8079 28.353 32.6141 27.8605 33.7907 26.7658C34.8307 25.808 35.4601 24.4671 35.4601 22.4968V9.52545H31.8752V11.0033H31.8205C30.9721 9.82652 29.6859 9.14233 27.9345 9.14233C24.377 9.14233 21.8594 11.8242 21.8594 16.0111C21.8594 20.2528 24.9243 22.7157 28.044 22.7157C29.8227 22.7157 30.8901 22.0042 31.711 21.0738H31.7931V22.6063C31.7931 24.5219 30.7805 25.5344 28.6734 25.5344C26.9494 25.5344 26.1557 24.8502 25.8548 23.9746H22.1604C22.5435 26.7111 24.897 28.353 28.7281 28.353ZM28.6734 19.7329C26.7578 19.7329 25.499 18.3372 25.499 15.9564C25.499 13.603 26.7578 12.1252 28.646 12.1252C30.8901 12.1252 31.9847 13.8766 31.9847 15.9291C31.9847 18.0088 31.0269 19.7329 28.6734 19.7329Z" fill="#1C3533"/>
<path d="M44.5059 23.9746C48.857 23.9746 51.8399 20.7454 51.8399 16.5585C51.8399 12.3715 48.857 9.14233 44.5059 9.14233C40.1548 9.14233 37.1719 12.3715 37.1719 16.5585C37.1719 20.7454 40.1548 23.9746 44.5059 23.9746ZM44.5059 21.1285C42.2072 21.1285 40.9484 19.295 40.9484 16.5585C40.9484 13.8219 42.2072 11.9611 44.5059 11.9611C46.7772 11.9611 48.0635 13.8219 48.0635 16.5585C48.0635 19.295 46.7772 21.1285 44.5059 21.1285Z" fill="#1C3533"/>
<path d="M169.43 7.22105C169.43 6.59131 169.941 6.08081 170.57 6.08081H172.851C173.48 6.08081 173.991 6.59131 173.991 7.22105C173.991 7.85078 173.48 8.36129 172.851 8.36129H170.57C169.941 8.36129 169.43 7.85078 169.43 7.22105Z" fill="#1C3533"/>
<path fill-rule="evenodd" clip-rule="evenodd" d="M74.4106 -0.000488281C83.2265 -0.000488281 90.3741 7.14653 90.3741 15.9628C90.3741 24.7791 83.2265 31.9261 74.4106 31.9261C65.5943 31.9261 58.4473 24.7791 58.4473 15.9628C58.4473 7.14653 65.5943 -0.000488281 74.4106 -0.000488281ZM73.8336 1.19404C72.0124 1.45033 70.2783 2.91368 68.9322 5.36111C68.5417 6.07102 68.1894 6.85532 67.8825 7.70216C69.7128 7.2422 71.7235 6.97102 73.8336 6.92908V1.19404ZM66.5332 8.08556C66.9151 6.88734 67.3821 5.78493 67.9211 4.80498C68.5884 3.59173 69.3803 2.54402 70.2726 1.73933C65.4206 3.14846 61.5962 6.97291 60.187 11.8249C60.9917 10.9326 62.0394 10.1407 63.2527 9.47341C64.2327 8.93441 65.335 8.46733 66.5332 8.08556ZM66.1499 9.4347C65.6899 11.2651 65.4188 13.2757 65.3768 15.3858H59.6417C59.898 13.5646 61.3614 11.8306 63.8089 10.4845C64.5187 10.0941 65.303 9.74176 66.1499 9.4347ZM66.531 15.3858C66.5787 13.083 66.9102 10.9211 67.4587 9.01096C69.3689 8.46246 71.5308 8.1309 73.8336 8.08325V10.5758C72.9745 12.7751 71.2224 14.5271 69.023 15.3858H66.531ZM65.3768 16.5398H59.6417C59.898 18.361 61.3614 20.095 63.8089 21.4411C64.5187 21.8316 65.303 22.1839 66.1499 22.4909C65.6899 20.6606 65.4188 18.6499 65.3768 16.5398ZM67.4587 22.9147C66.9102 21.0045 66.5787 18.8426 66.531 16.5398H69.023C71.2224 17.3986 72.9745 19.1505 73.8336 21.3498V23.8424C71.5308 23.7947 69.3689 23.4632 67.4587 22.9147ZM66.5332 23.8401C65.335 23.4583 64.2327 22.9912 63.2527 22.4522C62.0394 21.785 60.9917 20.993 60.187 20.1007C61.5962 24.9527 65.4206 28.7772 70.2726 30.1863C69.3803 29.3816 68.5884 28.3339 67.9211 27.1206C67.3821 26.1407 66.9151 25.0383 66.5332 23.8401ZM73.8336 30.7316C72.0124 30.4753 70.2783 29.0119 68.9322 26.5645C68.5417 25.8546 68.1894 25.0703 67.8825 24.2235C69.7128 24.6834 71.7235 24.9546 73.8336 24.9965V30.7316ZM78.5485 30.1863C79.4408 29.3816 80.2326 28.3339 80.8999 27.1206C81.4387 26.1407 81.9064 25.0383 82.2879 23.8401C83.4859 23.4583 84.5882 22.9912 85.5684 22.4522C86.7816 21.785 87.8296 20.993 88.6341 20.1007C87.2245 24.9527 83.4005 28.7772 78.5485 30.1863ZM80.939 24.2235C80.6317 25.0703 80.2789 25.8546 79.8886 26.5645C78.5428 29.0119 76.8087 30.4753 74.9875 30.7316V24.9965C77.0976 24.9546 79.1082 24.6834 80.939 24.2235ZM82.671 22.4909C83.5179 22.1839 84.3025 21.8316 85.012 21.4411C87.46 20.0951 88.923 18.361 89.1793 16.5398H83.4444C83.4021 18.6499 83.1308 20.6606 82.671 22.4909ZM82.2903 16.5398C82.2424 18.8426 81.9112 21.0045 81.362 22.9147C79.4522 23.4632 77.2903 23.7947 74.9875 23.8424V21.3516C75.8463 19.1516 77.5988 17.3988 79.7987 16.5398H82.2903ZM83.4444 15.3858H89.1793C88.923 13.5646 87.46 11.8306 85.012 10.4845C84.3025 10.0941 83.5179 9.74176 82.671 9.4347C83.1308 11.2651 83.4021 13.2757 83.4444 15.3858ZM81.362 9.01096C81.9112 10.9211 82.2424 13.083 82.2903 15.3858H79.7988C77.5988 14.5268 75.8463 12.7741 74.9875 10.574V8.08325C77.2903 8.1309 79.4522 8.46246 81.362 9.01096ZM82.2879 8.08556C83.4859 8.46733 84.5882 8.93441 85.5684 9.47341C86.7816 10.1407 87.8296 10.9326 88.6341 11.8249C87.2245 6.97291 83.4005 3.14846 78.5485 1.73933C79.4408 2.54402 80.2326 3.59173 80.8999 4.80498C81.4387 5.78493 81.9064 6.88734 82.2879 8.08556ZM74.9875 1.19404C76.8087 1.45033 78.5428 2.91368 79.8886 5.36111C80.2789 6.07103 80.6317 6.85532 80.939 7.70216C79.1082 7.2422 77.0976 6.97102 74.9875 6.92908V1.19404Z" fill="#1C3533"/>
</g>
<defs>
<clipPath id="clip0_913_1823">
<rect width="174" height="31.9266" fill="white" transform="translate(0 -0.000244141)"/>
</clipPath>
</defs>
</svg>
