<svg width="133" height="34" viewBox="0 0 133 34" fill="none" xmlns="http://www.w3.org/2000/svg">
<path d="M40.0254 23.1003H49.4314V20.2672H43.3685V9.5957H40.0254V23.1003Z" fill="#1C3533"/>
<path d="M55.004 21.2114C53.6629 21.2114 52.9641 20.0404 52.9641 18.2838C52.9641 16.5273 53.6629 15.3374 55.004 15.3374C56.345 15.3374 57.0627 16.5273 57.0627 18.2838C57.0627 20.0404 56.345 21.2114 55.004 21.2114ZM55.0228 23.4023C58.1393 23.4023 60.1792 21.1925 60.1792 18.2838C60.1792 15.3751 58.1393 13.1653 55.0228 13.1653C51.9253 13.1653 49.8477 15.3751 49.8477 18.2838C49.8477 21.1925 51.9253 23.4023 55.0228 23.4023Z" fill="#1C3533"/>
<path d="M65.5742 26.4433C67.0096 26.4433 68.2751 26.1222 69.1251 25.3667C69.8994 24.6679 70.4094 23.6102 70.4094 22.1559V13.4298H67.4629V14.4686H67.4252C66.8585 13.6564 65.9897 13.1465 64.7054 13.1465C62.3066 13.1465 60.6445 15.1486 60.6445 17.9817C60.6445 20.9471 62.6655 22.5714 64.8376 22.5714C66.0086 22.5714 66.7452 22.0992 67.3118 21.457H67.3874V22.4203C67.3874 23.5913 66.8397 24.2713 65.5364 24.2713C64.5165 24.2713 64.0065 23.8368 63.8365 23.3269H60.8523C61.1545 25.3479 62.911 26.4433 65.5742 26.4433ZM65.5553 20.286C64.4032 20.286 63.6477 19.3416 63.6477 17.8873C63.6477 16.414 64.4032 15.4697 65.5553 15.4697C66.8397 15.4697 67.5196 16.5651 67.5196 17.8684C67.5196 19.2283 66.8963 20.286 65.5553 20.286Z" fill="#1C3533"/>
<path d="M76.4669 21.2114C75.1258 21.2114 74.427 20.0404 74.427 18.2838C74.427 16.5273 75.1258 15.3374 76.4669 15.3374C77.8079 15.3374 78.5256 16.5273 78.5256 18.2838C78.5256 20.0404 77.8079 21.2114 76.4669 21.2114ZM76.4857 23.4023C79.6022 23.4023 81.642 21.1925 81.642 18.2838C81.642 15.3751 79.6022 13.1653 76.4857 13.1653C73.3882 13.1653 71.3105 15.3751 71.3105 18.2838C71.3105 21.1925 73.3882 23.4023 76.4857 23.4023Z" fill="#1C3533"/>
<path d="M82.541 23.1003H85.6197V13.4299H82.541V23.1003ZM82.541 12.0889H85.6197V9.5957H82.541V12.0889Z" fill="#1C3533"/>
<path d="M86.957 26.2922H90.0357V22.0992H90.0735C90.6779 22.9114 91.5656 23.4024 92.8122 23.4024C95.3431 23.4024 97.0241 21.4004 97.0241 18.265C97.0241 15.3563 95.4564 13.1465 92.8877 13.1465C91.5656 13.1465 90.6212 13.732 89.9602 14.6008H89.9035V13.4298H86.957V26.2922ZM92.0189 21.0226C90.6968 21.0226 89.9413 19.946 89.9413 18.3783C89.9413 16.8107 90.6212 15.6208 91.9622 15.6208C93.2844 15.6208 93.9077 16.7162 93.9077 18.3783C93.9077 20.0216 93.1899 21.0226 92.0189 21.0226Z" fill="#1C3533"/>
<path d="M102.037 23.4024C104.568 23.4024 106.438 22.307 106.438 20.1915C106.438 17.7173 104.436 17.2829 102.736 16.9995C101.508 16.7729 100.413 16.6785 100.413 15.9985C100.413 15.3941 100.998 15.1108 101.754 15.1108C102.604 15.1108 103.189 15.3752 103.302 16.244H106.136C105.984 14.3364 104.511 13.1465 101.773 13.1465C99.4872 13.1465 97.5984 14.2042 97.5984 16.244C97.5984 18.5106 99.3927 18.9639 101.074 19.2472C102.358 19.4738 103.529 19.5683 103.529 20.4371C103.529 21.0604 102.944 21.4004 102.018 21.4004C100.998 21.4004 100.356 20.9282 100.243 19.9649H97.334C97.4284 22.0992 99.2039 23.4024 102.037 23.4024Z" fill="#1C3533"/>
<path d="M110.619 23.3839C111.96 23.3839 112.809 22.8551 113.508 21.9107H113.565V23.1006H116.511V13.4302H113.433V18.832C113.433 19.9842 112.791 20.7774 111.733 20.7774C110.751 20.7774 110.279 20.1919 110.279 19.1342V13.4302H107.219V19.7764C107.219 21.9296 108.39 23.3839 110.619 23.3839Z" fill="#1C3533"/>
<path d="M117.852 23.1002H120.93V17.6795C120.93 16.5274 121.497 15.7152 122.46 15.7152C123.386 15.7152 123.82 16.3196 123.82 17.3584V23.1002H126.899V17.6795C126.899 16.5274 127.446 15.7152 128.429 15.7152C129.354 15.7152 129.789 16.3196 129.789 17.3584V23.1002H132.867V16.8107C132.867 14.6386 131.772 13.1465 129.581 13.1465C128.334 13.1465 127.295 13.6753 126.54 14.8464H126.502C126.011 13.8075 125.048 13.1465 123.782 13.1465C122.385 13.1465 121.459 13.8075 120.855 14.8086H120.798V13.4298H117.852V23.1002Z" fill="#1C3533"/>
<path fill-rule="evenodd" clip-rule="evenodd" d="M16.2781 0.75708C25.1409 0.75708 32.3257 7.94181 32.3257 16.8046C32.3257 25.6676 25.1409 32.8523 16.2781 32.8523C7.41522 32.8523 0.230469 25.6676 0.230469 16.8046C0.230469 7.94181 7.41522 0.75708 16.2781 0.75708ZM31.7097 16.8046C31.7097 8.28202 24.8007 1.37299 16.2781 1.37299C15.5906 1.37299 14.9137 1.41794 14.25 1.50507C14.6788 1.46758 15.1127 1.44844 15.5512 1.44844C23.6951 1.44844 30.297 8.05034 30.297 16.1942C30.297 24.338 23.6951 30.9399 15.5512 30.9399C7.84123 30.9399 1.51324 25.0226 0.86097 17.4817C1.21531 25.6902 7.98221 32.2363 16.2781 32.2363C24.8007 32.2363 31.7097 25.3274 31.7097 16.8046ZM29.681 16.1942C29.681 8.39047 23.355 2.06435 15.5512 2.06435C14.9176 2.06435 14.2937 2.10606 13.6822 2.18688C14.0587 2.15519 14.4397 2.13903 14.8245 2.13903C22.2493 2.13903 28.2683 8.15807 28.2683 15.5829C28.2683 23.0077 22.2493 29.0267 14.8245 29.0267C7.8041 29.0267 2.04055 23.6456 1.43349 16.7829C1.74214 24.3136 7.94482 30.324 15.5512 30.324C23.355 30.324 29.681 23.9978 29.681 16.1942ZM14.8245 2.75495C21.9091 2.75495 27.6524 8.49821 27.6524 15.5829C27.6524 22.6675 21.9091 28.4107 14.8245 28.4107C7.90398 28.4107 2.26338 22.9305 2.00576 16.073C2.56196 22.2626 7.76335 27.1135 14.0978 27.1135C20.8031 27.1135 26.2389 21.6777 26.2389 14.9723C26.2389 8.26691 20.8031 2.83116 14.0978 2.83116C13.7509 2.83116 13.4073 2.84571 13.0678 2.87422C13.6422 2.79558 14.2286 2.75495 14.8245 2.75495ZM25.623 14.9723C25.623 8.60713 20.463 3.44707 14.0978 3.44707C13.5599 3.44707 13.0307 3.4839 12.5125 3.55519C12.7955 3.53304 13.0815 3.52177 13.3701 3.52177C19.3565 3.52177 24.2095 8.37465 24.2095 14.3611C24.2095 20.3474 19.3565 25.2003 13.3701 25.2003C7.73562 25.2003 3.10525 20.9011 2.5804 15.4041C2.80747 21.5693 7.87707 26.4976 14.0978 26.4976C20.463 26.4976 25.623 21.3376 25.623 14.9723ZM13.3701 4.13767C19.0163 4.13767 23.5935 8.71486 23.5935 14.3611C23.5935 20.0073 19.0163 24.5844 13.3701 24.5844C7.83515 24.5844 3.32752 20.1858 3.15207 14.6935C3.62594 19.5178 7.69447 23.2872 12.6433 23.2872C17.9108 23.2872 22.1808 19.0171 22.1808 13.7497C22.1808 8.48239 17.9108 4.21235 12.6433 4.21235C12.4018 4.21235 12.1623 4.22133 11.9253 4.23897C12.3973 4.17221 12.8797 4.13767 13.3701 4.13767ZM21.5649 13.7497C21.5649 8.82252 17.5706 4.82827 12.6433 4.82827C12.1936 4.82827 11.7516 4.86155 11.3197 4.92578C11.5169 4.91166 11.7159 4.90448 11.9166 4.90448C16.4645 4.90448 20.1514 8.59131 20.1514 13.1392C20.1514 17.6872 16.4645 21.3739 11.9166 21.3739C7.65496 21.3739 4.14942 18.1367 3.72498 13.9871C3.85081 18.8046 7.79554 22.6713 12.6433 22.6713C17.5706 22.6713 21.5649 18.677 21.5649 13.7497ZM11.9166 5.52039C16.1244 5.52039 19.5354 8.93144 19.5354 13.1392C19.5354 17.347 16.1244 20.7581 11.9166 20.7581C7.76239 20.7581 4.38472 17.4333 4.29942 13.2995C4.68318 16.7653 7.62173 19.4608 11.1899 19.4608C15.0188 19.4608 18.1227 16.3569 18.1227 12.528C18.1227 8.69905 15.0188 5.59507 11.1899 5.59507C11.0434 5.59507 10.8981 5.59961 10.7539 5.60856C11.133 5.5505 11.5213 5.52039 11.9166 5.52039ZM17.5068 12.528C17.5068 9.03918 14.6786 6.21099 11.1899 6.21099C10.8395 6.21099 10.4958 6.23951 10.161 6.29435C10.2608 6.28909 10.3612 6.28643 10.4623 6.28643C13.5721 6.28643 16.0932 8.80749 16.0932 11.9174C16.0932 15.0273 13.5721 17.5484 10.4623 17.5484C7.58669 17.5484 5.21455 15.3929 4.87341 12.6095C4.91708 16.0607 7.72833 18.8449 11.1899 18.8449C14.6786 18.8449 17.5068 16.0167 17.5068 12.528ZM10.4623 6.90234C13.232 6.90234 15.4773 9.14763 15.4773 11.9174C15.4773 14.6872 13.232 16.9325 10.4623 16.9325C7.69253 16.9325 5.4472 14.6872 5.4472 11.9174C5.4472 11.9108 5.44722 11.9041 5.44724 11.8975C5.73561 14.0082 7.54564 15.6345 9.73552 15.6345C12.126 15.6345 14.0638 13.6966 14.0638 11.3062C14.0638 8.91562 12.126 6.97781 9.73552 6.97781C9.68146 6.97781 9.62763 6.97879 9.57404 6.98076C9.86231 6.92923 10.1592 6.90234 10.4623 6.90234ZM13.4479 11.3062C13.4479 9.25584 11.7858 7.59371 9.73552 7.59371C7.6852 7.59371 6.02309 9.25584 6.02309 11.3062C6.02309 13.3564 7.6852 15.0185 9.73552 15.0185C11.7858 15.0185 13.4479 13.3564 13.4479 11.3062Z" fill="#1C3533"/>
</svg>
