<svg width="131" height="25" viewBox="0 0 131 25" fill="none" xmlns="http://www.w3.org/2000/svg">
<g clip-path="url(#clip0_913_1848)">
<path d="M31.5762 1.04321H34.8468V18.883H40.2285V21.8564H31.5762V1.04321Z" fill="#1C3533"/>
<path d="M46.4068 22.1541C44.8012 22.1541 43.5723 21.6982 42.7199 20.7864C41.8676 19.8745 41.4414 18.5862 41.4414 16.9211V5.97935C41.4414 4.3143 41.8676 3.02587 42.7199 2.11406C43.5723 1.20224 44.8012 0.746338 46.4068 0.746338C48.0124 0.746338 49.2413 1.20224 50.0937 2.11406C50.946 3.02587 51.3722 4.3143 51.3722 5.97935V16.9211C51.3722 18.5862 50.946 19.8745 50.0937 20.7864C49.2413 21.6982 48.0124 22.1541 46.4068 22.1541ZM46.4068 19.1808C47.5367 19.1808 48.1016 18.4969 48.1016 17.1292V5.77122C48.1016 4.4035 47.5367 3.71964 46.4068 3.71964C45.2769 3.71964 44.712 4.4035 44.712 5.77122V17.1292C44.712 18.4969 45.2769 19.1808 46.4068 19.1808Z" fill="#1C3533"/>
<path d="M58.2239 22.1541C56.6381 22.1541 55.429 21.7081 54.5964 20.8161C53.7639 19.9044 53.3477 18.606 53.3477 16.9211V5.97935C53.3477 4.29448 53.7639 3.00605 54.5964 2.11406C55.429 1.20224 56.6381 0.746338 58.2239 0.746338C59.8096 0.746338 61.0188 1.20224 61.8513 2.11406C62.6839 3.00605 63.1001 4.29448 63.1001 5.97935V7.76333H60.0079V5.77122C60.0079 4.4035 59.4429 3.71964 58.313 3.71964C57.1833 3.71964 56.6183 4.4035 56.6183 5.77122V17.159C56.6183 18.5069 57.1833 19.1808 58.313 19.1808C59.4429 19.1808 60.0079 18.5069 60.0079 17.159V13.0856H58.3726V10.1123H63.1001V16.9211C63.1001 18.606 62.6839 19.9044 61.8513 20.8161C61.0188 21.7081 59.8096 22.1541 58.2239 22.1541Z" fill="#1C3533"/>
<path d="M69.9263 22.1541C68.3208 22.1541 67.0918 21.6982 66.2395 20.7864C65.3871 19.8745 64.9609 18.5862 64.9609 16.9211V5.97935C64.9609 4.3143 65.3871 3.02587 66.2395 2.11406C67.0918 1.20224 68.3208 0.746338 69.9263 0.746338C71.532 0.746338 72.7609 1.20224 73.6132 2.11406C74.4656 3.02587 74.8918 4.3143 74.8918 5.97935V16.9211C74.8918 18.5862 74.4656 19.8745 73.6132 20.7864C72.7609 21.6982 71.532 22.1541 69.9263 22.1541ZM69.9263 19.1808C71.0562 19.1808 71.6211 18.4969 71.6211 17.1292V5.77122C71.6211 4.4035 71.0562 3.71964 69.9263 3.71964C68.7965 3.71964 68.2316 4.4035 68.2316 5.77122V17.1292C68.2316 18.4969 68.7965 19.1808 69.9263 19.1808Z" fill="#1C3533"/>
<path d="M77.1094 1.04321H80.38V21.8564H77.1094V1.04321Z" fill="#1C3533"/>
<path d="M82.8301 1.04321H87.6468C89.272 1.04321 90.4911 1.4793 91.3041 2.35147C92.1172 3.22363 92.5233 4.50215 92.5233 6.18703V8.23859C92.5233 9.9235 92.1172 11.202 91.3041 12.0742C90.4911 12.9463 89.272 13.3824 87.6468 13.3824H86.101V21.8564H82.8301V1.04321ZM87.6468 10.4091C88.1822 10.4091 88.5785 10.2604 88.8364 9.96313C89.114 9.66576 89.2524 9.16034 89.2524 8.44672V5.9789C89.2524 5.2653 89.114 4.75984 88.8364 4.46251C88.5785 4.16518 88.1822 4.01652 87.6468 4.01652H86.101V10.4091H87.6468Z" fill="#1C3533"/>
<path d="M98.6683 22.1541C97.0832 22.1541 95.8837 21.7081 95.0707 20.8161C94.2585 19.9044 93.8516 18.606 93.8516 16.9211V15.7318H96.944V17.159C96.944 18.5069 97.5089 19.1808 98.6388 19.1808C99.1939 19.1808 99.6098 19.0222 99.8874 18.7051C100.185 18.3681 100.334 17.8329 100.334 17.0995C100.334 16.2273 100.135 15.4642 99.7392 14.8101C99.3429 14.1361 98.6093 13.3333 97.5384 12.4017C96.1907 11.2123 95.2492 10.142 94.7137 9.19052C94.1791 8.21923 93.9113 7.12903 93.9113 5.91989C93.9113 4.27466 94.3273 3.00605 95.1599 2.11406C95.9926 1.20224 97.2019 0.746338 98.7878 0.746338C100.353 0.746338 101.533 1.20224 102.326 2.11406C103.139 3.00605 103.545 4.29448 103.545 5.97935V6.84161H100.452V5.77122C100.452 5.05763 100.314 4.54225 100.036 4.2251C99.7588 3.88813 99.3527 3.71964 98.8173 3.71964C97.7267 3.71964 97.1822 4.38368 97.1822 5.71175C97.1822 6.46499 97.3804 7.16867 97.7766 7.82279C98.1926 8.47689 98.936 9.26977 100.007 10.2014C101.374 11.3907 102.316 12.4711 102.832 13.4424C103.347 14.4137 103.605 15.5534 103.605 16.8616C103.605 18.5664 103.178 19.8745 102.326 20.7864C101.493 21.6982 100.274 22.1541 98.6683 22.1541Z" fill="#1C3533"/>
<path d="M110.236 22.1537C108.65 22.1537 107.441 21.7077 106.608 20.8157C105.775 19.9039 105.359 18.6055 105.359 16.9206V1.04321H108.63V17.1585C108.63 17.8721 108.769 18.3875 109.046 18.7047C109.343 19.0218 109.76 19.1804 110.295 19.1804C110.83 19.1804 111.236 19.0218 111.514 18.7047C111.811 18.3875 111.96 17.8721 111.96 17.1585V1.04321H115.112V16.9206C115.112 18.6055 114.696 19.9039 113.863 20.8157C113.03 21.7077 111.821 22.1537 110.236 22.1537Z" fill="#1C3533"/>
<path d="M117.441 1.04321H122.11L124.191 15.9394H124.25L126.332 1.04321H131V21.8564H127.907V6.09783H127.849L125.469 21.8564H122.734L120.355 6.09783H120.296V21.8564H117.441V1.04321Z" fill="#1C3533"/>
<path d="M0 21.8568C4.02373 21.8568 7.28557 18.5949 7.28557 14.5713C7.28557 10.5475 4.02373 7.28564 0 7.28564V12.3855C1.20711 12.3855 2.18566 13.3641 2.18566 14.5713C2.18566 15.7783 1.20711 16.7569 0 16.7569V21.8568Z" fill="#1C3533"/>
<path d="M24.2848 9.71412C23.0398 9.31973 21.714 9.10693 20.3385 9.10693C13.1293 9.10693 7.28516 14.9512 7.28516 22.1603C7.28516 22.8839 7.34404 23.5937 7.45724 24.2852H15.5677C15.2782 23.6361 15.1172 22.917 15.1172 22.1603C15.1172 19.2766 17.4548 16.9389 20.3385 16.9389C21.9145 16.9389 23.3275 17.6372 24.2848 18.7413V9.71412Z" fill="#1C3533"/>
<path d="M1.28125 0C1.88527 5.46412 6.5178 9.71414 12.1429 9.71414C17.768 9.71414 22.4006 5.46412 23.0046 0H15.1892C14.7067 1.20954 13.5246 2.06424 12.1429 2.06424C10.7612 2.06424 9.57919 1.20954 9.09662 0H1.28125Z" fill="#1C3533"/>
</g>
<defs>
<clipPath id="clip0_913_1848">
<rect width="131" height="24.5625" fill="white"/>
</clipPath>
</defs>
</svg>
