<svg width="163" height="21" viewBox="0 0 163 21" fill="none" xmlns="http://www.w3.org/2000/svg">
<path d="M81.1716 17.5589H75.6811V2.88034H81.1716V17.5589ZM76.2173 17.0227H80.6354V3.41653H76.2173V17.0227ZM88.8112 17.5589H83.4311V2.88034H94.6716C96.2819 2.74994 97.8855 3.20202 99.1906 4.15431C99.7524 4.66831 100.188 5.30517 100.463 6.01519C100.738 6.72521 100.845 7.4892 100.777 8.24755C100.857 9.55795 100.44 10.8504 99.6088 11.8668C98.6255 12.9949 96.989 13.5761 94.7456 13.5965C94.1805 13.6115 89.9457 13.5965 88.8144 13.5965L88.8112 17.5589ZM83.964 17.0227H88.275V13.055H88.5441C88.5988 13.055 94.0969 13.0721 94.7328 13.055C96.8228 13.0367 98.3252 12.5188 99.2035 11.5075C99.9432 10.5879 100.311 9.42409 100.233 8.24647C100.299 7.56699 100.207 6.88144 99.9657 6.24301C99.7239 5.60458 99.3384 5.03041 98.8389 4.56503C97.6288 3.69652 96.1483 3.28884 94.6641 3.41545H83.9673L83.964 17.0227ZM93.5328 10.299H88.2385V6.30334H93.5682C93.946 6.25114 94.3309 6.29523 94.687 6.43152C95.0432 6.56782 95.3593 6.79189 95.6057 7.08295C95.8293 7.455 95.9347 7.88614 95.9081 8.31939C95.9281 8.72164 95.8413 9.12203 95.6561 9.4797C95.4018 9.78627 95.0729 10.0223 94.701 10.165C94.3292 10.3077 93.9269 10.3524 93.5328 10.2947V10.299ZM88.7747 9.7628H93.5328C94.4121 9.7628 94.9569 9.57943 95.1982 9.20195C95.3311 8.92759 95.3912 8.62369 95.373 8.31939C95.3965 7.99989 95.3272 7.68041 95.1735 7.3993L95.1671 7.38965C94.9119 7.01432 94.4046 6.83953 93.5682 6.83953H88.7747V9.7628ZM110.562 17.7755C105.747 17.7755 102.873 16.5798 101.778 14.1209C101.599 13.646 101.477 13.1513 101.416 12.6475L101.369 12.3386H107.097L107.135 12.5638C107.179 12.7925 107.276 13.0077 107.418 13.1922C107.644 13.4657 108.399 13.9247 110.904 13.9247C113.915 13.9247 113.915 13.396 113.915 13.1118C113.915 12.6325 113.567 12.4684 111.111 12.2067L110.645 12.1628C109.72 12.0759 108.551 11.9654 108.017 11.9193C103.513 11.5118 101.503 10.1124 101.503 7.38322C101.503 4.51678 104.925 2.66479 110.221 2.66479C114.542 2.66479 117.325 3.80365 118.493 6.05241C118.77 6.57549 118.957 7.14192 119.043 7.72745L119.081 8.02878H113.346L113.322 7.78643C113.3 7.59703 113.219 7.41934 113.091 7.27812C112.876 6.99073 112.198 6.51567 110.094 6.51567C107.511 6.51567 107.155 6.84596 107.155 7.20199C107.155 7.67705 107.971 7.84541 110.587 8.1253C111.677 8.2143 113.431 8.39446 114.031 8.46738C117.807 8.87703 119.492 10.2422 119.492 12.8952C119.493 15.1204 117.943 17.7755 110.562 17.7755ZM101.995 12.8748C102.049 13.2285 102.141 13.5751 102.27 13.9086C103.268 16.1488 105.981 17.2394 110.562 17.2394C114.393 17.2394 118.96 16.4887 118.96 12.8952C118.96 10.5435 117.469 9.37889 113.974 9.00035C113.374 8.92743 111.631 8.74834 110.543 8.65826C107.755 8.35586 106.621 8.195 106.621 7.20199C106.621 6.17466 107.842 5.97949 110.097 5.97949C111.878 5.97949 113.028 6.3012 113.516 6.94998C113.649 7.10982 113.75 7.29416 113.812 7.4926H118.46C118.367 7.07786 118.219 6.67727 118.02 6.3012C116.948 4.24332 114.328 3.20098 110.223 3.20098C105.253 3.20098 102.041 4.84278 102.041 7.38322C102.041 9.80677 103.844 11.0035 108.067 11.3853C108.603 11.4314 109.771 11.5419 110.697 11.6298L111.167 11.6738C113.448 11.914 114.454 12.0641 114.454 13.1118C114.454 14.2399 113.153 14.4608 110.906 14.4608C108.828 14.4608 107.515 14.1488 107.008 13.5343C106.852 13.3384 106.734 13.1146 106.661 12.8748H101.995ZM129.679 17.7573C124.081 17.7573 120.993 15.4935 120.993 11.3821V2.88034H126.411V11.3821C126.411 12.7922 127.673 13.6008 129.872 13.6008C131.974 13.6008 133.279 12.7569 133.279 11.4003V2.88034H138.641V11.8325C138.646 15.5976 135.377 17.7573 129.676 17.7573H129.679ZM121.529 3.41653V11.3821C121.529 16.463 126.631 17.2211 129.679 17.2211C132.83 17.2211 138.113 16.5209 138.113 11.8325V3.41653H133.824V11.4003C133.824 13.0625 132.275 14.137 129.881 14.137C127.378 14.137 125.883 13.1075 125.883 11.3821V3.41653H121.529ZM161.362 17.5589H156.249V10.9317L153.35 17.5589H148.89L146.02 10.9446V17.5589H140.889V2.88034H147.638L151.145 10.9735L154.821 2.88034H161.369L161.362 17.5589ZM156.785 17.0227H160.826V3.41653H155.162L151.128 12.2947L147.282 3.41653H141.42V17.0227H145.479V8.36443L149.233 17.026H152.986L156.779 8.3773L156.785 17.0227ZM6.49294 3.14843H1.60938V17.2908H15.1041V13.5257H6.49294V3.14843ZM24.9613 2.82672C18.7276 2.82672 15.4494 5.7811 15.4494 10.1188C15.4494 15.0196 18.8906 17.5053 24.9613 17.5053C31.6443 17.5053 34.4549 14.6228 34.4549 10.1188C34.4549 5.54518 31.284 2.82458 24.9613 2.82458V2.82672ZM24.943 6.50173C25.3674 6.49974 25.7915 6.52444 26.2127 6.57572L20.7533 12.0352C20.495 11.4508 20.369 10.8165 20.3844 10.1778C20.3844 7.95908 21.5018 6.49958 24.943 6.49958V6.50173ZM24.9613 13.8882C24.5524 13.89 24.1438 13.8671 23.7377 13.8196L29.2068 8.35049C29.4555 8.92518 29.5745 9.54761 29.5553 10.1735C29.5553 12.3322 28.5258 13.8861 24.9613 13.8861V13.8882ZM44.1309 11.9579H49.1571C49.0831 12.3068 48.9289 12.6335 48.7067 12.9123C47.6647 13.7612 46.3349 14.1743 44.9953 14.0651C44.321 14.1373 43.6391 14.0636 42.9958 13.8492C42.3525 13.6348 41.7627 13.2846 41.2666 12.8223C40.7584 12.0769 40.517 11.1817 40.5814 10.2818C40.4991 9.33894 40.7617 8.39823 41.3202 7.63415C42.0226 6.8406 43.2119 6.49851 44.9599 6.49851C46.072 6.40643 47.1828 6.69205 48.1126 7.30922C48.4057 7.54201 48.6248 7.85496 48.7432 8.21001H53.4048C53.3709 7.625 53.2302 7.05114 52.9898 6.51674C51.8734 4.24654 49.2783 2.89535 44.8655 2.89535C41.0275 2.89535 38.4517 4.06638 37.0286 5.83257C36.0888 7.108 35.6063 8.66302 35.6592 10.2464C35.5984 11.8657 36.0684 13.4604 36.9975 14.7879C38.4034 16.6109 40.9074 17.5074 43.9165 17.5074C45.917 17.647 47.9038 17.0866 49.5367 15.9225L49.6633 17.2908H53.5356V8.91349H44.1309V11.9579ZM64.5263 2.82351C58.2937 2.82351 55.0144 5.77788 55.0144 10.1156C55.0144 15.0163 58.4546 17.5021 64.5263 17.5021C71.2104 17.5021 74.0211 14.6196 74.0211 10.1156C74.0211 5.54518 70.8501 2.82458 64.5263 2.82458V2.82351ZM64.5091 6.49851C64.9223 6.49729 65.3352 6.52092 65.7456 6.56929L60.3076 12.0105C60.0573 11.4326 59.9355 10.8074 59.9505 10.1778C59.9462 7.95908 61.0679 6.49851 64.5091 6.49851ZM64.5263 13.885C64.1066 13.8868 63.6872 13.8624 63.2706 13.8121L68.7579 8.32368C69.016 8.90601 69.1395 9.53902 69.1193 10.1757C69.1214 12.3322 68.0962 13.8861 64.5263 13.8861V13.885Z" fill="#1C3533"/>
</svg>
