<svg width="100" height="100" viewBox="0 0 100 100" fill="none" xmlns="http://www.w3.org/2000/svg">
<g clip-path="url(#clip0_270_1657)">
<path d="M62.4996 50.0219C62.5013 53.6276 61.8509 57.2039 60.5797 60.5781C57.2042 61.8491 53.6271 62.5006 50.0203 62.5012H49.9781C46.2641 62.4965 42.7055 61.8176 39.4219 60.5797C38.1499 57.2051 37.4988 53.6282 37.5 50.0219V49.9781C37.4983 46.3731 38.148 42.7974 39.418 39.4234C42.7932 38.1501 46.3711 37.4984 49.9785 37.5H50.0207C53.6277 37.4983 57.2053 38.1498 60.5801 39.423C61.8514 42.7967 62.5019 46.3725 62.5 49.9777V50.0215L62.4996 50.0219ZM99.3055 41.6668H70.1195L90.7559 21.0289C89.1361 18.7536 87.3293 16.6174 85.3543 14.6426V14.641C83.3792 12.6683 81.2436 10.8631 78.9695 9.24414L58.3316 29.882V0.696094C55.5868 0.234347 52.8084 0.00151441 50.025 0L49.9734 0C47.1422 0.0015625 44.3691 0.242188 41.6668 0.696094V29.882L21.0289 9.24414C18.7545 10.8627 16.6198 12.6692 14.6473 14.6445L14.6363 14.6523C12.6647 16.6247 10.8604 18.7576 9.24219 21.0289L29.8816 41.6668H0.696094C0.696094 41.6668 0 47.1484 0 49.9828V50.0172C0 52.8516 0.240234 55.6293 0.696094 58.3332H29.882L9.24258 78.9711C12.4893 83.5273 16.4727 87.5107 21.0289 90.7574L41.6668 70.118V99.3055C44.4086 99.7649 47.1836 99.9972 49.9637 100H50.0344C52.8144 99.9975 55.5895 99.7652 58.3313 99.3055V70.118L78.9711 90.7574C81.2447 89.1379 83.3798 87.3322 85.3543 85.359L85.359 85.3543C87.3313 83.3794 89.1364 81.2444 90.7559 78.9711L70.1164 58.3332H99.3055C99.7598 55.634 99.9969 52.8645 100 50.0363V49.9637C99.9969 47.1355 99.7598 44.366 99.3055 41.6668V41.6668Z" fill="#FF4A00"/>
</g>
<defs>
<clipPath id="clip0_270_1657">
<rect width="100" height="100" fill="white"/>
</clipPath>
</defs>
</svg>
