<svg width="100" height="100" viewBox="0 0 100 100" fill="none" xmlns="http://www.w3.org/2000/svg">
<path d="M17.7083 1.24023H82.2917C92.0833 1.24023 100 9.1569 100 18.9486V81.0319C100 90.8236 92.0833 98.7402 82.2917 98.7402H17.7083C7.91667 98.7402 0 90.8236 0 81.0319V18.9486C0 9.1569 7.91667 1.24023 17.7083 1.24023Z" fill="#330000"/>
<path d="M48.3332 59.5736H32.8332L29.6666 69.3652C29.5832 69.7402 29.2499 69.9902 28.8749 69.9486H21.0416C20.5832 69.9486 20.4582 69.6986 20.5832 69.1986L33.9999 30.5736C34.1249 30.1569 34.2499 29.6986 34.4166 29.1986C34.5832 28.3236 34.6666 27.4069 34.6666 26.4902C34.6249 26.2819 34.7916 26.0736 34.9999 26.0319H45.7916C46.1249 26.0319 46.2916 26.1569 46.3332 26.3652L61.5416 69.2819C61.6666 69.7402 61.5416 69.9486 61.1249 69.9486H52.4166C52.1249 69.9902 51.8332 69.7819 51.7499 69.4902L48.3332 59.5736ZM35.2499 51.1152H45.8332C45.5832 50.2402 45.2499 49.1986 44.8749 48.1152C44.4999 46.9902 44.1249 45.7819 43.7499 44.5319C43.3332 43.2402 42.9582 41.9902 42.5416 40.6986C42.1249 39.4069 41.7499 38.1986 41.4166 36.9902C41.0832 35.8236 40.7916 34.7402 40.4999 33.7402H40.4166C40.0416 35.5319 39.5832 37.3236 38.9999 39.1152C38.3749 41.1152 37.7499 43.1986 37.0832 45.2819C36.4999 47.4069 35.8749 49.3652 35.2499 51.1152ZM70.8332 33.3236C69.4582 33.3652 68.1249 32.8236 67.1249 31.8652C66.1666 30.8236 65.6666 29.4486 65.7082 28.0319C65.6666 26.6152 66.2082 25.2819 67.2082 24.3236C68.2082 23.3652 69.5416 22.8652 70.9166 22.8652C72.5416 22.8652 73.7916 23.3652 74.7082 24.3236C75.6249 25.3236 76.1249 26.6569 76.0832 28.0319C76.1249 29.4486 75.6249 30.8236 74.6249 31.8652C73.6666 32.8652 72.2499 33.4069 70.8332 33.3236ZM66.1666 69.4902V37.4069C66.1666 36.9902 66.3333 36.8236 66.7083 36.8236H74.9582C75.3332 36.8236 75.4999 37.0319 75.4999 37.4069V69.4902C75.4999 69.9486 75.3332 70.1569 74.9582 70.1569H66.7916C66.3749 70.1569 66.1666 69.9069 66.1666 69.4902V69.4902Z" fill="#FF9A00"/>
</svg>
