<svg width="101" height="101" viewBox="0 0 101 101" fill="none" xmlns="http://www.w3.org/2000/svg">
<g clip-path="url(#clip0_270_1621)">
<path d="M68.6348 86.3226C63.7531 81.4409 63.7531 73.5213 68.6348 68.6353C58.867 78.403 43.0323 78.403 33.2645 68.6353C38.1462 73.5169 38.1462 81.4365 33.2645 86.3226C28.3828 91.2043 20.4632 91.2043 15.5771 86.3226C35.082 105.827 66.8173 105.827 86.3221 86.3226C81.4361 91.2043 73.5165 91.2043 68.6348 86.3226Z" fill="#FBBC04"/>
<path d="M86.3218 15.5778C66.817 -3.92698 35.0817 -3.92698 15.5768 15.5778C-3.92796 35.0826 -3.92796 66.818 15.5768 86.3228C10.6952 81.4411 10.6952 73.5215 15.5768 68.6355C20.4585 63.7538 28.3781 63.7538 33.2642 68.6355C23.4964 58.8677 23.4964 43.0329 33.2642 33.2652C43.032 23.4974 58.8667 23.4974 68.6345 33.2652C73.5162 38.1469 81.4358 38.1469 86.3218 33.2652C91.2035 28.3791 91.2035 20.4639 86.3218 15.5778Z" fill="#4184F3"/>
<path d="M24.4183 89.984C31.3258 89.984 36.9254 84.3844 36.9254 77.4769C36.9254 70.5694 31.3258 64.9697 24.4183 64.9697C17.5108 64.9697 11.9111 70.5694 11.9111 77.4769C11.9111 84.3844 17.5108 89.984 24.4183 89.984Z" fill="#34A853"/>
<path d="M86.3218 15.5776C91.2034 20.4593 91.2034 28.3789 86.3218 33.265C81.4401 38.1467 73.5205 38.1467 68.6344 33.265C78.4022 43.0327 78.4022 58.8675 68.6344 68.6353C63.7527 73.517 63.7527 81.4365 68.6344 86.3226C73.5161 91.2043 81.4357 91.2043 86.3218 86.3226C105.822 66.8178 105.822 35.0824 86.3218 15.5776Z" fill="#EA4335"/>
</g>
<defs>
<clipPath id="clip0_270_1621">
<rect width="100" height="100" fill="white" transform="translate(0.950195 0.950195)"/>
</clipPath>
</defs>
</svg>
