<svg width="64" height="64" viewBox="0 0 64 64" fill="none" xmlns="http://www.w3.org/2000/svg">
<path d="M45.484 24.3691L40.5776 39.8324C40.5776 38.6481 37.194 13 37.194 13C29.4115 13 25.2834 18.5154 23.1178 24.3691L17.1287 39.8663C17.1287 38.7497 16.2828 24.5044 16.2828 24.5044C15.9939 21.4206 14.5841 18.5499 12.3204 16.4359C10.0567 14.3219 7.09635 13.1114 4 13.0338L10.3613 51.8783C18.4822 51.8783 22.881 46.3629 25.148 40.5092L30.2236 27.3129C30.2236 27.8543 33.6073 51.8783 33.6073 51.8783C36.928 51.874 40.1611 50.8124 42.8379 48.8473C45.5148 46.8823 47.4964 44.1159 48.4955 40.949L60 13C51.8792 13 47.6157 18.5154 45.4502 24.3691H45.484Z" fill="#4353FF"/>
</svg>
