<svg width="100" height="100" viewBox="0 0 100 100" fill="none" xmlns="http://www.w3.org/2000/svg">
<path d="M12.3691 60.171C12.3691 63.8367 13.1733 66.6508 14.2253 68.3533C15.6042 70.5835 17.6606 71.5301 19.7573 71.5301C22.4611 71.5301 24.935 70.859 29.7021 64.2654C33.5223 58.9807 38.0216 51.5628 41.0496 46.9123L46.1774 39.0335C49.7394 33.5618 53.8624 27.4793 58.5897 23.3564C62.4501 19.991 66.612 18.1216 70.8017 18.1216C77.836 18.1216 84.5362 22.1979 89.664 29.843C95.276 38.2156 98 48.762 98 59.645C98 66.1152 96.7249 70.869 94.5546 74.6248C92.4584 78.2568 88.372 81.8859 81.4982 81.8859V71.5285C87.384 71.5285 88.8525 66.12 88.8525 59.9305C88.8525 51.1104 86.7961 41.3224 82.2658 34.3283C79.0512 29.3673 74.8849 26.3361 70.3011 26.3361C65.3433 26.3361 61.3539 30.0758 56.8702 36.7418C54.4865 40.2841 52.0396 44.6005 49.2919 49.4714L46.2671 54.8296C40.1919 65.6045 38.6525 68.0574 35.6145 72.1059C30.29 79.1961 25.7428 81.8843 19.7573 81.8843C12.6562 81.8843 8.16613 78.8093 5.38506 74.1757C3.11508 70.4001 2 65.4456 2 59.8006L12.3691 60.171Z" fill="#0081FB"/>
<path d="M10.1758 30.5726C14.9297 23.2448 21.7902 18.1201 29.659 18.1201C34.2158 18.1201 38.7469 19.4688 43.4766 23.3316C48.6511 27.5539 54.1662 34.5106 61.0469 45.971L63.5139 50.0827C69.4698 60.0047 72.858 65.1092 74.8413 67.5163C77.3916 70.6074 79.1778 71.529 81.498 71.529C87.3839 71.529 88.8524 66.1205 88.8524 59.9311L97.9999 59.644C97.9999 66.1141 96.7247 70.868 94.5545 74.6238C92.4582 78.2557 88.3719 81.8849 81.498 81.8849C77.2247 81.8849 73.4391 80.9568 69.2526 77.0072C66.0357 73.976 62.2718 68.5912 59.3773 63.7504L50.7675 49.3686C46.4479 42.1509 42.4838 36.7693 40.1917 34.332C37.7243 31.711 34.5528 28.5463 29.4917 28.5463C25.3957 28.5463 21.9169 31.4207 19.006 35.8175L10.1758 30.5726Z" fill="url(#paint0_linear_270_1629)"/>
<path d="M29.4918 28.5463C25.3958 28.5463 21.9171 31.4207 19.0061 35.8175C14.8896 42.0302 12.3711 51.2843 12.3711 60.1711C12.3711 63.8369 13.1754 66.6509 14.2273 68.3535L5.38506 74.1758C3.11508 70.4003 2 65.4458 2 59.8008C2 49.535 4.81766 38.8354 10.1759 30.5726C14.9298 23.2448 21.7904 18.1201 29.6591 18.1201L29.4918 28.5463Z" fill="url(#paint1_linear_270_1629)"/>
<defs>
<linearGradient id="paint0_linear_270_1629" x1="22.8104" y1="48.35" x2="88.9111" y2="51.6884" gradientUnits="userSpaceOnUse">
<stop stop-color="#0064E1"/>
<stop offset="0.4" stop-color="#0064E1"/>
<stop offset="0.83" stop-color="#0073EE"/>
<stop offset="1" stop-color="#0082FB"/>
</linearGradient>
<linearGradient id="paint1_linear_270_1629" x1="15.8293" y1="64.5245" x2="15.8293" y2="40.1539" gradientUnits="userSpaceOnUse">
<stop stop-color="#0082FB"/>
<stop offset="1" stop-color="#0064E0"/>
</linearGradient>
</defs>
</svg>
