<svg width="100" height="100" viewBox="0 0 100 100" fill="none" xmlns="http://www.w3.org/2000/svg">
<path d="M34 98C42.832 98 50 90.832 50 82V66H34C25.168 66 18 73.168 18 82C18 90.832 25.168 98 34 98Z" fill="#0ACF83"/>
<path d="M18 50C18 41.168 25.168 34 34 34H50V66H34C25.168 66 18 58.832 18 50Z" fill="#A259FF"/>
<path d="M18 18C18 9.168 25.168 2 34 2H50V34H34C25.168 34 18 26.832 18 18Z" fill="#F24E1E"/>
<path d="M50 2H66C74.832 2 82 9.168 82 18C82 26.832 74.832 34 66 34H50V2Z" fill="#FF7262"/>
<path d="M82 50C82 58.832 74.832 66 66 66C57.168 66 50 58.832 50 50C50 41.168 57.168 34 66 34C74.832 34 82 41.168 82 50Z" fill="#1ABCFE"/>
</svg>
